<svg width="81" height="272" viewBox="0 0 81 272" fill="none" xmlns="http://www.w3.org/2000/svg">
<path d="M14.1909 271.418L8.64953 268.329L14.1909 265.241L8.64953 262.151L14.1909 259.062L8.64953 255.974L14.1909 252.885L8.64953 249.795L14.1909 246.706L8.64953 243.618L14.1909 240.529L8.64953 237.439L14.1909 234.351H0.630859V211.457H21.0722L15.5309 208.367L21.0722 205.278L15.5309 202.19L21.0722 199.101L15.5309 196.011L21.0722 192.923L15.5309 189.834L21.0722 186.745L15.5309 183.655L21.0722 180.567L15.5309 177.478L21.0722 174.389H59.0175L64.5602 177.478L59.0175 180.567L64.5602 183.655L59.0175 186.745L64.5602 189.834L59.0175 192.923L64.5602 196.011L59.0175 199.101L64.5602 202.19L59.0175 205.278L64.5602 208.367L59.0175 211.457H79.4589V234.351H65.9002L71.4415 237.439L65.9002 240.529L71.4415 243.618L65.9002 246.706L71.4415 249.795L65.9002 252.885L71.4415 255.974L65.9002 259.062L71.4415 262.151L65.9002 265.241L71.4415 268.329L65.9002 271.418H14.1909Z" fill="#888888"/>
<path d="M14.1909 271.418L8.64953 268.329L14.1909 265.241L8.64953 262.151L14.1909 259.062L8.64953 255.974L14.1909 252.885L8.64953 249.795L14.1909 246.706L8.64953 243.618L14.1909 240.529L8.64953 237.439L14.1909 234.351H0.630859V211.457H21.0722L15.5309 208.367L21.0722 205.278L15.5309 202.19L21.0722 199.101L15.5309 196.011L21.0722 192.923L15.5309 189.834L21.0722 186.745L15.5309 183.655L21.0722 180.567L15.5309 177.478L21.0722 174.389H59.0175L64.5602 177.478L59.0175 180.567L64.5602 183.655L59.0175 186.745L64.5602 189.834L59.0175 192.923L64.5602 196.011L59.0175 199.101L64.5602 202.19L59.0175 205.278L64.5602 208.367L59.0175 211.457H79.4589V234.351H65.9002L71.4415 237.439L65.9002 240.529L71.4415 243.618L65.9002 246.706L71.4415 249.795L65.9002 252.885L71.4415 255.974L65.9002 259.062L71.4415 262.151L65.9002 265.241L71.4415 268.329L65.9002 271.418H14.1909Z" stroke="#1D1D1B" stroke-width="0.988" stroke-miterlimit="10" stroke-linecap="round" stroke-linejoin="round"/>
<path d="M64.3574 271.095L68.3094 267.143" stroke="#1D1D1B" stroke-width="0.329333" stroke-miterlimit="10"/>
<path d="M58.1875 271.095L68.9222 260.36" stroke="#1D1D1B" stroke-width="0.329333" stroke-miterlimit="10"/>
<path d="M52.3262 270.784L68.5768 254.534" stroke="#1D1D1B" stroke-width="0.329333" stroke-miterlimit="10"/>
<path d="M46.0391 270.901L68.8524 248.088" stroke="#1D1D1B" stroke-width="0.329333" stroke-miterlimit="10"/>
<path d="M77.0684 233.701L78.8497 231.92" stroke="#1D1D1B" stroke-width="0.329333" stroke-miterlimit="10"/>
<path d="M39.8203 270.95L68.3096 242.461" stroke="#1D1D1B" stroke-width="0.329333" stroke-miterlimit="10"/>
<path d="M70.8984 233.701L78.8504 225.749" stroke="#1D1D1B" stroke-width="0.329333" stroke-miterlimit="10"/>
<path d="M33.2168 271.383L68.1461 236.453" stroke="#1D1D1B" stroke-width="0.329333" stroke-miterlimit="10"/>
<path d="M27.4707 270.958L78.8494 219.579" stroke="#1D1D1B" stroke-width="0.329333" stroke-miterlimit="10"/>
<path d="M21.2734 270.984L78.8481 213.41" stroke="#1D1D1B" stroke-width="0.329333" stroke-miterlimit="10"/>
<path d="M14.9414 271.146L74.4494 211.638" stroke="#1D1D1B" stroke-width="0.329333" stroke-miterlimit="10"/>
<path d="M10.7988 269.118L68.3615 211.555" stroke="#1D1D1B" stroke-width="0.329333" stroke-miterlimit="10"/>
<path d="M10.9961 262.751L61.6454 212.102" stroke="#1D1D1B" stroke-width="0.329333" stroke-miterlimit="10"/>
<path d="M11 256.576L61.2387 206.338" stroke="#1D1D1B" stroke-width="0.329333" stroke-miterlimit="10"/>
<path d="M11 250.406L60.7907 200.616" stroke="#1D1D1B" stroke-width="0.329333" stroke-miterlimit="10"/>
<path d="M10.7891 244.447L60.8451 194.391" stroke="#1D1D1B" stroke-width="0.329333" stroke-miterlimit="10"/>
<path d="M10.4375 238.629L60.8442 188.222" stroke="#1D1D1B" stroke-width="0.329333" stroke-miterlimit="10"/>
<path d="M8.99414 233.901L61.1195 181.776" stroke="#1D1D1B" stroke-width="0.329333" stroke-miterlimit="10"/>
<path d="M2.375 234.351L60.9243 175.801" stroke="#1D1D1B" stroke-width="0.329333" stroke-miterlimit="10"/>
<path d="M20.3984 210.155L55.7184 174.835" stroke="#1D1D1B" stroke-width="0.329333" stroke-miterlimit="10"/>
<path d="M0.630859 229.924L18.4535 212.101" stroke="#1D1D1B" stroke-width="0.329333" stroke-miterlimit="10"/>
<path d="M20.3984 203.985L49.4544 174.929" stroke="#1D1D1B" stroke-width="0.329333" stroke-miterlimit="10"/>
<path d="M0.630859 223.753L12.0255 212.358" stroke="#1D1D1B" stroke-width="0.329333" stroke-miterlimit="10"/>
<path d="M20.3984 197.814L43.4611 174.752" stroke="#1D1D1B" stroke-width="0.329333" stroke-miterlimit="10"/>
<path d="M0.630859 217.583L6.57353 211.64" stroke="#1D1D1B" stroke-width="0.329333" stroke-miterlimit="10"/>
<path d="M20.1191 191.924L37.1911 174.852" stroke="#1D1D1B" stroke-width="0.329333" stroke-miterlimit="10"/>
<path d="M20.123 185.75L30.9804 174.893" stroke="#1D1D1B" stroke-width="0.329333" stroke-miterlimit="10"/>
<path d="M20.3984 179.304L25.2838 174.418" stroke="#1D1D1B" stroke-width="0.329333" stroke-miterlimit="10"/>
<path d="M79.9434 153.857H0.494141V30.9361H79.9434V153.857Z" fill="white" stroke="#1D1D1B" stroke-width="0.988" stroke-miterlimit="10"/>
<path d="M28.7051 152.908H52.3278V267.579H28.7051V152.908Z" fill="white"/>
<path d="M28.7051 152.908V267.579H51.5997V153.208" stroke="#1D1D1B" stroke-width="0.988" stroke-miterlimit="10" stroke-linejoin="round"/>
<path d="M72.7498 51.6494H8.26172V36.3868H72.7498V51.6494Z" fill="#24A737"/>
<path d="M52.3091 60.3711H28.7051V0.000410499H52.3091V60.3711Z" fill="#24A737"/>
<path d="M25.8848 70.3153C25.8848 78.4407 32.4728 85.0273 40.5981 85.0273C48.7248 85.0273 55.3114 78.4407 55.3114 70.3153C55.3114 62.1887 48.7248 55.602 40.5981 55.602C32.4728 55.602 25.8848 62.1887 25.8848 70.3153Z" fill="url(#paint0_radial_1012_6877)"/>
<path d="M55.3134 70.314C55.3134 62.1887 48.7254 55.6007 40.6001 55.6007C32.4747 55.6007 25.8867 62.1887 25.8867 70.314C25.8867 78.4393 32.4747 85.0273 40.6001 85.0273C48.7254 85.0273 55.3134 78.4393 55.3134 70.314Z" stroke="#1D1D1B" stroke-width="1.004" stroke-miterlimit="10"/>
<path d="M17.9842 85.2338H63.4095L17.0762 96.4991L63.4095 106.492L17.0762 117.395L63.4095 129.568L17.0762 140.652L63.4095 151.01H19.8015" stroke="#1D1D1B" stroke-width="3.27067" stroke-miterlimit="10" stroke-linecap="round" stroke-linejoin="round"/>
<defs>
<radialGradient id="paint0_radial_1012_6877" cx="0" cy="0" r="1" gradientTransform="matrix(15.1206 -15.2195 -15.2195 -15.1207 36.6702 73.6992)" gradientUnits="userSpaceOnUse">
<stop stop-color="#D0D0D0"/>
<stop offset="0.99359" stop-color="#646363"/>
<stop offset="1" stop-color="#646363"/>
</radialGradient>
</defs>
</svg>
