<svg width="434" height="218" viewBox="0 0 434 218" fill="none" xmlns="http://www.w3.org/2000/svg">
<path d="M0.181333 47.6042V0.546875H229.421V72.8228H194.331V145.655H229.533V217.503H0L0.181333 0.546875" fill="#24A737"/>
<path d="M203.49 170.195V217.252H432.73V144.976L432.842 72.1439V0.295898H203.309L203.49 217.252" fill="#AC1916"/>
<path d="M238.892 10.8096H219.949V0.546875H238.892V10.8096Z" fill="#1D1D1B" stroke="#1D1D1B" stroke-width="1.09333" stroke-miterlimit="10"/>
<path d="M238.892 216.587H219.949V206.324H238.892V216.587Z" fill="#1D1D1B" stroke="#1D1D1B" stroke-width="1.09333" stroke-miterlimit="10"/>
<path d="M278.412 70.7719H253.201V10.8105H207.412V68.8639H244.207V86.8519H278.412V70.7719Z" fill="#888888"/>
<path d="M278.412 70.7719H253.201V10.8105H207.412V68.8639H244.207V86.8519H278.412V70.7719Z" stroke="#1D1D1B" stroke-width="0.988" stroke-miterlimit="10" stroke-linecap="round" stroke-linejoin="round"/>
<path d="M252.041 15.7854L247.34 11.084" stroke="#1D1D1B" stroke-width="0.329333" stroke-miterlimit="10"/>
<path d="M252.041 42.7678L220.697 11.4238" stroke="#1D1D1B" stroke-width="0.329333" stroke-miterlimit="10"/>
<path d="M268.917 86.6246L207.531 25.2393" stroke="#1D1D1B" stroke-width="0.329333" stroke-miterlimit="10"/>
<path d="M252.791 151.449L245.006 143.664" stroke="#1D1D1B" stroke-width="0.329333" stroke-miterlimit="10"/>
<path d="M253.01 178.652L223.49 149.132" stroke="#1D1D1B" stroke-width="0.329333" stroke-miterlimit="10"/>
<path d="M253.011 202.157L207.912 157.059" stroke="#1D1D1B" stroke-width="0.329333" stroke-miterlimit="10"/>
<path d="M233.168 205.821L207.764 180.417" stroke="#1D1D1B" stroke-width="0.329333" stroke-miterlimit="10"/>
<path d="M223.435 68.2403L207.529 52.335" stroke="#1D1D1B" stroke-width="0.329333" stroke-miterlimit="10"/>
<path d="M252.656 30.072L233.668 11.084" stroke="#1D1D1B" stroke-width="0.329333" stroke-miterlimit="10"/>
<path d="M252.041 56.4411L207.023 11.4238" stroke="#1D1D1B" stroke-width="0.329333" stroke-miterlimit="10"/>
<path d="M277.716 82.1153L267.088 71.4873" stroke="#1D1D1B" stroke-width="0.329333" stroke-miterlimit="10"/>
<path d="M255.242 86.6246L207.955 39.3379" stroke="#1D1D1B" stroke-width="0.329333" stroke-miterlimit="10"/>
<path d="M252.7 165.031L236.576 148.907" stroke="#1D1D1B" stroke-width="0.329333" stroke-miterlimit="10"/>
<path d="M252.957 190.724L210.592 148.358" stroke="#1D1D1B" stroke-width="0.329333" stroke-miterlimit="10"/>
<path d="M243.554 205.176L207.957 169.578" stroke="#1D1D1B" stroke-width="0.329333" stroke-miterlimit="10"/>
<path d="M220.708 204.607L208.342 192.241" stroke="#1D1D1B" stroke-width="0.329333" stroke-miterlimit="10"/>
<path d="M209.762 68.2407L207.91 66.3887" stroke="#1D1D1B" stroke-width="0.329333" stroke-miterlimit="10"/>
<path d="M170.848 108.161C170.848 118.869 179.529 127.549 190.234 127.549C200.942 127.549 209.624 118.869 209.624 108.161C209.624 97.4538 200.942 88.7725 190.234 88.7725C179.529 88.7725 170.848 97.4538 170.848 108.161Z" fill="url(#paint0_radial_1015_220)"/>
<path d="M209.624 108.161C209.624 97.4525 200.944 88.7725 190.236 88.7725C179.53 88.7725 170.85 97.4525 170.85 108.161C170.85 118.869 179.53 127.549 190.236 127.549C200.944 127.549 209.624 118.869 209.624 108.161Z" stroke="#1D1D1B" stroke-width="1.32267" stroke-miterlimit="10"/>
<path d="M121.559 131.913V80.6737L129.735 138.273L137.731 79.0391L145.18 138.273L152.084 79.0391L161.896 138.273L170.849 79.0391V130.641" stroke="#1D1D1B" stroke-width="3.27067" stroke-miterlimit="10" stroke-linecap="round" stroke-linejoin="round"/>
<path d="M244.208 68.8633V94.074H233.714V75.95H206.868V89.0326H193.921V75.95H119.378V96.6633H112.428V68.8633H244.208Z" fill="#646363"/>
<path d="M244.208 68.8633V94.074H233.714V75.95H206.868V89.0326H193.921V75.95H119.378V96.6633H112.428V68.8633H244.208Z" stroke="#1D1D1B" stroke-width="0.988" stroke-miterlimit="10"/>
<path d="M244.003 87.7373L237.803 93.9373" stroke="#1D1D1B" stroke-width="0.329333" stroke-miterlimit="10"/>
<path d="M243.868 79.9688L234.146 89.69" stroke="#1D1D1B" stroke-width="0.329333" stroke-miterlimit="10"/>
<path d="M243.913 72.0195L234.191 81.7408" stroke="#1D1D1B" stroke-width="0.329333" stroke-miterlimit="10"/>
<path d="M239.165 68.8623L232.352 75.6757" stroke="#1D1D1B" stroke-width="0.329333" stroke-miterlimit="10"/>
<path d="M231.261 68.8623L224.447 75.6757" stroke="#1D1D1B" stroke-width="0.329333" stroke-miterlimit="10"/>
<path d="M206.528 85.6934L203.621 88.6001" stroke="#1D1D1B" stroke-width="0.329333" stroke-miterlimit="10"/>
<path d="M223.358 68.8623L216.545 75.6757" stroke="#1D1D1B" stroke-width="0.329333" stroke-miterlimit="10"/>
<path d="M206.413 77.9023L195.658 88.6569" stroke="#1D1D1B" stroke-width="0.329333" stroke-miterlimit="10"/>
<path d="M215.454 68.8623L208.787 75.529" stroke="#1D1D1B" stroke-width="0.329333" stroke-miterlimit="10"/>
<path d="M207.549 68.8623L194.33 82.081" stroke="#1D1D1B" stroke-width="0.329333" stroke-miterlimit="10"/>
<path d="M199.645 68.8623L192.979 75.529" stroke="#1D1D1B" stroke-width="0.329333" stroke-miterlimit="10"/>
<path d="M191.742 68.8623L185.082 75.5223" stroke="#1D1D1B" stroke-width="0.329333" stroke-miterlimit="10"/>
<path d="M183.838 68.8623L177.178 75.5223" stroke="#1D1D1B" stroke-width="0.329333" stroke-miterlimit="10"/>
<path d="M175.933 68.8623L169.273 75.5223" stroke="#1D1D1B" stroke-width="0.329333" stroke-miterlimit="10"/>
<path d="M168.029 68.8623L161.369 75.5223" stroke="#1D1D1B" stroke-width="0.329333" stroke-miterlimit="10"/>
<path d="M160.125 68.8623L153.465 75.5223" stroke="#1D1D1B" stroke-width="0.329333" stroke-miterlimit="10"/>
<path d="M152.221 68.8623L145.561 75.5223" stroke="#1D1D1B" stroke-width="0.329333" stroke-miterlimit="10"/>
<path d="M118.97 94.2109L116.994 96.1869" stroke="#1D1D1B" stroke-width="0.329333" stroke-miterlimit="10"/>
<path d="M144.316 68.8623L137.707 75.4717" stroke="#1D1D1B" stroke-width="0.329333" stroke-miterlimit="10"/>
<path d="M118.651 86.624L112.859 92.416" stroke="#1D1D1B" stroke-width="0.329333" stroke-miterlimit="10"/>
<path d="M136.412 68.8623L129.803 75.4717" stroke="#1D1D1B" stroke-width="0.329333" stroke-miterlimit="10"/>
<path d="M118.787 78.584L112.904 84.4667" stroke="#1D1D1B" stroke-width="0.329333" stroke-miterlimit="10"/>
<path d="M128.51 68.8623L121.9 75.4717" stroke="#1D1D1B" stroke-width="0.329333" stroke-miterlimit="10"/>
<path d="M120.604 68.8623L112.686 76.7809" stroke="#1D1D1B" stroke-width="0.329333" stroke-miterlimit="10"/>
<path d="M244.208 148.176V122.965H233.714V141.089H206.868V128.006H193.921V141.089H119.378V120.376H112.428V148.176H244.208Z" fill="#646363"/>
<path d="M244.208 148.176V122.965H233.714V141.089H206.868V128.006H193.921V141.089H119.378V120.376H112.428V148.176H244.208Z" stroke="#1D1D1B" stroke-width="0.988" stroke-miterlimit="10"/>
<path d="M244.003 141.702L237.803 147.902" stroke="#1D1D1B" stroke-width="0.329333" stroke-miterlimit="10"/>
<path d="M243.662 134.139L229.898 147.903" stroke="#1D1D1B" stroke-width="0.329333" stroke-miterlimit="10"/>
<path d="M228.263 141.634L221.994 147.903" stroke="#1D1D1B" stroke-width="0.329333" stroke-miterlimit="10"/>
<path d="M243.594 126.303L233.986 135.911" stroke="#1D1D1B" stroke-width="0.329333" stroke-miterlimit="10"/>
<path d="M220.734 141.259L214.09 147.903" stroke="#1D1D1B" stroke-width="0.329333" stroke-miterlimit="10"/>
<path d="M239.165 122.828L233.986 128.007" stroke="#1D1D1B" stroke-width="0.329333" stroke-miterlimit="10"/>
<path d="M212.83 141.259L206.186 147.903" stroke="#1D1D1B" stroke-width="0.329333" stroke-miterlimit="10"/>
<path d="M206.426 139.761L198.283 147.903" stroke="#1D1D1B" stroke-width="0.329333" stroke-miterlimit="10"/>
<path d="M206.562 131.721L190.379 147.903" stroke="#1D1D1B" stroke-width="0.329333" stroke-miterlimit="10"/>
<path d="M188.744 141.634L182.475 147.903" stroke="#1D1D1B" stroke-width="0.329333" stroke-miterlimit="10"/>
<path d="M202.371 128.007L194.467 135.911" stroke="#1D1D1B" stroke-width="0.329333" stroke-miterlimit="10"/>
<path d="M181.35 141.123L174.57 147.903" stroke="#1D1D1B" stroke-width="0.329333" stroke-miterlimit="10"/>
<path d="M173.275 141.294L166.666 147.903" stroke="#1D1D1B" stroke-width="0.329333" stroke-miterlimit="10"/>
<path d="M165.645 141.021L158.764 147.902" stroke="#1D1D1B" stroke-width="0.329333" stroke-miterlimit="10"/>
<path d="M157.741 141.021L150.859 147.902" stroke="#1D1D1B" stroke-width="0.329333" stroke-miterlimit="10"/>
<path d="M149.836 141.021L142.955 147.902" stroke="#1D1D1B" stroke-width="0.329333" stroke-miterlimit="10"/>
<path d="M141.932 141.021L135.051 147.902" stroke="#1D1D1B" stroke-width="0.329333" stroke-miterlimit="10"/>
<path d="M134.028 141.021L127.146 147.902" stroke="#1D1D1B" stroke-width="0.329333" stroke-miterlimit="10"/>
<path d="M126.124 141.021L119.242 147.902" stroke="#1D1D1B" stroke-width="0.329333" stroke-miterlimit="10"/>
<path d="M118.971 140.272L112.701 146.541" stroke="#1D1D1B" stroke-width="0.329333" stroke-miterlimit="10"/>
<path d="M119.105 132.232L113.109 138.228" stroke="#1D1D1B" stroke-width="0.329333" stroke-miterlimit="10"/>
<path d="M119.071 124.362L112.904 130.528" stroke="#1D1D1B" stroke-width="0.329333" stroke-miterlimit="10"/>
<path d="M114.814 120.716L112.531 122.999" stroke="#1D1D1B" stroke-width="0.329333" stroke-miterlimit="10"/>
<path d="M253.309 148.296H206.309V206.296H253.309V148.296Z" fill="#888888"/>
<defs>
<radialGradient id="paint0_radial_1015_220" cx="0" cy="0" r="1" gradientUnits="userSpaceOnUse" gradientTransform="translate(185.059 112.621) rotate(-45.1866) scale(28.2696 28.2696)">
<stop stop-color="#D0D0D0"/>
<stop offset="0.99359" stop-color="#646363"/>
<stop offset="1" stop-color="#646363"/>
</radialGradient>
</defs>
</svg>
