<svg width="1143" height="544" viewBox="0 0 1143 544" fill="none" xmlns="http://www.w3.org/2000/svg">
<path d="M590.981 10.9028H512.939V0.00016341H590.981V10.9028Z" fill="#1D1D1B"/>
<path d="M590.981 543.742H512.939V532.839H590.981V543.742Z" fill="#1D1D1B"/>
<path d="M124.437 306.212H82.3965V234.973H124.437V306.212Z" fill="#AC1916"/>
<path d="M126.958 173.615H108.016V163.353H126.958V173.615Z" fill="#1D1D1B" stroke="#1D1D1B" stroke-width="1.09333" stroke-miterlimit="10"/>
<path d="M126.958 379.393H108.016V369.13H126.958V379.393Z" fill="#1D1D1B" stroke="#1D1D1B" stroke-width="1.09333" stroke-miterlimit="10"/>
<path d="M189.237 249.657H240.749L262.417 271.325L240.749 292.993H132.273V310.981H96.8412H95.4785V369.035H141.268V309.073H497.222V532.839H603.79V281.001H1142.36V261.649H603.79V9.81004H497.222V233.577H189.237V249.657Z" fill="#888888"/>
<path d="M189.237 249.657H240.749L262.417 271.325L240.749 292.993H132.273V310.981H96.8412H95.4785V369.035H141.268V309.073H497.222V532.839H603.79V281.001H1142.36V261.649H603.79V9.81004H497.222V233.577H189.237V249.657Z" stroke="#1D1D1B" stroke-width="0.988" stroke-miterlimit="10" stroke-linecap="round" stroke-linejoin="round"/>
<path d="M166.479 233.577H141.268V173.615H95.4785V231.669H132.273V249.657H166.479V233.577Z" fill="#888888"/>
<path d="M166.479 233.577H141.268V173.615H95.4785V231.669H132.273V249.657H166.479V233.577Z" stroke="#1D1D1B" stroke-width="0.988" stroke-miterlimit="10" stroke-linecap="round" stroke-linejoin="round"/>
<path d="M1141.79 273.483L1130.77 262.467Z" fill="#888888"/>
<path d="M1141.79 273.483L1130.77 262.467" stroke="#1D1D1B" stroke-width="0.329333" stroke-miterlimit="10"/>
<path d="M1122.73 281.001L1104.2 262.468Z" fill="#888888"/>
<path d="M1122.73 281.001L1104.2 262.468" stroke="#1D1D1B" stroke-width="0.329333" stroke-miterlimit="10"/>
<path d="M1096.16 281.001L1077.62 262.468Z" fill="#888888"/>
<path d="M1096.16 281.001L1077.62 262.468" stroke="#1D1D1B" stroke-width="0.329333" stroke-miterlimit="10"/>
<path d="M1069.58 281.001L1051.05 262.468Z" fill="#888888"/>
<path d="M1069.58 281.001L1051.05 262.468" stroke="#1D1D1B" stroke-width="0.329333" stroke-miterlimit="10"/>
<path d="M1043.01 281.001L1024.48 262.468Z" fill="#888888"/>
<path d="M1043.01 281.001L1024.48 262.468" stroke="#1D1D1B" stroke-width="0.329333" stroke-miterlimit="10"/>
<path d="M1016.44 281.001L997.902 262.468Z" fill="#888888"/>
<path d="M1016.44 281.001L997.902 262.468" stroke="#1D1D1B" stroke-width="0.329333" stroke-miterlimit="10"/>
<path d="M989.861 281.001L971.328 262.468Z" fill="#888888"/>
<path d="M989.861 281.001L971.328 262.468" stroke="#1D1D1B" stroke-width="0.329333" stroke-miterlimit="10"/>
<path d="M963.287 281.001L944.754 262.468Z" fill="#888888"/>
<path d="M963.287 281.001L944.754 262.468" stroke="#1D1D1B" stroke-width="0.329333" stroke-miterlimit="10"/>
<path d="M936.713 281.001L918.18 262.468Z" fill="#888888"/>
<path d="M936.713 281.001L918.18 262.468" stroke="#1D1D1B" stroke-width="0.329333" stroke-miterlimit="10"/>
<path d="M910.139 281.001L891.605 262.468Z" fill="#888888"/>
<path d="M910.139 281.001L891.605 262.468" stroke="#1D1D1B" stroke-width="0.329333" stroke-miterlimit="10"/>
<path d="M883.567 281.001L865.033 262.468Z" fill="#888888"/>
<path d="M883.567 281.001L865.033 262.468" stroke="#1D1D1B" stroke-width="0.329333" stroke-miterlimit="10"/>
<path d="M856.992 281.001L838.459 262.468Z" fill="#888888"/>
<path d="M856.992 281.001L838.459 262.468" stroke="#1D1D1B" stroke-width="0.329333" stroke-miterlimit="10"/>
<path d="M830.418 281.001L811.885 262.468Z" fill="#888888"/>
<path d="M830.418 281.001L811.885 262.468" stroke="#1D1D1B" stroke-width="0.329333" stroke-miterlimit="10"/>
<path d="M803.844 281.001L785.311 262.468Z" fill="#888888"/>
<path d="M803.844 281.001L785.311 262.468" stroke="#1D1D1B" stroke-width="0.329333" stroke-miterlimit="10"/>
<path d="M777.27 281.001L758.736 262.468Z" fill="#888888"/>
<path d="M777.27 281.001L758.736 262.468" stroke="#1D1D1B" stroke-width="0.329333" stroke-miterlimit="10"/>
<path d="M750.697 281.001L732.164 262.468Z" fill="#888888"/>
<path d="M750.697 281.001L732.164 262.468" stroke="#1D1D1B" stroke-width="0.329333" stroke-miterlimit="10"/>
<path d="M724.123 281.001L705.59 262.468Z" fill="#888888"/>
<path d="M724.123 281.001L705.59 262.468" stroke="#1D1D1B" stroke-width="0.329333" stroke-miterlimit="10"/>
<path d="M697.549 281.001L679.016 262.468Z" fill="#888888"/>
<path d="M697.549 281.001L679.016 262.468" stroke="#1D1D1B" stroke-width="0.329333" stroke-miterlimit="10"/>
<path d="M603.109 213.135L497.699 107.726Z" fill="#888888"/>
<path d="M603.109 213.135L497.699 107.726" stroke="#1D1D1B" stroke-width="0.329333" stroke-miterlimit="10"/>
<path d="M603.109 239.709L497.699 134.3Z" fill="#888888"/>
<path d="M603.109 239.709L497.699 134.3" stroke="#1D1D1B" stroke-width="0.329333" stroke-miterlimit="10"/>
<path d="M603.109 186.562L497.699 81.1527Z" fill="#888888"/>
<path d="M603.109 186.562L497.699 81.1527" stroke="#1D1D1B" stroke-width="0.329333" stroke-miterlimit="10"/>
<path d="M603.109 159.988L497.699 54.5785Z" fill="#888888"/>
<path d="M603.109 159.988L497.699 54.5785" stroke="#1D1D1B" stroke-width="0.329333" stroke-miterlimit="10"/>
<path d="M603.109 133.415L497.699 28.0052Z" fill="#888888"/>
<path d="M603.109 133.415L497.699 28.0052" stroke="#1D1D1B" stroke-width="0.329333" stroke-miterlimit="10"/>
<path d="M603.109 106.841L506.557 10.2888Z" fill="#888888"/>
<path d="M603.109 106.841L506.557 10.2888" stroke="#1D1D1B" stroke-width="0.329333" stroke-miterlimit="10"/>
<path d="M603.109 80.2671L532.723 9.88043Z" fill="#888888"/>
<path d="M603.109 80.2671L532.723 9.88043" stroke="#1D1D1B" stroke-width="0.329333" stroke-miterlimit="10"/>
<path d="M603.108 53.6938L559.295 9.88052Z" fill="#888888"/>
<path d="M603.108 53.6938L559.295 9.88052" stroke="#1D1D1B" stroke-width="0.329333" stroke-miterlimit="10"/>
<path d="M603.11 27.1201L585.871 9.88145Z" fill="#888888"/>
<path d="M603.11 27.1201L585.871 9.88145" stroke="#1D1D1B" stroke-width="0.329333" stroke-miterlimit="10"/>
<path d="M617.35 280.524L497.699 160.873Z" fill="#888888"/>
<path d="M617.35 280.524L497.699 160.873" stroke="#1D1D1B" stroke-width="0.329333" stroke-miterlimit="10"/>
<path d="M603.109 292.857L497.699 187.448Z" fill="#888888"/>
<path d="M603.109 292.857L497.699 187.448" stroke="#1D1D1B" stroke-width="0.329333" stroke-miterlimit="10"/>
<path d="M603.109 319.431L497.699 214.021Z" fill="#888888"/>
<path d="M603.109 319.431L497.699 214.021" stroke="#1D1D1B" stroke-width="0.329333" stroke-miterlimit="10"/>
<path d="M603.109 346.004L491.227 234.122Z" fill="#888888"/>
<path d="M603.109 346.004L491.227 234.122" stroke="#1D1D1B" stroke-width="0.329333" stroke-miterlimit="10"/>
<path d="M603.109 372.578L464.516 233.985Z" fill="#888888"/>
<path d="M603.109 372.578L464.516 233.985" stroke="#1D1D1B" stroke-width="0.329333" stroke-miterlimit="10"/>
<path d="M603.11 399.152L437.602 233.644Z" fill="#888888"/>
<path d="M603.11 399.152L437.602 233.644" stroke="#1D1D1B" stroke-width="0.329333" stroke-miterlimit="10"/>
<path d="M485.844 308.46L411.676 234.292Z" fill="#888888"/>
<path d="M485.844 308.46L411.676 234.292" stroke="#1D1D1B" stroke-width="0.329333" stroke-miterlimit="10"/>
<path d="M458.859 308.46L384.691 234.292Z" fill="#888888"/>
<path d="M458.859 308.46L384.691 234.292" stroke="#1D1D1B" stroke-width="0.329333" stroke-miterlimit="10"/>
<path d="M431.877 308.46L357.709 234.292Z" fill="#888888"/>
<path d="M431.877 308.46L357.709 234.292" stroke="#1D1D1B" stroke-width="0.329333" stroke-miterlimit="10"/>
<path d="M404.895 308.46L330.727 234.292Z" fill="#888888"/>
<path d="M404.895 308.46L330.727 234.292" stroke="#1D1D1B" stroke-width="0.329333" stroke-miterlimit="10"/>
<path d="M377.91 308.46L303.742 234.292Z" fill="#888888"/>
<path d="M377.91 308.46L303.742 234.292" stroke="#1D1D1B" stroke-width="0.329333" stroke-miterlimit="10"/>
<path d="M350.928 308.46L276.76 234.292Z" fill="#888888"/>
<path d="M350.928 308.46L276.76 234.292" stroke="#1D1D1B" stroke-width="0.329333" stroke-miterlimit="10"/>
<path d="M323.945 308.46L249.777 234.292Z" fill="#888888"/>
<path d="M323.945 308.46L249.777 234.292" stroke="#1D1D1B" stroke-width="0.329333" stroke-miterlimit="10"/>
<path d="M210.947 249.43L195.809 234.292Z" fill="#888888"/>
<path d="M210.947 249.43L195.809 234.292" stroke="#1D1D1B" stroke-width="0.329333" stroke-miterlimit="10"/>
<path d="M269.979 308.46L248.312 286.794Z" fill="#888888"/>
<path d="M269.979 308.46L248.312 286.794" stroke="#1D1D1B" stroke-width="0.329333" stroke-miterlimit="10"/>
<path d="M242.994 308.46L227.73 293.196Z" fill="#888888"/>
<path d="M242.994 308.46L227.73 293.196" stroke="#1D1D1B" stroke-width="0.329333" stroke-miterlimit="10"/>
<path d="M216.013 308.46L200.729 293.176Z" fill="#888888"/>
<path d="M216.013 308.46L200.729 293.176" stroke="#1D1D1B" stroke-width="0.329333" stroke-miterlimit="10"/>
<path d="M237.637 249.136L222.793 234.292Z" fill="#888888"/>
<path d="M237.637 249.136L222.793 234.292" stroke="#1D1D1B" stroke-width="0.329333" stroke-miterlimit="10"/>
<path d="M296.963 308.46L261.895 273.394Z" fill="#888888"/>
<path d="M296.963 308.46L261.895 273.394" stroke="#1D1D1B" stroke-width="0.329333" stroke-miterlimit="10"/>
<path d="M140.108 178.59L135.406 173.889Z" fill="#888888"/>
<path d="M140.108 178.59L135.406 173.889" stroke="#1D1D1B" stroke-width="0.329333" stroke-miterlimit="10"/>
<path d="M140.108 205.573L108.764 174.229Z" fill="#888888"/>
<path d="M140.108 205.573L108.764 174.229" stroke="#1D1D1B" stroke-width="0.329333" stroke-miterlimit="10"/>
<path d="M156.983 249.43L95.5977 188.045Z" fill="#888888"/>
<path d="M156.983 249.43L95.5977 188.045" stroke="#1D1D1B" stroke-width="0.329333" stroke-miterlimit="10"/>
<path d="M189.028 308.46L173.648 293.08Z" fill="#888888"/>
<path d="M189.028 308.46L173.648 293.08" stroke="#1D1D1B" stroke-width="0.329333" stroke-miterlimit="10"/>
<path d="M162.046 308.46L146.104 292.518Z" fill="#888888"/>
<path d="M162.046 308.46L146.104 292.518" stroke="#1D1D1B" stroke-width="0.329333" stroke-miterlimit="10"/>
<path d="M140.858 314.254L133.072 306.469Z" fill="#888888"/>
<path d="M140.858 314.254L133.072 306.469" stroke="#1D1D1B" stroke-width="0.329333" stroke-miterlimit="10"/>
<path d="M141.077 341.457L111.557 311.937Z" fill="#888888"/>
<path d="M141.077 341.457L111.557 311.937" stroke="#1D1D1B" stroke-width="0.329333" stroke-miterlimit="10"/>
<path d="M141.077 364.962L95.9785 319.864Z" fill="#888888"/>
<path d="M141.077 364.962L95.9785 319.864" stroke="#1D1D1B" stroke-width="0.329333" stroke-miterlimit="10"/>
<path d="M121.234 368.626L95.8301 343.222Z" fill="#888888"/>
<path d="M121.234 368.626L95.8301 343.222" stroke="#1D1D1B" stroke-width="0.329333" stroke-miterlimit="10"/>
<path d="M603.109 425.726L498.109 320.726Z" fill="#888888"/>
<path d="M603.109 425.726L498.109 320.726" stroke="#1D1D1B" stroke-width="0.329333" stroke-miterlimit="10"/>
<path d="M603.109 452.299L497.699 346.89Z" fill="#888888"/>
<path d="M603.109 452.299L497.699 346.89" stroke="#1D1D1B" stroke-width="0.329333" stroke-miterlimit="10"/>
<path d="M603.109 478.873L497.699 373.464Z" fill="#888888"/>
<path d="M603.109 478.873L497.699 373.464" stroke="#1D1D1B" stroke-width="0.329333" stroke-miterlimit="10"/>
<path d="M603.109 505.447L497.699 400.037Z" fill="#888888"/>
<path d="M603.109 505.447L497.699 400.037" stroke="#1D1D1B" stroke-width="0.329333" stroke-miterlimit="10"/>
<path d="M603.109 532.021L497.699 426.611Z" fill="#888888"/>
<path d="M603.109 532.021L497.699 426.611" stroke="#1D1D1B" stroke-width="0.329333" stroke-miterlimit="10"/>
<path d="M577.218 532.703L497.699 453.185Z" fill="#888888"/>
<path d="M577.218 532.703L497.699 453.185" stroke="#1D1D1B" stroke-width="0.329333" stroke-miterlimit="10"/>
<path d="M550.303 532.362L497.699 479.758Z" fill="#888888"/>
<path d="M550.303 532.362L497.699 479.758" stroke="#1D1D1B" stroke-width="0.329333" stroke-miterlimit="10"/>
<path d="M523.729 532.362L497.699 506.332Z" fill="#888888"/>
<path d="M523.729 532.362L497.699 506.332" stroke="#1D1D1B" stroke-width="0.329333" stroke-miterlimit="10"/>
<path d="M670.975 281.001L652.441 262.468Z" fill="#888888"/>
<path d="M670.975 281.001L652.441 262.468" stroke="#1D1D1B" stroke-width="0.329333" stroke-miterlimit="10"/>
<path d="M644.401 281.001L625.867 262.468Z" fill="#888888"/>
<path d="M644.401 281.001L625.867 262.468" stroke="#1D1D1B" stroke-width="0.329333" stroke-miterlimit="10"/>
<path d="M111.501 231.045L95.5957 215.14Z" fill="#888888"/>
<path d="M111.501 231.045L95.5957 215.14" stroke="#1D1D1B" stroke-width="0.329333" stroke-miterlimit="10"/>
<path d="M1135.63 281.001L1117.1 262.468Z" fill="#888888"/>
<path d="M1135.63 281.001L1117.1 262.468" stroke="#1D1D1B" stroke-width="0.329333" stroke-miterlimit="10"/>
<path d="M1109.06 281.001L1090.53 262.468Z" fill="#888888"/>
<path d="M1109.06 281.001L1090.53 262.468" stroke="#1D1D1B" stroke-width="0.329333" stroke-miterlimit="10"/>
<path d="M1082.48 281.001L1063.95 262.468Z" fill="#888888"/>
<path d="M1082.48 281.001L1063.95 262.468" stroke="#1D1D1B" stroke-width="0.329333" stroke-miterlimit="10"/>
<path d="M1055.91 281.001L1037.38 262.468Z" fill="#888888"/>
<path d="M1055.91 281.001L1037.38 262.468" stroke="#1D1D1B" stroke-width="0.329333" stroke-miterlimit="10"/>
<path d="M1029.34 281.001L1010.8 262.468Z" fill="#888888"/>
<path d="M1029.34 281.001L1010.8 262.468" stroke="#1D1D1B" stroke-width="0.329333" stroke-miterlimit="10"/>
<path d="M1002.76 281.001L984.229 262.468Z" fill="#888888"/>
<path d="M1002.76 281.001L984.229 262.468" stroke="#1D1D1B" stroke-width="0.329333" stroke-miterlimit="10"/>
<path d="M976.19 281.001L957.656 262.468Z" fill="#888888"/>
<path d="M976.19 281.001L957.656 262.468" stroke="#1D1D1B" stroke-width="0.329333" stroke-miterlimit="10"/>
<path d="M949.615 281.001L931.082 262.468Z" fill="#888888"/>
<path d="M949.615 281.001L931.082 262.468" stroke="#1D1D1B" stroke-width="0.329333" stroke-miterlimit="10"/>
<path d="M923.041 281.001L904.508 262.468Z" fill="#888888"/>
<path d="M923.041 281.001L904.508 262.468" stroke="#1D1D1B" stroke-width="0.329333" stroke-miterlimit="10"/>
<path d="M896.467 281.001L877.934 262.468Z" fill="#888888"/>
<path d="M896.467 281.001L877.934 262.468" stroke="#1D1D1B" stroke-width="0.329333" stroke-miterlimit="10"/>
<path d="M869.893 281.001L851.359 262.468Z" fill="#888888"/>
<path d="M869.893 281.001L851.359 262.468" stroke="#1D1D1B" stroke-width="0.329333" stroke-miterlimit="10"/>
<path d="M843.318 281.001L824.785 262.468Z" fill="#888888"/>
<path d="M843.318 281.001L824.785 262.468" stroke="#1D1D1B" stroke-width="0.329333" stroke-miterlimit="10"/>
<path d="M816.744 281.001L798.211 262.468Z" fill="#888888"/>
<path d="M816.744 281.001L798.211 262.468" stroke="#1D1D1B" stroke-width="0.329333" stroke-miterlimit="10"/>
<path d="M790.172 281.001L771.639 262.468Z" fill="#888888"/>
<path d="M790.172 281.001L771.639 262.468" stroke="#1D1D1B" stroke-width="0.329333" stroke-miterlimit="10"/>
<path d="M763.598 281.001L745.064 262.468Z" fill="#888888"/>
<path d="M763.598 281.001L745.064 262.468" stroke="#1D1D1B" stroke-width="0.329333" stroke-miterlimit="10"/>
<path d="M737.024 281.001L718.49 262.468Z" fill="#888888"/>
<path d="M737.024 281.001L718.49 262.468" stroke="#1D1D1B" stroke-width="0.329333" stroke-miterlimit="10"/>
<path d="M710.449 281.001L691.916 262.468Z" fill="#888888"/>
<path d="M710.449 281.001L691.916 262.468" stroke="#1D1D1B" stroke-width="0.329333" stroke-miterlimit="10"/>
<path d="M683.875 281.001L665.342 262.468Z" fill="#888888"/>
<path d="M683.875 281.001L665.342 262.468" stroke="#1D1D1B" stroke-width="0.329333" stroke-miterlimit="10"/>
<path d="M603.676 227.376L497.676 121.376Z" fill="#888888"/>
<path d="M603.676 227.376L497.676 121.376" stroke="#1D1D1B" stroke-width="0.329333" stroke-miterlimit="10"/>
<path d="M603.313 253.587L497.676 147.95Z" fill="#888888"/>
<path d="M603.313 253.587L497.676 147.95" stroke="#1D1D1B" stroke-width="0.329333" stroke-miterlimit="10"/>
<path d="M603.178 200.303L497.678 94.8027Z" fill="#888888"/>
<path d="M603.178 200.303L497.678 94.8027" stroke="#1D1D1B" stroke-width="0.329333" stroke-miterlimit="10"/>
<path d="M603.381 173.934L497.676 68.2283Z" fill="#888888"/>
<path d="M603.381 173.934L497.676 68.2283" stroke="#1D1D1B" stroke-width="0.329333" stroke-miterlimit="10"/>
<path d="M602.949 146.928L497.676 41.6549Z" fill="#888888"/>
<path d="M602.949 146.928L497.676 41.6549" stroke="#1D1D1B" stroke-width="0.329333" stroke-miterlimit="10"/>
<path d="M603.586 120.99L497.699 15.1036Z" fill="#888888"/>
<path d="M603.586 120.99L497.699 15.1036" stroke="#1D1D1B" stroke-width="0.329333" stroke-miterlimit="10"/>
<path d="M603.79 94.6211L519.049 9.87976Z" fill="#888888"/>
<path d="M603.79 94.6211L519.049 9.87976" stroke="#1D1D1B" stroke-width="0.329333" stroke-miterlimit="10"/>
<path d="M602.836 67.0938L545.623 9.88042Z" fill="#888888"/>
<path d="M602.836 67.0938L545.623 9.88042" stroke="#1D1D1B" stroke-width="0.329333" stroke-miterlimit="10"/>
<path d="M603.132 40.8154L572.197 9.88076Z" fill="#888888"/>
<path d="M603.132 40.8154L572.197 9.88076" stroke="#1D1D1B" stroke-width="0.329333" stroke-miterlimit="10"/>
<path d="M603.676 280.524L497.676 174.524Z" fill="#888888"/>
<path d="M603.676 280.524L497.676 174.524" stroke="#1D1D1B" stroke-width="0.329333" stroke-miterlimit="10"/>
<path d="M603.222 306.644L497.676 201.097Z" fill="#888888"/>
<path d="M603.222 306.644L497.676 201.097" stroke="#1D1D1B" stroke-width="0.329333" stroke-miterlimit="10"/>
<path d="M603.222 333.217L497.676 227.671Z" fill="#888888"/>
<path d="M603.222 333.217L497.676 227.671" stroke="#1D1D1B" stroke-width="0.329333" stroke-miterlimit="10"/>
<path d="M603.222 359.791L477.553 234.122Z" fill="#888888"/>
<path d="M603.222 359.791L477.553 234.122" stroke="#1D1D1B" stroke-width="0.329333" stroke-miterlimit="10"/>
<path d="M603.222 386.365L450.842 233.985Z" fill="#888888"/>
<path d="M603.222 386.365L450.842 233.985" stroke="#1D1D1B" stroke-width="0.329333" stroke-miterlimit="10"/>
<path d="M603.222 412.938L423.928 233.644Z" fill="#888888"/>
<path d="M603.222 412.938L423.928 233.644" stroke="#1D1D1B" stroke-width="0.329333" stroke-miterlimit="10"/>
<path d="M472.17 308.46L398.002 234.292Z" fill="#888888"/>
<path d="M472.17 308.46L398.002 234.292" stroke="#1D1D1B" stroke-width="0.329333" stroke-miterlimit="10"/>
<path d="M445.188 308.46L371.02 234.292Z" fill="#888888"/>
<path d="M445.188 308.46L371.02 234.292" stroke="#1D1D1B" stroke-width="0.329333" stroke-miterlimit="10"/>
<path d="M418.203 308.46L344.035 234.292Z" fill="#888888"/>
<path d="M418.203 308.46L344.035 234.292" stroke="#1D1D1B" stroke-width="0.329333" stroke-miterlimit="10"/>
<path d="M391.221 308.46L317.053 234.292Z" fill="#888888"/>
<path d="M391.221 308.46L317.053 234.292" stroke="#1D1D1B" stroke-width="0.329333" stroke-miterlimit="10"/>
<path d="M364.238 308.46L290.07 234.292Z" fill="#888888"/>
<path d="M364.238 308.46L290.07 234.292" stroke="#1D1D1B" stroke-width="0.329333" stroke-miterlimit="10"/>
<path d="M337.254 308.46L263.086 234.292Z" fill="#888888"/>
<path d="M337.254 308.46L263.086 234.292" stroke="#1D1D1B" stroke-width="0.329333" stroke-miterlimit="10"/>
<path d="M310.272 308.46L236.104 234.292Z" fill="#888888"/>
<path d="M310.272 308.46L236.104 234.292" stroke="#1D1D1B" stroke-width="0.329333" stroke-miterlimit="10"/>
<path d="M197.274 249.43L189.705 241.861Z" fill="#888888"/>
<path d="M197.274 249.43L189.705 241.861" stroke="#1D1D1B" stroke-width="0.329333" stroke-miterlimit="10"/>
<path d="M256.306 308.46L240.732 292.887Z" fill="#888888"/>
<path d="M256.306 308.46L240.732 292.887" stroke="#1D1D1B" stroke-width="0.329333" stroke-miterlimit="10"/>
<path d="M229.323 308.46L214.059 293.196Z" fill="#888888"/>
<path d="M229.323 308.46L214.059 293.196" stroke="#1D1D1B" stroke-width="0.329333" stroke-miterlimit="10"/>
<path d="M202.339 308.46L187.055 293.176Z" fill="#888888"/>
<path d="M202.339 308.46L187.055 293.176" stroke="#1D1D1B" stroke-width="0.329333" stroke-miterlimit="10"/>
<path d="M223.963 249.136L209.119 234.292Z" fill="#888888"/>
<path d="M223.963 249.136L209.119 234.292" stroke="#1D1D1B" stroke-width="0.329333" stroke-miterlimit="10"/>
<path d="M283.288 308.46L254.285 279.458Z" fill="#888888"/>
<path d="M283.288 308.46L254.285 279.458" stroke="#1D1D1B" stroke-width="0.329333" stroke-miterlimit="10"/>
<path d="M140.722 192.877L121.734 173.889Z" fill="#888888"/>
<path d="M140.722 192.877L121.734 173.889" stroke="#1D1D1B" stroke-width="0.329333" stroke-miterlimit="10"/>
<path d="M140.107 219.247L95.0898 174.229Z" fill="#888888"/>
<path d="M140.107 219.247L95.0898 174.229" stroke="#1D1D1B" stroke-width="0.329333" stroke-miterlimit="10"/>
<path d="M165.782 244.92L155.154 234.292Z" fill="#888888"/>
<path d="M165.782 244.92L155.154 234.292" stroke="#1D1D1B" stroke-width="0.329333" stroke-miterlimit="10"/>
<path d="M143.308 249.43L96.0215 202.144Z" fill="#888888"/>
<path d="M143.308 249.43L96.0215 202.144" stroke="#1D1D1B" stroke-width="0.329333" stroke-miterlimit="10"/>
<path d="M175.357 308.46L159.977 293.08Z" fill="#888888"/>
<path d="M175.357 308.46L159.977 293.08" stroke="#1D1D1B" stroke-width="0.329333" stroke-miterlimit="10"/>
<path d="M148.372 308.46L132.43 292.518Z" fill="#888888"/>
<path d="M148.372 308.46L132.43 292.518" stroke="#1D1D1B" stroke-width="0.329333" stroke-miterlimit="10"/>
<path d="M140.767 327.837L124.643 311.713Z" fill="#888888"/>
<path d="M140.767 327.837L124.643 311.713" stroke="#1D1D1B" stroke-width="0.329333" stroke-miterlimit="10"/>
<path d="M141.024 353.529L98.6582 311.163Z" fill="#888888"/>
<path d="M141.024 353.529L98.6582 311.163" stroke="#1D1D1B" stroke-width="0.329333" stroke-miterlimit="10"/>
<path d="M131.621 367.98L96.0234 332.383Z" fill="#888888"/>
<path d="M131.621 367.98L96.0234 332.383" stroke="#1D1D1B" stroke-width="0.329333" stroke-miterlimit="10"/>
<path d="M108.775 367.413L96.4082 355.046Z" fill="#888888"/>
<path d="M108.775 367.413L96.4082 355.046" stroke="#1D1D1B" stroke-width="0.329333" stroke-miterlimit="10"/>
<path d="M603.222 439.512L497.324 333.614Z" fill="#888888"/>
<path d="M603.222 439.512L497.324 333.614" stroke="#1D1D1B" stroke-width="0.329333" stroke-miterlimit="10"/>
<path d="M603.223 466.086L496.916 359.779Z" fill="#888888"/>
<path d="M603.223 466.086L496.916 359.779" stroke="#1D1D1B" stroke-width="0.329333" stroke-miterlimit="10"/>
<path d="M603.223 492.66L496.916 386.353Z" fill="#888888"/>
<path d="M603.223 492.66L496.916 386.353" stroke="#1D1D1B" stroke-width="0.329333" stroke-miterlimit="10"/>
<path d="M603.222 519.233L497.312 413.324Z" fill="#888888"/>
<path d="M603.222 519.233L497.312 413.324" stroke="#1D1D1B" stroke-width="0.329333" stroke-miterlimit="10"/>
<path d="M589.435 532.021L497.312 439.898Z" fill="#888888"/>
<path d="M589.435 532.021L497.312 439.898" stroke="#1D1D1B" stroke-width="0.329333" stroke-miterlimit="10"/>
<path d="M563.543 532.703L497.312 466.472Z" fill="#888888"/>
<path d="M563.543 532.703L497.312 466.472" stroke="#1D1D1B" stroke-width="0.329333" stroke-miterlimit="10"/>
<path d="M536.628 532.362L497.312 493.046Z" fill="#888888"/>
<path d="M536.628 532.362L497.312 493.046" stroke="#1D1D1B" stroke-width="0.329333" stroke-miterlimit="10"/>
<path d="M510.055 532.362L497.312 519.619Z" fill="#888888"/>
<path d="M510.055 532.362L497.312 519.619" stroke="#1D1D1B" stroke-width="0.329333" stroke-miterlimit="10"/>
<path d="M657.301 281.001L638.768 262.468Z" fill="#888888"/>
<path d="M657.301 281.001L638.768 262.468" stroke="#1D1D1B" stroke-width="0.329333" stroke-miterlimit="10"/>
<path d="M630.727 281.001L612.193 262.468Z" fill="#888888"/>
<path d="M630.727 281.001L612.193 262.468" stroke="#1D1D1B" stroke-width="0.329333" stroke-miterlimit="10"/>
<path d="M97.8286 231.045L95.9766 229.193Z" fill="#888888"/>
<path d="M97.8286 231.045L95.9766 229.193" stroke="#1D1D1B" stroke-width="0.329333" stroke-miterlimit="10"/>
<path d="M58.9141 270.966C58.9141 281.674 67.5954 290.354 78.3007 290.354C89.0087 290.354 97.69 281.674 97.69 270.966C97.69 260.26 89.0087 251.578 78.3007 251.578C67.5954 251.578 58.9141 260.26 58.9141 270.966Z" fill="url(#paint0_radial_1046_20959)"/>
<path d="M97.6907 270.966C97.6907 260.258 89.0107 251.578 78.3027 251.578C67.596 251.578 58.916 260.258 58.916 270.966C58.916 281.674 67.596 290.354 78.3027 290.354C89.0107 290.354 97.6907 281.674 97.6907 270.966Z" stroke="#1D1D1B" stroke-width="1.32267" stroke-miterlimit="10"/>
<path d="M9.625 294.719V243.479L17.801 301.079L25.797 241.844L33.2463 301.079L40.1503 241.844L49.9623 301.079L58.9157 241.844V293.447" stroke="#1D1D1B" stroke-width="3.27067" stroke-miterlimit="10" stroke-linecap="round" stroke-linejoin="round"/>
<path d="M132.274 231.669V256.879H121.781V238.755H94.9341V251.838H81.9875V238.755H7.4448V259.469H0.494141V231.669H132.274Z" fill="#646363"/>
<path d="M132.274 231.669V256.879H121.781V238.755H94.9341V251.838H81.9875V238.755H7.4448V259.469H0.494141V231.669H132.274Z" stroke="#1D1D1B" stroke-width="0.988" stroke-miterlimit="10"/>
<path d="M132.069 250.543L125.869 256.743Z" fill="#646363"/>
<path d="M132.069 250.543L125.869 256.743" stroke="#1D1D1B" stroke-width="0.329333" stroke-miterlimit="10"/>
<path d="M131.934 242.775L122.213 252.497Z" fill="#646363"/>
<path d="M131.934 242.775L122.213 252.497" stroke="#1D1D1B" stroke-width="0.329333" stroke-miterlimit="10"/>
<path d="M131.979 234.826L122.258 244.547Z" fill="#646363"/>
<path d="M131.979 234.826L122.258 244.547" stroke="#1D1D1B" stroke-width="0.329333" stroke-miterlimit="10"/>
<path d="M127.231 231.669L120.418 238.482Z" fill="#646363"/>
<path d="M127.231 231.669L120.418 238.482" stroke="#1D1D1B" stroke-width="0.329333" stroke-miterlimit="10"/>
<path d="M119.327 231.669L112.514 238.482Z" fill="#646363"/>
<path d="M119.327 231.669L112.514 238.482" stroke="#1D1D1B" stroke-width="0.329333" stroke-miterlimit="10"/>
<path d="M94.5942 248.499L91.6875 251.405Z" fill="#646363"/>
<path d="M94.5942 248.499L91.6875 251.405" stroke="#1D1D1B" stroke-width="0.329333" stroke-miterlimit="10"/>
<path d="M111.425 231.669L104.611 238.482Z" fill="#646363"/>
<path d="M111.425 231.669L104.611 238.482" stroke="#1D1D1B" stroke-width="0.329333" stroke-miterlimit="10"/>
<path d="M94.4793 240.708L83.7246 251.463Z" fill="#646363"/>
<path d="M94.4793 240.708L83.7246 251.463" stroke="#1D1D1B" stroke-width="0.329333" stroke-miterlimit="10"/>
<path d="M103.52 231.668L96.8535 238.335Z" fill="#646363"/>
<path d="M103.52 231.668L96.8535 238.335" stroke="#1D1D1B" stroke-width="0.329333" stroke-miterlimit="10"/>
<path d="M95.6152 231.669L82.3965 244.887Z" fill="#646363"/>
<path d="M95.6152 231.669L82.3965 244.887" stroke="#1D1D1B" stroke-width="0.329333" stroke-miterlimit="10"/>
<path d="M87.7116 231.668L81.0449 238.335Z" fill="#646363"/>
<path d="M87.7116 231.668L81.0449 238.335" stroke="#1D1D1B" stroke-width="0.329333" stroke-miterlimit="10"/>
<path d="M79.8084 231.669L73.1484 238.329Z" fill="#646363"/>
<path d="M79.8084 231.669L73.1484 238.329" stroke="#1D1D1B" stroke-width="0.329333" stroke-miterlimit="10"/>
<path d="M71.9041 231.669L65.2441 238.329Z" fill="#646363"/>
<path d="M71.9041 231.669L65.2441 238.329" stroke="#1D1D1B" stroke-width="0.329333" stroke-miterlimit="10"/>
<path d="M63.9998 231.669L57.3398 238.329Z" fill="#646363"/>
<path d="M63.9998 231.669L57.3398 238.329" stroke="#1D1D1B" stroke-width="0.329333" stroke-miterlimit="10"/>
<path d="M56.0955 231.669L49.4355 238.329Z" fill="#646363"/>
<path d="M56.0955 231.669L49.4355 238.329" stroke="#1D1D1B" stroke-width="0.329333" stroke-miterlimit="10"/>
<path d="M48.1913 231.669L41.5312 238.329Z" fill="#646363"/>
<path d="M48.1913 231.669L41.5312 238.329" stroke="#1D1D1B" stroke-width="0.329333" stroke-miterlimit="10"/>
<path d="M40.287 231.669L33.627 238.329Z" fill="#646363"/>
<path d="M40.287 231.669L33.627 238.329" stroke="#1D1D1B" stroke-width="0.329333" stroke-miterlimit="10"/>
<path d="M7.03655 257.016L5.06055 258.992Z" fill="#646363"/>
<path d="M7.03655 257.016L5.06055 258.992" stroke="#1D1D1B" stroke-width="0.329333" stroke-miterlimit="10"/>
<path d="M32.3828 231.668L25.7734 238.278Z" fill="#646363"/>
<path d="M32.3828 231.668L25.7734 238.278" stroke="#1D1D1B" stroke-width="0.329333" stroke-miterlimit="10"/>
<path d="M6.71778 249.43L0.925781 255.222Z" fill="#646363"/>
<path d="M6.71778 249.43L0.925781 255.222" stroke="#1D1D1B" stroke-width="0.329333" stroke-miterlimit="10"/>
<path d="M24.4785 231.668L17.8691 238.278Z" fill="#646363"/>
<path d="M24.4785 231.668L17.8691 238.278" stroke="#1D1D1B" stroke-width="0.329333" stroke-miterlimit="10"/>
<path d="M6.85337 241.389L0.970703 247.272Z" fill="#646363"/>
<path d="M6.85337 241.389L0.970703 247.272" stroke="#1D1D1B" stroke-width="0.329333" stroke-miterlimit="10"/>
<path d="M16.5761 231.668L9.9668 238.278Z" fill="#646363"/>
<path d="M16.5761 231.668L9.9668 238.278" stroke="#1D1D1B" stroke-width="0.329333" stroke-miterlimit="10"/>
<path d="M8.67062 231.669L0.751953 239.587Z" fill="#646363"/>
<path d="M8.67062 231.669L0.751953 239.587" stroke="#1D1D1B" stroke-width="0.329333" stroke-miterlimit="10"/>
<path d="M132.274 310.981V285.771H121.781V303.895H94.9341V290.812H81.9875V303.895H7.4448V283.181H0.494141V310.981H132.274Z" fill="#646363"/>
<path d="M132.274 310.981V285.771H121.781V303.895H94.9341V290.812H81.9875V303.895H7.4448V283.181H0.494141V310.981H132.274Z" stroke="#1D1D1B" stroke-width="0.988" stroke-miterlimit="10"/>
<path d="M132.069 304.508L125.869 310.708Z" fill="#646363"/>
<path d="M132.069 304.508L125.869 310.708" stroke="#1D1D1B" stroke-width="0.329333" stroke-miterlimit="10"/>
<path d="M131.729 296.945L117.965 310.709Z" fill="#646363"/>
<path d="M131.729 296.945L117.965 310.709" stroke="#1D1D1B" stroke-width="0.329333" stroke-miterlimit="10"/>
<path d="M116.33 304.44L110.061 310.709Z" fill="#646363"/>
<path d="M116.33 304.44L110.061 310.709" stroke="#1D1D1B" stroke-width="0.329333" stroke-miterlimit="10"/>
<path d="M131.661 289.109L122.053 298.717Z" fill="#646363"/>
<path d="M131.661 289.109L122.053 298.717" stroke="#1D1D1B" stroke-width="0.329333" stroke-miterlimit="10"/>
<path d="M108.8 304.065L102.156 310.709Z" fill="#646363"/>
<path d="M108.8 304.065L102.156 310.709" stroke="#1D1D1B" stroke-width="0.329333" stroke-miterlimit="10"/>
<path d="M127.231 285.634L122.053 290.812Z" fill="#646363"/>
<path d="M127.231 285.634L122.053 290.812" stroke="#1D1D1B" stroke-width="0.329333" stroke-miterlimit="10"/>
<path d="M100.896 304.065L94.252 310.709Z" fill="#646363"/>
<path d="M100.896 304.065L94.252 310.709" stroke="#1D1D1B" stroke-width="0.329333" stroke-miterlimit="10"/>
<path d="M94.4923 302.566L86.3496 310.709Z" fill="#646363"/>
<path d="M94.4923 302.566L86.3496 310.709" stroke="#1D1D1B" stroke-width="0.329333" stroke-miterlimit="10"/>
<path d="M94.628 294.526L78.4453 310.709Z" fill="#646363"/>
<path d="M94.628 294.526L78.4453 310.709" stroke="#1D1D1B" stroke-width="0.329333" stroke-miterlimit="10"/>
<path d="M76.8103 304.44L70.541 310.709Z" fill="#646363"/>
<path d="M76.8103 304.44L70.541 310.709" stroke="#1D1D1B" stroke-width="0.329333" stroke-miterlimit="10"/>
<path d="M90.4372 290.812L82.5332 298.716Z" fill="#646363"/>
<path d="M90.4372 290.812L82.5332 298.716" stroke="#1D1D1B" stroke-width="0.329333" stroke-miterlimit="10"/>
<path d="M69.4167 303.929L62.6367 310.709Z" fill="#646363"/>
<path d="M69.4167 303.929L62.6367 310.709" stroke="#1D1D1B" stroke-width="0.329333" stroke-miterlimit="10"/>
<path d="M61.3418 304.1L54.7324 310.709Z" fill="#646363"/>
<path d="M61.3418 304.1L54.7324 310.709" stroke="#1D1D1B" stroke-width="0.329333" stroke-miterlimit="10"/>
<path d="M53.7114 303.827L46.8301 310.708Z" fill="#646363"/>
<path d="M53.7114 303.827L46.8301 310.708" stroke="#1D1D1B" stroke-width="0.329333" stroke-miterlimit="10"/>
<path d="M45.8071 303.827L38.9258 310.708Z" fill="#646363"/>
<path d="M45.8071 303.827L38.9258 310.708" stroke="#1D1D1B" stroke-width="0.329333" stroke-miterlimit="10"/>
<path d="M37.9028 303.827L31.0215 310.708Z" fill="#646363"/>
<path d="M37.9028 303.827L31.0215 310.708" stroke="#1D1D1B" stroke-width="0.329333" stroke-miterlimit="10"/>
<path d="M29.9985 303.827L23.1172 310.708Z" fill="#646363"/>
<path d="M29.9985 303.827L23.1172 310.708" stroke="#1D1D1B" stroke-width="0.329333" stroke-miterlimit="10"/>
<path d="M22.0942 303.827L15.2129 310.708Z" fill="#646363"/>
<path d="M22.0942 303.827L15.2129 310.708" stroke="#1D1D1B" stroke-width="0.329333" stroke-miterlimit="10"/>
<path d="M14.1899 303.827L7.30859 310.708Z" fill="#646363"/>
<path d="M14.1899 303.827L7.30859 310.708" stroke="#1D1D1B" stroke-width="0.329333" stroke-miterlimit="10"/>
<path d="M7.03691 303.077L0.767578 309.347Z" fill="#646363"/>
<path d="M7.03691 303.077L0.767578 309.347" stroke="#1D1D1B" stroke-width="0.329333" stroke-miterlimit="10"/>
<path d="M7.17178 295.037L1.17578 301.033Z" fill="#646363"/>
<path d="M7.17178 295.037L1.17578 301.033" stroke="#1D1D1B" stroke-width="0.329333" stroke-miterlimit="10"/>
<path d="M7.13737 287.167L0.970703 293.334Z" fill="#646363"/>
<path d="M7.13737 287.167L0.970703 293.334" stroke="#1D1D1B" stroke-width="0.329333" stroke-miterlimit="10"/>
<path d="M2.88032 283.522L0.597656 285.804Z" fill="#646363"/>
<path d="M2.88032 283.522L0.597656 285.804" stroke="#1D1D1B" stroke-width="0.329333" stroke-miterlimit="10"/>
<defs>
<radialGradient id="paint0_radial_1046_20959" cx="0" cy="0" r="1" gradientTransform="matrix(19.9244 -20.0546 -20.0546 -19.9244 73.1253 275.427)" gradientUnits="userSpaceOnUse">
<stop stop-color="#D0D0D0"/>
<stop offset="0.99359" stop-color="#646363"/>
<stop offset="1" stop-color="#646363"/>
</radialGradient>
</defs>
</svg>
