<svg width="175" height="64" viewBox="0 0 175 64" fill="none" xmlns="http://www.w3.org/2000/svg">
<path d="M0.494141 62.8389H55.3688V55.1895H93.1621V62.8389H117.403V49.3935H132.341L137.679 56.1162L142.767 49.3935L148.105 56.1162L153.193 49.3935L158.531 56.1162L163.619 49.3935L168.958 56.1162L174.046 49.3935V13.9389L168.958 7.21621L163.619 13.9389L158.531 7.21621L153.193 13.9389L148.105 7.21621L142.767 13.9389L137.679 7.21621L132.341 13.9389H117.403V0.493539H93.1621V8.14287H55.3688V0.493539H0.494141V62.8389Z" fill="#888888"/>
<path d="M0.494141 62.8389H55.3688V55.1895H93.1621V62.8389H117.403V49.3935H132.341L137.679 56.1162L142.767 49.3935L148.105 56.1162L153.193 49.3935L158.531 56.1162L163.619 49.3935L168.958 56.1162L174.046 49.3935V13.9389L168.958 7.21621L163.619 13.9389L158.531 7.21621L153.193 13.9389L148.105 7.21621L142.767 13.9389L137.679 7.21621L132.341 13.9389H117.403V0.493539H93.1621V8.14287H55.3688V0.493539H0.494141V62.8389Z" stroke="#1D1D1B" stroke-width="0.988" stroke-miterlimit="10" stroke-linecap="round" stroke-linejoin="round"/>
<path d="M0.583984 8.39746L8.66932 0.312128Z" fill="#646363"/>
<path d="M0.583984 8.39746L8.66932 0.312128" stroke="#1D1D1B" stroke-width="0.329333" stroke-miterlimit="10"/>
<path d="M0.583984 18.3916L18.664 0.311602Z" fill="#646363"/>
<path d="M0.583984 18.3916L18.664 0.311602" stroke="#1D1D1B" stroke-width="0.329333" stroke-miterlimit="10"/>
<path d="M0.675781 28.2939L28.6584 0.311278Z" fill="#646363"/>
<path d="M0.675781 28.2939L28.6584 0.311278" stroke="#1D1D1B" stroke-width="0.329333" stroke-miterlimit="10"/>
<path d="M0.675781 38.2881L38.6518 0.312088Z" fill="#646363"/>
<path d="M0.675781 38.2881L38.6518 0.312088" stroke="#1D1D1B" stroke-width="0.329333" stroke-miterlimit="10"/>
<path d="M0.855469 48.1016L48.6448 0.312233Z" fill="#646363"/>
<path d="M0.855469 48.1016L48.6448 0.312233" stroke="#1D1D1B" stroke-width="0.329333" stroke-miterlimit="10"/>
<path d="M0.476562 58.4736L54.7312 4.21896Z" fill="#646363"/>
<path d="M0.476562 58.4736L54.7312 4.21896" stroke="#1D1D1B" stroke-width="0.329333" stroke-miterlimit="10"/>
<path d="M6.85352 62.0908L60.3642 8.58015Z" fill="#646363"/>
<path d="M6.85352 62.0908L60.3642 8.58015" stroke="#1D1D1B" stroke-width="0.329333" stroke-miterlimit="10"/>
<path d="M16.8477 62.0908L70.473 8.46548Z" fill="#646363"/>
<path d="M16.8477 62.0908L70.473 8.46548" stroke="#1D1D1B" stroke-width="0.329333" stroke-miterlimit="10"/>
<path d="M26.8398 62.0908L80.8278 8.10282Z" fill="#646363"/>
<path d="M26.8398 62.0908L80.8278 8.10282" stroke="#1D1D1B" stroke-width="0.329333" stroke-miterlimit="10"/>
<path d="M93.9121 5.01367L98.6134 0.312339Z" fill="#646363"/>
<path d="M93.9121 5.01367L98.6134 0.312339" stroke="#1D1D1B" stroke-width="0.329333" stroke-miterlimit="10"/>
<path d="M36.834 62.0908L90.3447 8.58015Z" fill="#646363"/>
<path d="M36.834 62.0908L90.3447 8.58015" stroke="#1D1D1B" stroke-width="0.329333" stroke-miterlimit="10"/>
<path d="M46.8281 62.0908L108.607 0.312158Z" fill="#646363"/>
<path d="M46.8281 62.0908L108.607 0.312158" stroke="#1D1D1B" stroke-width="0.329333" stroke-miterlimit="10"/>
<path d="M64.541 54.3711L116.782 2.12976Z" fill="#646363"/>
<path d="M64.541 54.3711L116.782 2.12976" stroke="#1D1D1B" stroke-width="0.329333" stroke-miterlimit="10"/>
<path d="M73.7148 55.1904L116.67 12.2358Z" fill="#646363"/>
<path d="M73.7148 55.1904L116.67 12.2358" stroke="#1D1D1B" stroke-width="0.329333" stroke-miterlimit="10"/>
<path d="M84.123 54.7773L125.438 13.4627Z" fill="#646363"/>
<path d="M84.123 54.7773L125.438 13.4627" stroke="#1D1D1B" stroke-width="0.329333" stroke-miterlimit="10"/>
<path d="M93.2754 55.6182L138.997 9.89683Z" fill="#646363"/>
<path d="M93.2754 55.6182L138.997 9.89683" stroke="#1D1D1B" stroke-width="0.329333" stroke-miterlimit="10"/>
<path d="M96.7969 62.0908L149.401 9.48682Z" fill="#646363"/>
<path d="M96.7969 62.0908L149.401 9.48682" stroke="#1D1D1B" stroke-width="0.329333" stroke-miterlimit="10"/>
<path d="M106.789 62.0908L159.922 8.95749Z" fill="#646363"/>
<path d="M106.789 62.0908L159.922 8.95749" stroke="#1D1D1B" stroke-width="0.329333" stroke-miterlimit="10"/>
<path d="M129.73 49.1445L169.917 8.95787Z" fill="#646363"/>
<path d="M129.73 49.1445L169.917 8.95787" stroke="#1D1D1B" stroke-width="0.329333" stroke-miterlimit="10"/>
<path d="M135.635 53.2344L173.429 15.4397Z" fill="#646363"/>
<path d="M135.635 53.2344L173.429 15.4397" stroke="#1D1D1B" stroke-width="0.329333" stroke-miterlimit="10"/>
<path d="M145.627 53.2344L173.576 25.285Z" fill="#646363"/>
<path d="M145.627 53.2344L173.576 25.285" stroke="#1D1D1B" stroke-width="0.329333" stroke-miterlimit="10"/>
<path d="M156.189 52.666L173.575 35.2807Z" fill="#646363"/>
<path d="M156.189 52.666L173.575 35.2807" stroke="#1D1D1B" stroke-width="0.329333" stroke-miterlimit="10"/>
<path d="M166.184 52.666L173.225 45.6247Z" fill="#646363"/>
<path d="M166.184 52.666L173.225 45.6247" stroke="#1D1D1B" stroke-width="0.329333" stroke-miterlimit="10"/>
<path d="M54.7333 42.0801H17.5293V21.2534H54.7333V42.0801Z" fill="white"/>
<path d="M20.1191 12.3948L22.8445 8.98813C22.8445 8.98813 25.9791 6.12547 28.1591 8.98813C30.3405 11.8495 30.7485 12.3948 30.7485 12.3948C30.7485 12.3948 32.5205 15.3935 35.3818 12.3948L38.2445 9.39613C38.2445 9.39613 40.4245 6.80813 43.0138 9.39613C44.7165 11.1001 45.6031 11.9855 45.6031 11.9855C45.6031 11.9855 47.7831 15.5295 50.1005 12.2588C52.1618 9.34813 54.5965 6.5348 57.1858 6.6708" stroke="#1D1D1B" stroke-width="2.45333" stroke-miterlimit="10" stroke-linecap="round"/>
<path d="M20.1191 50.9373L22.8445 54.3439C22.8445 54.3439 25.9791 57.2066 28.1591 54.3439C30.3405 51.4826 30.7485 50.9373 30.7485 50.9373C30.7485 50.9373 32.5205 47.9386 35.3818 50.9373L38.2445 53.9359C38.2445 53.9359 40.4245 56.5253 43.0138 53.9359L45.6031 51.3466C45.6031 51.3466 47.7831 47.8026 50.1005 51.0733C52.1618 53.9839 54.5965 56.7973 57.1858 56.6613" stroke="#1D1D1B" stroke-width="2.45333" stroke-miterlimit="10" stroke-linecap="round"/>
<path d="M17.529 49.3262H2.40234V13.7275H17.529V49.3262Z" fill="#1D1D1B"/>
<path d="M174.045 40.1719H104.609V23.1612H174.045V40.1719Z" fill="#B02622"/>
<path d="M104.782 47.8037H54.3594V15.5304H104.782V47.8037Z" fill="#B02622"/>
<path d="M174.045 23.1611H104.609V15.5291H54.7313V21.2531H17.5273" stroke="#1D1D1B" stroke-width="0.988" stroke-miterlimit="10"/>
<path d="M174.045 40.1717H104.609V47.8037H54.7313V42.0797H17.5273" stroke="#1D1D1B" stroke-width="0.988" stroke-miterlimit="10"/>
<path d="M48.6836 31.6669C48.6836 37.5909 53.4849 42.3936 59.4102 42.3936C65.3329 42.3936 70.1356 37.5909 70.1356 31.6669C70.1356 25.7429 65.3329 20.9402 59.4102 20.9402C53.4849 20.9402 48.6836 25.7429 48.6836 31.6669Z" fill="url(#paint0_radial_1012_6598)"/>
<path d="M59.4109 42.3926C65.3349 42.3926 70.1375 37.5899 70.1375 31.6672C70.1375 25.7432 65.3349 20.9406 59.4109 20.9406C53.4869 20.9406 48.6855 25.7432 48.6855 31.6672C48.6855 37.5899 53.4869 42.3926 59.4109 42.3926Z" stroke="#1D1D1B" stroke-width="0.732" stroke-miterlimit="10"/>
<path d="M102.974 22.5126V42.3633L97.977 21.4673L92.345 42.3633L86.5304 21.4673L81.0797 42.3633L75.0837 21.6499L69.541 42.3633V23.8433" stroke="#1D1D1B" stroke-width="2.45333" stroke-miterlimit="10" stroke-linecap="round" stroke-linejoin="round"/>
<defs>
<radialGradient id="paint0_radial_1012_6598" cx="0" cy="0" r="1" gradientUnits="userSpaceOnUse" gradientTransform="translate(56.9422 28.8031) rotate(44.8134) scale(15.6399)">
<stop stop-color="#D0D0D0"/>
<stop offset="0.99359" stop-color="#646363"/>
<stop offset="1" stop-color="#646363"/>
</radialGradient>
</defs>
</svg>
