<svg width="152" height="178" viewBox="0 0 152 178" fill="none" xmlns="http://www.w3.org/2000/svg">
<path d="M151.653 75.9084C151.653 117.74 117.741 151.652 75.9094 151.652C34.0761 151.652 0.164062 117.74 0.164062 75.9084C0.164062 34.0764 34.0761 0.164356 75.9094 0.164356C117.741 0.164356 151.653 34.0764 151.653 75.9084Z" fill="#646363"/>
<path d="M151.653 75.9084C151.653 117.74 117.741 151.652 75.9094 151.652C34.0761 151.652 0.164062 117.74 0.164062 75.9084C0.164062 34.0764 34.0761 0.164356 75.9094 0.164356C117.741 0.164356 151.653 34.0764 151.653 75.9084Z" stroke="#1D1D1B" stroke-width="0.329333" stroke-miterlimit="10"/>
<path d="M146.166 75.9081C146.166 114.709 114.711 146.164 75.9097 146.164C37.107 146.164 5.65234 114.709 5.65234 75.9081C5.65234 37.1067 37.107 5.65207 75.9097 5.65207C114.711 5.65207 146.166 37.1067 146.166 75.9081Z" fill="#ADB8C1"/>
<path d="M146.166 75.9081C146.166 114.709 114.711 146.164 75.9097 146.164C37.107 146.164 5.65234 114.709 5.65234 75.9081C5.65234 37.1067 37.107 5.65207 75.9097 5.65207C114.711 5.65207 146.166 37.1067 146.166 75.9081Z" stroke="#1D1D1B" stroke-width="0.329333" stroke-miterlimit="10"/>
<path d="M77.5226 12.3141C77.5212 12.1821 77.4146 12.0781 77.2852 12.0808L75.5159 12.0928C75.3839 12.0941 75.2812 12.1981 75.2812 12.3301L75.3439 21.2048C75.3453 21.3368 75.4519 21.4408 75.5813 21.4394L77.3506 21.4261C77.4812 21.4248 77.5852 21.3208 77.5839 21.1901L77.5226 12.3141Z" fill="#1D1D1B"/>
<path d="M77.5226 12.3141C77.5212 12.1821 77.4146 12.0781 77.2852 12.0808L75.5159 12.0928C75.3839 12.0941 75.2812 12.1981 75.2812 12.3301L75.3439 21.2048C75.3453 21.3368 75.4519 21.4408 75.5813 21.4394L77.3506 21.4261C77.4812 21.4248 77.5852 21.3208 77.5839 21.1901L77.5226 12.3141Z" stroke="#8E8E8E" stroke-width="0.797333"/>
<path d="M83.3721 12.8288C83.3921 12.6528 83.2681 12.4901 83.0894 12.4701L82.6374 12.4168C82.4587 12.3981 82.2987 12.5221 82.2787 12.7008L81.7441 17.2541C81.7254 17.4301 81.8481 17.5941 82.0267 17.6128L82.4787 17.6661C82.6574 17.6848 82.8174 17.5621 82.8374 17.3834L83.3721 12.8288Z" fill="#1D1D1B"/>
<path d="M83.3721 12.8288C83.3921 12.6528 83.2681 12.4901 83.0894 12.4701L82.6374 12.4168C82.4587 12.3981 82.2987 12.5221 82.2787 12.7008L81.7441 17.2541C81.7254 17.4301 81.8481 17.5941 82.0267 17.6128L82.4787 17.6661C82.6574 17.6848 82.8174 17.5621 82.8374 17.3834L83.3721 12.8288Z" stroke="#8E8E8E" stroke-width="0.797333"/>
<path d="M89.8954 14.064C89.9341 13.8974 89.8314 13.7334 89.6661 13.696L89.1301 13.5707C88.9661 13.5347 88.7981 13.6334 88.7608 13.8001L87.7328 18.2201C87.6941 18.3867 87.7968 18.5507 87.9621 18.588L88.4981 18.7134C88.6621 18.7494 88.8301 18.6494 88.8674 18.484L89.8954 14.064Z" fill="#1D1D1B"/>
<path d="M89.8954 14.064C89.9341 13.8974 89.8314 13.7334 89.6661 13.696L89.1301 13.5707C88.9661 13.5347 88.7981 13.6334 88.7608 13.8001L87.7328 18.2201C87.6941 18.3867 87.7968 18.5507 87.9621 18.588L88.4981 18.7134C88.6621 18.7494 88.8301 18.6494 88.8674 18.484L89.8954 14.064Z" stroke="#8E8E8E" stroke-width="0.797333"/>
<path d="M96.213 15.9292C96.2823 15.7359 96.1783 15.5199 95.985 15.4505L95.617 15.3199C95.421 15.2492 95.2103 15.3532 95.1383 15.5465L93.633 19.7759C93.5637 19.9705 93.6663 20.1852 93.8597 20.2545L94.2277 20.3865C94.425 20.4559 94.6357 20.3532 94.7063 20.1585L96.213 15.9292Z" fill="#1D1D1B"/>
<path d="M96.213 15.9292C96.2823 15.7359 96.1783 15.5199 95.985 15.4505L95.617 15.3199C95.421 15.2492 95.2103 15.3532 95.1383 15.5465L93.633 19.7759C93.5637 19.9705 93.6663 20.1852 93.8597 20.2545L94.2277 20.3865C94.425 20.4559 94.6357 20.3532 94.7063 20.1585L96.213 15.9292Z" stroke="#8E8E8E" stroke-width="0.797333"/>
<path d="M102.286 18.3817C102.364 18.2084 102.288 18.0004 102.114 17.9217L101.656 17.7137C101.483 17.6337 101.276 17.7097 101.198 17.8857L99.3083 22.0297C99.2297 22.203 99.3057 22.411 99.4803 22.4884L99.9377 22.6977C100.111 22.7777 100.319 22.7017 100.398 22.5257L102.286 18.3817Z" fill="#1D1D1B"/>
<path d="M102.286 18.3817C102.364 18.2084 102.288 18.0004 102.114 17.9217L101.656 17.7137C101.483 17.6337 101.276 17.7097 101.198 17.8857L99.3083 22.0297C99.2297 22.203 99.3057 22.411 99.4803 22.4884L99.9377 22.6977C100.111 22.7777 100.319 22.7017 100.398 22.5257L102.286 18.3817Z" stroke="#8E8E8E" stroke-width="0.797333"/>
<path d="M108.094 21.4659C108.197 21.2859 108.133 21.0553 107.953 20.9553L107.586 20.7459C107.406 20.6446 107.176 20.7086 107.074 20.8873L104.83 24.8393C104.728 25.0193 104.792 25.2499 104.97 25.3499L105.338 25.5593C105.517 25.6606 105.748 25.5966 105.849 25.4179L108.094 21.4659Z" fill="#1D1D1B"/>
<path d="M108.094 21.4659C108.197 21.2859 108.133 21.0553 107.953 20.9553L107.586 20.7459C107.406 20.6446 107.176 20.7086 107.074 20.8873L104.83 24.8393C104.728 25.0193 104.792 25.2499 104.97 25.3499L105.338 25.5593C105.517 25.6606 105.748 25.5966 105.849 25.4179L108.094 21.4659Z" stroke="#8E8E8E" stroke-width="0.797333"/>
<path d="M113.585 25.3348C113.704 25.1814 113.676 24.9668 113.522 24.8481L113.168 24.5761C113.017 24.4601 112.798 24.4881 112.681 24.6388L109.961 28.1708C109.844 28.3241 109.872 28.5388 110.025 28.6574L110.378 28.9294C110.529 29.0454 110.749 29.0174 110.865 28.8668L113.585 25.3348Z" fill="#1D1D1B"/>
<path d="M113.585 25.3348C113.704 25.1814 113.676 24.9668 113.522 24.8481L113.168 24.5761C113.017 24.4601 112.798 24.4881 112.681 24.6388L109.961 28.1708C109.844 28.3241 109.872 28.5388 110.025 28.6574L110.378 28.9294C110.529 29.0454 110.749 29.0174 110.865 28.8668L113.585 25.3348Z" stroke="#8E8E8E" stroke-width="0.797333"/>
<path d="M119.364 29.9121C119.413 29.8588 119.413 29.7748 119.36 29.7255L117.849 28.2828C117.797 28.2321 117.715 28.2361 117.663 28.2868L111.487 34.7495C111.439 34.8028 111.439 34.8868 111.491 34.9361L113.001 36.3801C113.053 36.4295 113.137 36.4255 113.188 36.3748L119.364 29.9121Z" fill="#1D1D1B"/>
<path d="M119.364 29.9121C119.413 29.8588 119.413 29.7748 119.36 29.7255L117.849 28.2828C117.797 28.2321 117.715 28.2361 117.663 28.2868L111.487 34.7495C111.439 34.8028 111.439 34.8868 111.491 34.9361L113.001 36.3801C113.053 36.4295 113.137 36.4255 113.188 36.3748L119.364 29.9121Z" stroke="#8E8E8E" stroke-width="0.797333"/>
<path d="M123.133 33.6468C123.018 33.5148 122.824 33.4948 122.689 33.6095L119.229 36.5335C119.096 36.6455 119.08 36.8441 119.192 36.9775L119.532 37.3788C119.646 37.5108 119.841 37.5308 119.976 37.4161L123.436 34.4921C123.569 34.3801 123.585 34.1815 123.473 34.0495L123.133 33.6468Z" fill="#1D1D1B"/>
<path d="M123.133 33.6468C123.018 33.5148 122.824 33.4948 122.689 33.6095L119.229 36.5335C119.096 36.6455 119.08 36.8441 119.192 36.9775L119.532 37.3788C119.646 37.5108 119.841 37.5308 119.976 37.4161L123.436 34.4921C123.569 34.3801 123.585 34.1815 123.473 34.0495L123.133 33.6468Z" stroke="#8E8E8E" stroke-width="0.797333"/>
<path d="M127.221 38.8279C127.136 38.7026 126.965 38.6706 126.839 38.7573L123.051 41.3706C122.925 41.4586 122.893 41.6293 122.981 41.7533L123.343 42.2786C123.428 42.4039 123.6 42.4346 123.725 42.3493L127.513 39.7359C127.639 39.6479 127.671 39.4773 127.584 39.3533L127.221 38.8279Z" fill="#1D1D1B"/>
<path d="M127.221 38.8279C127.136 38.7026 126.965 38.6706 126.839 38.7573L123.051 41.3706C122.925 41.4586 122.893 41.6293 122.981 41.7533L123.343 42.2786C123.428 42.4039 123.6 42.4346 123.725 42.3493L127.513 39.7359C127.639 39.6479 127.671 39.4773 127.584 39.3533L127.221 38.8279Z" stroke="#8E8E8E" stroke-width="0.797333"/>
<path d="M130.968 44.5443C130.856 44.3376 130.594 44.2576 130.384 44.3709L126.558 46.4496C126.347 46.5616 126.271 46.8256 126.384 47.0323L126.511 47.2643C126.622 47.4709 126.886 47.5509 127.095 47.4376L130.92 45.3589C131.132 45.2456 131.207 44.9829 131.094 44.7749L130.968 44.5443Z" fill="#1D1D1B"/>
<path d="M130.968 44.5443C130.856 44.3376 130.594 44.2576 130.384 44.3709L126.558 46.4496C126.347 46.5616 126.271 46.8256 126.384 47.0323L126.511 47.2643C126.622 47.4709 126.886 47.5509 127.095 47.4376L130.92 45.3589C131.132 45.2456 131.207 44.9829 131.094 44.7749L130.968 44.5443Z" stroke="#8E8E8E" stroke-width="0.797333"/>
<path d="M133.89 50.3552C133.796 50.1499 133.558 50.0579 133.351 50.1526L129.434 51.9206C129.231 52.0126 129.139 52.2552 129.231 52.4592L129.348 52.7206C129.442 52.9259 129.682 53.0166 129.887 52.9232L133.804 51.1552C134.008 51.0632 134.099 50.8206 134.008 50.6166L133.89 50.3552Z" fill="#1D1D1B"/>
<path d="M133.89 50.3552C133.796 50.1499 133.558 50.0579 133.351 50.1526L129.434 51.9206C129.231 52.0126 129.139 52.2552 129.231 52.4592L129.348 52.7206C129.442 52.9259 129.682 53.0166 129.887 52.9232L133.804 51.1552C134.008 51.0632 134.099 50.8206 134.008 50.6166L133.89 50.3552Z" stroke="#8E8E8E" stroke-width="0.797333"/>
<path d="M136.145 56.433C136.084 56.2437 135.877 56.1397 135.686 56.201L131.528 57.569C131.338 57.6304 131.236 57.8384 131.297 58.0277L131.421 58.4064C131.482 58.5957 131.69 58.6997 131.88 58.637L136.038 57.2704C136.228 57.2077 136.33 57.001 136.269 56.8117L136.145 56.433Z" fill="#1D1D1B"/>
<path d="M136.145 56.433C136.084 56.2437 135.877 56.1397 135.686 56.201L131.528 57.569C131.338 57.6304 131.236 57.8384 131.297 58.0277L131.421 58.4064C131.482 58.5957 131.69 58.6997 131.88 58.637L136.038 57.2704C136.228 57.2077 136.33 57.001 136.269 56.8117L136.145 56.433Z" stroke="#8E8E8E" stroke-width="0.797333"/>
<path d="M137.955 62.7768C137.919 62.5954 137.743 62.4754 137.56 62.5141L133.166 63.3928C132.987 63.4288 132.867 63.6048 132.903 63.7861L132.986 64.2008C133.022 64.3821 133.198 64.5021 133.38 64.4634L137.775 63.5848C137.955 63.5488 138.074 63.3728 138.038 63.1914L137.955 62.7768Z" fill="#1D1D1B"/>
<path d="M137.955 62.7768C137.919 62.5954 137.743 62.4754 137.56 62.5141L133.166 63.3928C132.987 63.4288 132.867 63.6048 132.903 63.7861L132.986 64.2008C133.022 64.3821 133.198 64.5021 133.38 64.4634L137.775 63.5848C137.955 63.5488 138.074 63.3728 138.038 63.1914L137.955 62.7768Z" stroke="#8E8E8E" stroke-width="0.797333"/>
<path d="M138.958 69.2498C138.933 69.0351 138.737 68.8751 138.522 68.9018L134.163 69.3898C133.947 69.4138 133.789 69.6085 133.815 69.8271L133.85 70.1431C133.877 70.3591 134.071 70.5178 134.286 70.4925L138.645 70.0031C138.861 69.9805 139.019 69.7845 138.994 69.5671L138.958 69.2498Z" fill="#1D1D1B"/>
<path d="M138.958 69.2498C138.933 69.0351 138.737 68.8751 138.522 68.9018L134.163 69.3898C133.947 69.4138 133.789 69.6085 133.815 69.8271L133.85 70.1431C133.877 70.3591 134.071 70.5178 134.286 70.4925L138.645 70.0031C138.861 69.9805 139.019 69.7845 138.994 69.5671L138.958 69.2498Z" stroke="#8E8E8E" stroke-width="0.797333"/>
<path d="M139.342 74.8288C139.342 74.7368 139.266 74.6608 139.175 74.6608L129.908 74.6288C129.816 74.6288 129.74 74.7048 129.74 74.7954L129.732 76.8928C129.732 76.9848 129.808 77.0608 129.9 77.0608L139.166 77.0928C139.259 77.0928 139.334 77.0168 139.335 76.9261L139.342 74.8288Z" fill="#1D1D1B"/>
<path d="M139.342 74.8288C139.342 74.7368 139.266 74.6608 139.175 74.6608L129.908 74.6288C129.816 74.6288 129.74 74.7048 129.74 74.7954L129.732 76.8928C129.732 76.9848 129.808 77.0608 129.9 77.0608L139.166 77.0928C139.259 77.0928 139.334 77.0168 139.335 76.9261L139.342 74.8288Z" stroke="#8E8E8E" stroke-width="0.797333"/>
<path d="M138.997 82.376C139.019 82.1733 138.875 81.9893 138.671 81.964L134.213 81.4413C134.011 81.416 133.823 81.564 133.801 81.7653L133.762 82.0986C133.739 82.3013 133.883 82.484 134.087 82.5093L138.546 83.0333C138.747 83.0586 138.935 82.9106 138.958 82.7093L138.997 82.376Z" fill="#1D1D1B"/>
<path d="M138.997 82.376C139.019 82.1733 138.875 81.9893 138.671 81.964L134.213 81.4413C134.011 81.416 133.823 81.564 133.801 81.7653L133.762 82.0986C133.739 82.3013 133.883 82.484 134.087 82.5093L138.546 83.0333C138.747 83.0586 138.935 82.9106 138.958 82.7093L138.997 82.376Z" stroke="#8E8E8E" stroke-width="0.797333"/>
<path d="M137.97 88.7064C138.014 88.5251 137.898 88.3411 137.717 88.2998L133.334 87.2878C133.153 87.2451 132.97 87.3598 132.927 87.5424L132.818 88.0158C132.774 88.1984 132.89 88.3811 133.071 88.4224L137.454 89.4344C137.635 89.4771 137.818 89.3624 137.861 89.1798L137.97 88.7064Z" fill="#1D1D1B"/>
<path d="M137.97 88.7064C138.014 88.5251 137.898 88.3411 137.717 88.2998L133.334 87.2878C133.153 87.2451 132.97 87.3598 132.927 87.5424L132.818 88.0158C132.774 88.1984 132.89 88.3811 133.071 88.4224L137.454 89.4344C137.635 89.4771 137.818 89.3624 137.861 89.1798L137.97 88.7064Z" stroke="#8E8E8E" stroke-width="0.797333"/>
<path d="M136.393 95.0118C136.444 94.8571 136.36 94.6891 136.206 94.6385L131.817 93.1785C131.662 93.1265 131.494 93.2105 131.444 93.3651L131.278 93.8651C131.228 94.0198 131.312 94.1878 131.465 94.2385L135.854 95.6985C136.009 95.7505 136.176 95.6665 136.226 95.5118L136.393 95.0118Z" fill="#1D1D1B"/>
<path d="M136.393 95.0118C136.444 94.8571 136.36 94.6891 136.206 94.6385L131.817 93.1785C131.662 93.1265 131.494 93.2105 131.444 93.3651L131.278 93.8651C131.228 94.0198 131.312 94.1878 131.465 94.2385L135.854 95.6985C136.009 95.7505 136.176 95.6665 136.226 95.5118L136.393 95.0118Z" stroke="#8E8E8E" stroke-width="0.797333"/>
<path d="M134.056 101.099C134.127 100.945 134.059 100.763 133.903 100.692L129.752 98.8187C129.597 98.748 129.417 98.816 129.347 98.972L129.133 99.444C129.063 99.5974 129.131 99.7814 129.287 99.8507L133.436 101.724C133.592 101.795 133.772 101.727 133.843 101.571L134.056 101.099Z" fill="#1D1D1B"/>
<path d="M134.056 101.099C134.127 100.945 134.059 100.763 133.903 100.692L129.752 98.8187C129.597 98.748 129.417 98.816 129.347 98.972L129.133 99.444C129.063 99.5974 129.131 99.7814 129.287 99.8507L133.436 101.724C133.592 101.795 133.772 101.727 133.843 101.571L134.056 101.099Z" stroke="#8E8E8E" stroke-width="0.797333"/>
<path d="M131.197 106.837C131.311 106.632 131.235 106.373 131.029 106.257L127.247 104.18C127.041 104.064 126.782 104.14 126.669 104.348L126.538 104.585C126.423 104.791 126.499 105.049 126.706 105.165L130.486 107.243C130.693 107.359 130.953 107.283 131.066 107.075L131.197 106.837Z" fill="#1D1D1B"/>
<path d="M131.197 106.837C131.311 106.632 131.235 106.373 131.029 106.257L127.247 104.18C127.041 104.064 126.782 104.14 126.669 104.348L126.538 104.585C126.423 104.791 126.499 105.049 126.706 105.165L130.486 107.243C130.693 107.359 130.953 107.283 131.066 107.075L131.197 106.837Z" stroke="#8E8E8E" stroke-width="0.797333"/>
<path d="M128.298 111.715C128.345 111.652 128.329 111.564 128.266 111.52L120.725 106.121C120.661 106.077 120.574 106.089 120.53 106.153L119.277 107.904C119.23 107.967 119.246 108.055 119.309 108.099L126.85 113.497C126.913 113.541 127.001 113.529 127.045 113.465L128.298 111.715Z" fill="#1D1D1B"/>
<path d="M128.298 111.715C128.345 111.652 128.329 111.564 128.266 111.52L120.725 106.121C120.661 106.077 120.574 106.089 120.53 106.153L119.277 107.904C119.23 107.967 119.246 108.055 119.309 108.099L126.85 113.497C126.913 113.541 127.001 113.529 127.045 113.465L128.298 111.715Z" stroke="#8E8E8E" stroke-width="0.797333"/>
<path d="M77.5226 12.3141C77.5212 12.1821 77.4146 12.0781 77.2852 12.0808L75.5159 12.0928C75.3839 12.0941 75.2812 12.1981 75.2812 12.3301L75.3439 21.2048C75.3453 21.3368 75.4519 21.4408 75.5813 21.4394L77.3506 21.4261C77.4812 21.4248 77.5852 21.3208 77.5839 21.1901L77.5226 12.3141Z" fill="#1D1D1B"/>
<path d="M83.3721 12.8288C83.3921 12.6528 83.2681 12.4901 83.0894 12.4701L82.6374 12.4168C82.4587 12.3981 82.2987 12.5221 82.2787 12.7008L81.7441 17.2541C81.7254 17.4301 81.8481 17.5941 82.0267 17.6128L82.4787 17.6661C82.6574 17.6848 82.8174 17.5621 82.8374 17.3834L83.3721 12.8288Z" fill="#1D1D1B"/>
<path d="M89.8954 14.064C89.9341 13.8974 89.8314 13.7334 89.6661 13.696L89.1301 13.5707C88.9661 13.5347 88.7981 13.6334 88.7608 13.8001L87.7328 18.2201C87.6941 18.3867 87.7968 18.5507 87.9621 18.588L88.4981 18.7134C88.6621 18.7494 88.8301 18.6494 88.8674 18.484L89.8954 14.064Z" fill="#1D1D1B"/>
<path d="M96.213 15.9292C96.2823 15.7359 96.1783 15.5199 95.985 15.4505L95.617 15.3199C95.421 15.2492 95.2103 15.3532 95.1383 15.5465L93.633 19.7759C93.5637 19.9705 93.6663 20.1852 93.8597 20.2545L94.2277 20.3865C94.425 20.4559 94.6357 20.3532 94.7063 20.1585L96.213 15.9292Z" fill="#1D1D1B"/>
<path d="M102.286 18.3817C102.364 18.2084 102.288 18.0004 102.114 17.9217L101.656 17.7137C101.483 17.6337 101.276 17.7097 101.198 17.8857L99.3083 22.0297C99.2297 22.203 99.3057 22.411 99.4803 22.4884L99.9377 22.6977C100.111 22.7777 100.319 22.7017 100.398 22.5257L102.286 18.3817Z" fill="#1D1D1B"/>
<path d="M108.094 21.4659C108.197 21.2859 108.133 21.0553 107.953 20.9553L107.586 20.7459C107.406 20.6446 107.176 20.7086 107.074 20.8873L104.83 24.8393C104.728 25.0193 104.792 25.2499 104.97 25.3499L105.338 25.5593C105.517 25.6606 105.748 25.5966 105.849 25.4179L108.094 21.4659Z" fill="#1D1D1B"/>
<path d="M113.585 25.3348C113.704 25.1814 113.676 24.9668 113.522 24.8481L113.168 24.5761C113.017 24.4601 112.798 24.4881 112.681 24.6388L109.961 28.1708C109.844 28.3241 109.872 28.5388 110.025 28.6574L110.378 28.9294C110.529 29.0454 110.749 29.0174 110.865 28.8668L113.585 25.3348Z" fill="#1D1D1B"/>
<path d="M119.364 29.9121C119.413 29.8588 119.413 29.7748 119.36 29.7255L117.849 28.2828C117.797 28.2321 117.715 28.2361 117.663 28.2868L111.487 34.7495C111.439 34.8028 111.439 34.8868 111.491 34.9361L113.001 36.3801C113.053 36.4295 113.137 36.4255 113.188 36.3748L119.364 29.9121Z" fill="#1D1D1B"/>
<path d="M123.133 33.6468C123.018 33.5148 122.824 33.4948 122.689 33.6095L119.229 36.5335C119.096 36.6455 119.08 36.8441 119.192 36.9775L119.532 37.3788C119.646 37.5108 119.841 37.5308 119.976 37.4161L123.436 34.4921C123.569 34.3801 123.585 34.1815 123.473 34.0495L123.133 33.6468Z" fill="#1D1D1B"/>
<path d="M127.221 38.8279C127.136 38.7026 126.965 38.6706 126.839 38.7573L123.051 41.3706C122.925 41.4586 122.893 41.6293 122.981 41.7533L123.343 42.2786C123.428 42.4039 123.6 42.4346 123.725 42.3493L127.513 39.7359C127.639 39.6479 127.671 39.4773 127.584 39.3533L127.221 38.8279Z" fill="#1D1D1B"/>
<path d="M130.968 44.5443C130.856 44.3376 130.594 44.2576 130.384 44.3709L126.558 46.4496C126.347 46.5616 126.271 46.8256 126.384 47.0323L126.511 47.2643C126.622 47.4709 126.886 47.5509 127.095 47.4376L130.92 45.3589C131.132 45.2456 131.207 44.9829 131.094 44.7749L130.968 44.5443Z" fill="#1D1D1B"/>
<path d="M133.89 50.3552C133.796 50.1499 133.558 50.0579 133.351 50.1526L129.434 51.9206C129.231 52.0126 129.139 52.2552 129.231 52.4592L129.348 52.7206C129.442 52.9259 129.682 53.0166 129.887 52.9232L133.804 51.1552C134.008 51.0632 134.099 50.8206 134.008 50.6166L133.89 50.3552Z" fill="#1D1D1B"/>
<path d="M136.145 56.433C136.084 56.2437 135.877 56.1397 135.686 56.201L131.528 57.569C131.338 57.6304 131.236 57.8384 131.297 58.0277L131.421 58.4064C131.482 58.5957 131.69 58.6997 131.88 58.637L136.038 57.2704C136.228 57.2077 136.33 57.001 136.269 56.8117L136.145 56.433Z" fill="#1D1D1B"/>
<path d="M137.955 62.7768C137.919 62.5954 137.743 62.4754 137.56 62.5141L133.166 63.3928C132.987 63.4288 132.867 63.6048 132.903 63.7861L132.986 64.2008C133.022 64.3821 133.198 64.5021 133.38 64.4634L137.775 63.5848C137.955 63.5488 138.074 63.3728 138.038 63.1914L137.955 62.7768Z" fill="#1D1D1B"/>
<path d="M138.958 69.2498C138.933 69.0351 138.737 68.8751 138.522 68.9018L134.163 69.3898C133.947 69.4138 133.789 69.6085 133.815 69.8271L133.85 70.1431C133.877 70.3591 134.071 70.5178 134.286 70.4925L138.645 70.0031C138.861 69.9805 139.019 69.7845 138.994 69.5671L138.958 69.2498Z" fill="#1D1D1B"/>
<path d="M139.342 74.8288C139.342 74.7368 139.266 74.6608 139.175 74.6608L129.908 74.6288C129.816 74.6288 129.74 74.7048 129.74 74.7954L129.732 76.8928C129.732 76.9848 129.808 77.0608 129.9 77.0608L139.166 77.0928C139.259 77.0928 139.334 77.0168 139.335 76.9261L139.342 74.8288Z" fill="#1D1D1B"/>
<path d="M138.997 82.376C139.019 82.1733 138.875 81.9893 138.671 81.964L134.213 81.4413C134.011 81.416 133.823 81.564 133.801 81.7653L133.762 82.0986C133.739 82.3013 133.883 82.484 134.087 82.5093L138.546 83.0333C138.747 83.0586 138.935 82.9106 138.958 82.7093L138.997 82.376Z" fill="#1D1D1B"/>
<path d="M137.97 88.7064C138.014 88.5251 137.898 88.3411 137.717 88.2998L133.334 87.2878C133.153 87.2451 132.97 87.3598 132.927 87.5424L132.818 88.0158C132.774 88.1984 132.89 88.3811 133.071 88.4224L137.454 89.4344C137.635 89.4771 137.818 89.3624 137.861 89.1798L137.97 88.7064Z" fill="#1D1D1B"/>
<path d="M136.393 95.0118C136.444 94.8571 136.36 94.6891 136.206 94.6385L131.817 93.1785C131.662 93.1265 131.494 93.2105 131.444 93.3651L131.278 93.8651C131.228 94.0198 131.312 94.1878 131.465 94.2385L135.854 95.6985C136.009 95.7505 136.176 95.6665 136.226 95.5118L136.393 95.0118Z" fill="#1D1D1B"/>
<path d="M134.056 101.099C134.127 100.945 134.059 100.763 133.903 100.692L129.752 98.8187C129.597 98.748 129.417 98.816 129.347 98.972L129.133 99.444C129.063 99.5974 129.131 99.7814 129.287 99.8507L133.436 101.724C133.592 101.795 133.772 101.727 133.843 101.571L134.056 101.099Z" fill="#1D1D1B"/>
<path d="M131.197 106.837C131.311 106.632 131.235 106.373 131.029 106.257L127.247 104.18C127.041 104.064 126.782 104.14 126.669 104.348L126.538 104.585C126.423 104.791 126.499 105.049 126.706 105.165L130.486 107.243C130.693 107.359 130.953 107.283 131.066 107.075L131.197 106.837Z" fill="#1D1D1B"/>
<path d="M128.298 111.715C128.345 111.652 128.329 111.564 128.266 111.52L120.725 106.121C120.661 106.077 120.574 106.089 120.53 106.153L119.277 107.904C119.23 107.967 119.246 108.055 119.309 108.099L126.85 113.497C126.913 113.541 127.001 113.529 127.045 113.465L128.298 111.715Z" fill="#1D1D1B"/>
<path d="M75.5146 12.0928L77.2853 12.0808C77.4146 12.0795 77.5213 12.1835 77.5213 12.3141L77.5839 21.1901C77.5853 21.3195 77.4799 21.4261 77.3506 21.4261L75.5799 21.4395C75.4493 21.4395 75.3439 21.3355 75.3426 21.2048L75.2813 12.3301C75.2799 12.1995 75.3853 12.0941 75.5146 12.0928Z" fill="#1D1D1B"/>
<path d="M82.6379 12.4175L83.0899 12.4709C83.2659 12.4909 83.3939 12.6522 83.3725 12.8295L82.8379 17.3829C82.8165 17.5602 82.6565 17.6869 82.4792 17.6669L82.0272 17.6135C81.8499 17.5922 81.7232 17.4322 81.7445 17.2549L82.2792 12.7002C82.3005 12.5229 82.4605 12.3962 82.6379 12.4175Z" fill="#6E767F"/>
<path d="M89.1301 13.5709L89.6661 13.6962C89.8314 13.7335 89.9341 13.8989 89.8954 14.0642L88.8674 18.4842C88.8288 18.6495 88.6634 18.7522 88.4981 18.7135L87.9621 18.5882C87.7968 18.5495 87.6941 18.3855 87.7328 18.2202L88.7621 13.8002C88.7994 13.6349 88.9648 13.5322 89.1301 13.5709Z" fill="#6E767F"/>
<path d="M95.6183 15.3197L95.9863 15.4504C96.181 15.5197 96.2837 15.7344 96.2143 15.929L94.7077 20.1597C94.6383 20.3544 94.4237 20.4557 94.229 20.3864L93.861 20.2557C93.6663 20.1864 93.5637 19.9717 93.633 19.777L95.1397 15.5477C95.209 15.3517 95.4237 15.2504 95.6183 15.3197Z" fill="#6E767F"/>
<path d="M101.656 17.7133L102.114 17.9213C102.288 18.0013 102.364 18.2066 102.286 18.3813L100.396 22.5253C100.318 22.6986 100.112 22.7759 99.9377 22.6959L99.4803 22.4879C99.3057 22.4093 99.2297 22.2026 99.3083 22.0293L101.196 17.8853C101.276 17.7106 101.482 17.6333 101.656 17.7133Z" fill="#6E767F"/>
<path d="M107.587 20.7457L107.955 20.955C108.135 21.0563 108.197 21.2857 108.095 21.4657L105.849 25.4177C105.748 25.5977 105.519 25.6603 105.339 25.559L104.971 25.3497C104.791 25.247 104.728 25.019 104.831 24.839L107.076 20.887C107.177 20.707 107.407 20.643 107.587 20.7457Z" fill="#6E767F"/>
<path d="M113.169 24.5758L113.522 24.8478C113.674 24.9652 113.702 25.1825 113.586 25.3345L110.866 28.8665C110.749 29.0185 110.531 29.0465 110.379 28.9305L110.026 28.6572C109.874 28.5412 109.846 28.3225 109.962 28.1705L112.682 24.6385C112.799 24.4878 113.017 24.4585 113.169 24.5758Z" fill="#6E767F"/>
<path d="M117.85 28.2827L119.361 29.7267C119.413 29.776 119.415 29.86 119.365 29.912L113.189 36.376C113.138 36.428 113.055 36.4293 113.002 36.38L111.491 34.936C111.439 34.8853 111.438 34.8027 111.487 34.7493L117.663 28.2867C117.714 28.2347 117.798 28.232 117.85 28.2827Z" fill="#1D1D1B"/>
<path d="M119.229 36.5326L122.689 33.6086C122.822 33.4966 123.021 33.5139 123.133 33.6459L123.473 34.0486C123.585 34.1806 123.568 34.3793 123.436 34.4926L119.976 37.4153C119.842 37.5286 119.644 37.5113 119.532 37.3779L119.192 36.9766C119.08 36.8433 119.096 36.6446 119.229 36.5326Z" fill="#6E767F"/>
<path d="M123.052 41.3706L126.84 38.7573C126.966 38.6719 127.136 38.7026 127.223 38.8279L127.584 39.3533C127.671 39.4786 127.64 39.6493 127.515 39.7359L123.727 42.3493C123.602 42.4346 123.431 42.4039 123.344 42.2786L122.982 41.7533C122.896 41.6279 122.927 41.4573 123.052 41.3706Z" fill="#6E767F"/>
<path d="M126.558 46.4491L130.384 44.3717C130.594 44.2584 130.855 44.3357 130.968 44.5451L131.094 44.7757C131.207 44.9851 131.13 45.2464 130.92 45.3597L127.094 47.4371C126.886 47.5504 126.624 47.4731 126.51 47.2637L126.384 47.0331C126.271 46.8237 126.348 46.5624 126.558 46.4491Z" fill="#6E767F"/>
<path d="M129.433 51.9208L133.351 50.1514C133.556 50.0594 133.796 50.1501 133.889 50.3554L134.007 50.6168C134.1 50.8221 134.008 51.0621 133.804 51.1554L129.887 52.9234C129.681 53.0168 129.44 52.9248 129.348 52.7208L129.229 52.4594C129.137 52.2541 129.228 52.0128 129.433 51.9208Z" fill="#6E767F"/>
<path d="M131.53 57.569L135.688 56.201C135.879 56.1384 136.084 56.2424 136.147 56.433L136.271 56.8117C136.334 57.0024 136.231 57.2077 136.04 57.2704L131.88 58.637C131.691 58.6997 131.486 58.5957 131.423 58.4064L131.298 58.0277C131.235 57.837 131.339 57.6317 131.53 57.569Z" fill="#6E767F"/>
<path d="M133.166 63.3923L137.56 62.5136C137.742 62.4776 137.919 62.5949 137.955 62.7763L138.038 63.1909C138.074 63.3723 137.956 63.5496 137.775 63.5856L133.38 64.4643C133.198 64.5003 133.022 64.3816 132.986 64.2003L132.903 63.7869C132.867 63.6043 132.984 63.4283 133.166 63.3923Z" fill="#6E767F"/>
<path d="M134.163 69.3904L138.522 68.901C138.739 68.877 138.934 69.033 138.958 69.2504L138.994 69.5664C139.018 69.7837 138.862 69.9784 138.646 70.0024L134.287 70.4917C134.07 70.5157 133.875 70.3597 133.851 70.1437L133.815 69.8264C133.791 69.6104 133.947 69.4144 134.163 69.3904Z" fill="#6E767F"/>
<path d="M129.908 74.6284L139.175 74.6604C139.267 74.6618 139.342 74.7364 139.342 74.8284L139.335 76.9258C139.334 77.0191 139.259 77.0938 139.167 77.0938L129.9 77.0604C129.807 77.0604 129.732 76.9857 129.732 76.8924L129.74 74.7951C129.74 74.7031 129.816 74.6284 129.908 74.6284Z" fill="#1D1D1B"/>
<path d="M134.213 81.4402L138.672 81.9642C138.876 81.9882 139.021 82.1722 138.997 82.3762L138.958 82.7082C138.934 82.9122 138.75 83.0575 138.546 83.0335L134.088 82.5095C133.884 82.4855 133.738 82.3015 133.762 82.0975L133.801 81.7655C133.825 81.5615 134.009 81.4162 134.213 81.4402Z" fill="#6E767F"/>
<path d="M133.334 87.2882L137.716 88.3002C137.899 88.3415 138.012 88.5242 137.97 88.7069L137.86 89.1802C137.819 89.3629 137.636 89.4762 137.454 89.4349L133.072 88.4229C132.89 88.3802 132.775 88.1989 132.818 88.0162L132.927 87.5415C132.97 87.3602 133.151 87.2455 133.334 87.2882Z" fill="#6E767F"/>
<path d="M131.818 93.1781L136.207 94.6381C136.362 94.6901 136.444 94.8568 136.394 95.0115L136.227 95.5101C136.176 95.6648 136.008 95.7488 135.854 95.6981L131.466 94.2368C131.311 94.1861 131.227 94.0195 131.279 93.8648L131.444 93.3648C131.496 93.2101 131.663 93.1261 131.818 93.1781Z" fill="#6E767F"/>
<path d="M129.752 98.8189L133.903 100.692C134.058 100.763 134.126 100.944 134.056 101.099L133.843 101.571C133.772 101.726 133.591 101.795 133.436 101.724L129.287 99.8509C129.132 99.7816 129.063 99.5989 129.132 99.4442L129.346 98.9722C129.416 98.8176 129.598 98.7496 129.752 98.8189Z" fill="#6E767F"/>
<path d="M127.248 104.178L131.029 106.257C131.234 106.37 131.31 106.63 131.197 106.836L131.066 107.074C130.953 107.28 130.693 107.356 130.486 107.242L126.706 105.164C126.5 105.05 126.424 104.79 126.537 104.584L126.668 104.346C126.782 104.14 127.041 104.065 127.248 104.178Z" fill="#6E767F"/>
<path d="M120.724 106.121L128.266 111.519C128.328 111.565 128.343 111.651 128.298 111.714L127.044 113.465C126.999 113.527 126.912 113.542 126.85 113.498L119.308 108.098C119.246 108.054 119.231 107.966 119.276 107.903L120.53 106.153C120.575 106.09 120.662 106.075 120.724 106.121Z" fill="#1D1D1B"/>
<path d="M69.6154 12.8288L70.1501 17.3834C70.1701 17.5621 70.3301 17.6848 70.5087 17.6661L70.9607 17.6128C71.1394 17.5941 71.2621 17.4301 71.2434 17.2541L70.7087 12.7008C70.6887 12.5221 70.5287 12.3981 70.3501 12.4168L69.8981 12.4701C69.7194 12.4901 69.5954 12.6528 69.6154 12.8288Z" fill="#1D1D1B" stroke="#8E8E8E" stroke-width="0.797333"/>
<path d="M63.0921 14.064L64.1201 18.484C64.1575 18.6494 64.3255 18.7494 64.4895 18.7134L65.0255 18.588C65.1908 18.5507 65.2935 18.3867 65.2548 18.2201L64.2268 13.8001C64.1895 13.6334 64.0215 13.5347 63.8575 13.5707L63.3215 13.696C63.1561 13.7334 63.0535 13.8974 63.0921 14.064Z" fill="#1D1D1B" stroke="#8E8E8E" stroke-width="0.797333"/>
<path d="M56.7754 15.9292L58.2821 20.1585C58.3528 20.3532 58.5634 20.4559 58.7608 20.3865L59.1288 20.2545C59.3221 20.1852 59.4248 19.9705 59.3554 19.7759L57.8501 15.5465C57.7781 15.3532 57.5674 15.2492 57.3714 15.3199L57.0021 15.4505C56.8101 15.5199 56.7061 15.7359 56.7754 15.9292Z" fill="#1D1D1B" stroke="#8E8E8E" stroke-width="0.797333"/>
<path d="M50.7029 18.3817L52.5909 22.5257C52.6695 22.7017 52.8775 22.7777 53.0509 22.6977L53.5082 22.4884C53.6829 22.411 53.7589 22.203 53.6802 22.0297L51.7909 17.8857C51.7122 17.7097 51.5055 17.6337 51.3322 17.7137L50.8749 17.9217C50.7002 18.0004 50.6242 18.2084 50.7029 18.3817Z" fill="#1D1D1B" stroke="#8E8E8E" stroke-width="0.797333"/>
<path d="M44.8928 21.4659L47.1381 25.4179C47.2394 25.5966 47.4701 25.6606 47.6488 25.5593L48.0168 25.3499C48.1954 25.2499 48.2594 25.0193 48.1568 24.8393L45.9114 20.8873C45.8114 20.7086 45.5794 20.6446 45.4008 20.7459L45.0341 20.9553C44.8541 21.0553 44.7901 21.2859 44.8928 21.4659Z" fill="#1D1D1B" stroke="#8E8E8E" stroke-width="0.797333"/>
<path d="M39.4036 25.3348L42.1236 28.8668C42.2396 29.0174 42.4596 29.0454 42.6102 28.9294L42.9636 28.6574C43.1169 28.5388 43.1449 28.3241 43.0276 28.1708L40.3076 24.6388C40.1902 24.4881 39.9716 24.4601 39.8209 24.5761L39.4662 24.8481C39.3129 24.9668 39.2849 25.1814 39.4036 25.3348Z" fill="#1D1D1B" stroke="#8E8E8E" stroke-width="0.797333"/>
<path d="M33.6244 29.9121L39.8004 36.3748C39.8511 36.4255 39.9351 36.4295 39.9871 36.3801L41.4977 34.9361C41.5497 34.8868 41.5497 34.8028 41.5017 34.7495L35.3257 28.2868C35.2737 28.2361 35.1911 28.2321 35.1391 28.2828L33.6284 29.7255C33.5751 29.7748 33.5751 29.8588 33.6244 29.9121Z" fill="#1D1D1B" stroke="#8E8E8E" stroke-width="0.797333"/>
<path d="M29.8558 33.6468L29.5158 34.0495C29.4038 34.1815 29.4198 34.3801 29.5532 34.4921L33.0132 37.4161C33.1478 37.5308 33.3425 37.5108 33.4572 37.3788L33.7972 36.9775C33.9092 36.8441 33.8932 36.6455 33.7598 36.5335L30.2998 33.6095C30.1652 33.4948 29.9705 33.5148 29.8558 33.6468Z" fill="#1D1D1B" stroke="#8E8E8E" stroke-width="0.797333"/>
<path d="M25.7669 38.8279L25.4043 39.3533C25.3176 39.4773 25.3496 39.6479 25.4749 39.7359L29.2629 42.3493C29.3883 42.4346 29.5603 42.4039 29.6456 42.2786L30.0069 41.7533C30.0949 41.6293 30.0629 41.4586 29.9376 41.3706L26.1496 38.7573C26.0229 38.6706 25.8523 38.7026 25.7669 38.8279Z" fill="#1D1D1B" stroke="#8E8E8E" stroke-width="0.797333"/>
<path d="M22.0199 44.5443L21.8945 44.7749C21.7812 44.9829 21.8559 45.2456 22.0679 45.3589L25.8932 47.4376C26.1025 47.5509 26.3665 47.4709 26.4772 47.2643L26.6039 47.0323C26.7172 46.8256 26.6412 46.5616 26.4305 46.4496L22.6039 44.3709C22.3945 44.2576 22.1319 44.3376 22.0199 44.5443Z" fill="#1D1D1B" stroke="#8E8E8E" stroke-width="0.797333"/>
<path d="M19.0991 50.3552L18.9805 50.6166C18.8898 50.8206 18.9805 51.0632 19.1845 51.1552L23.1018 52.9232C23.3071 53.0166 23.5471 52.9259 23.6405 52.7206L23.7578 52.4592C23.8498 52.2552 23.7578 52.0126 23.5551 51.9206L19.6378 50.1526C19.4311 50.0579 19.1925 50.1499 19.0991 50.3552Z" fill="#1D1D1B" stroke="#8E8E8E" stroke-width="0.797333"/>
<path d="M16.8429 56.433L16.7189 56.8117C16.6576 57.001 16.7603 57.2077 16.9496 57.2704L21.1083 58.637C21.2976 58.6997 21.5056 58.5957 21.5669 58.4064L21.6909 58.0277C21.7523 57.8384 21.6496 57.6304 21.4603 57.569L17.3016 56.201C17.1109 56.1397 16.9043 56.2437 16.8429 56.433Z" fill="#1D1D1B" stroke="#8E8E8E" stroke-width="0.797333"/>
<path d="M15.0325 62.7768L14.9498 63.1914C14.9138 63.3728 15.0325 63.5488 15.2125 63.5848L19.6071 64.4634C19.7898 64.5021 19.9658 64.3821 20.0018 64.2008L20.0845 63.7861C20.1205 63.6048 20.0005 63.4288 19.8218 63.3928L15.4271 62.5141C15.2445 62.4754 15.0685 62.5954 15.0325 62.7768Z" fill="#1D1D1B" stroke="#8E8E8E" stroke-width="0.797333"/>
<path d="M14.0308 69.2498L13.9948 69.5671C13.9695 69.7845 14.1282 69.9805 14.3428 70.0031L18.7028 70.4925C18.9175 70.5178 19.1122 70.3591 19.1388 70.1431L19.1735 69.8271C19.2002 69.6085 19.0415 69.4138 18.8255 69.3898L14.4668 68.9018C14.2522 68.8751 14.0562 69.0351 14.0308 69.2498Z" fill="#1D1D1B" stroke="#8E8E8E" stroke-width="0.797333"/>
<path d="M13.6465 74.8288L13.6532 76.9261C13.6545 77.0168 13.7292 77.0928 13.8225 77.0928L23.0878 77.0608C23.1798 77.0608 23.2558 76.9848 23.2558 76.8928L23.2478 74.7954C23.2478 74.7048 23.1718 74.6288 23.0798 74.6288L13.8132 74.6608C13.7225 74.6608 13.6465 74.7368 13.6465 74.8288Z" fill="#1D1D1B" stroke="#8E8E8E" stroke-width="0.797333"/>
<path d="M13.9906 82.376L14.0293 82.7093C14.052 82.9106 14.24 83.0586 14.4413 83.0333L18.9 82.5093C19.104 82.484 19.248 82.3013 19.2253 82.0986L19.1866 81.7653C19.164 81.564 18.976 81.416 18.7746 81.4413L14.316 81.964C14.112 81.9893 13.968 82.1733 13.9906 82.376Z" fill="#1D1D1B" stroke="#8E8E8E" stroke-width="0.797333"/>
<path d="M15.0171 88.7064L15.1265 89.1798C15.1691 89.3624 15.3518 89.4771 15.5331 89.4344L19.9158 88.4224C20.0971 88.3811 20.2131 88.1984 20.1691 88.0158L20.0598 87.5424C20.0171 87.3598 19.8345 87.2451 19.6531 87.2878L15.2705 88.2998C15.0891 88.3411 14.9731 88.5251 15.0171 88.7064Z" fill="#1D1D1B" stroke="#8E8E8E" stroke-width="0.797333"/>
<path d="M16.5948 95.0118L16.7615 95.5118C16.8122 95.6665 16.9788 95.7505 17.1335 95.6985L21.5228 94.2385C21.6762 94.1878 21.7602 94.0198 21.7095 93.8651L21.5442 93.3651C21.4935 93.2105 21.3255 93.1265 21.1708 93.1785L16.7815 94.6385C16.6282 94.6891 16.5442 94.8571 16.5948 95.0118Z" fill="#1D1D1B" stroke="#8E8E8E" stroke-width="0.797333"/>
<path d="M18.9322 101.099L19.1455 101.571C19.2162 101.727 19.3962 101.795 19.5522 101.724L23.7015 99.8507C23.8575 99.7814 23.9255 99.5974 23.8549 99.444L23.6415 98.972C23.5709 98.816 23.3909 98.748 23.2362 98.8187L19.0855 100.692C18.9295 100.763 18.8615 100.945 18.9322 101.099Z" fill="#1D1D1B" stroke="#8E8E8E" stroke-width="0.797333"/>
<path d="M21.7918 106.837L21.9224 107.075C22.0358 107.283 22.2958 107.359 22.5024 107.243L26.2824 105.165C26.4891 105.049 26.5651 104.791 26.4504 104.585L26.3198 104.348C26.2064 104.14 25.9478 104.064 25.7411 104.18L21.9598 106.257C21.7531 106.373 21.6771 106.632 21.7918 106.837Z" fill="#1D1D1B" stroke="#8E8E8E" stroke-width="0.797333"/>
<path d="M24.6891 111.715L25.9424 113.465C25.9864 113.529 26.0731 113.541 26.1371 113.497L33.6784 108.099C33.7411 108.055 33.7571 107.967 33.7104 107.904L32.4571 106.153C32.4131 106.089 32.3264 106.077 32.2624 106.121L24.7211 111.52C24.6584 111.564 24.6424 111.652 24.6891 111.715Z" fill="#1D1D1B" stroke="#8E8E8E" stroke-width="0.797333"/>
<path d="M70.152 17.3832C70.172 17.5619 70.3307 17.6859 70.5107 17.6659L70.9613 17.6139C71.1413 17.5939 71.264 17.4299 71.2453 17.2552L70.7093 12.7005C70.6907 12.5219 70.5307 12.3979 70.352 12.4179L69.9 12.4712C69.7213 12.4899 69.5973 12.6539 69.6173 12.8285L70.152 17.3832Z" fill="#1D1D1B"/>
<path d="M64.1206 18.4836C64.1579 18.6502 64.3246 18.7502 64.4886 18.7129L65.0246 18.5889C65.1899 18.5502 65.2939 18.3862 65.2552 18.2196L64.2259 13.7996C64.1899 13.6342 64.0219 13.5342 63.8579 13.5702L63.3219 13.6956C63.1566 13.7329 63.0526 13.8969 63.0926 14.0636L64.1206 18.4836Z" fill="#1D1D1B"/>
<path d="M58.2821 20.1587C58.3528 20.352 58.5648 20.456 58.7608 20.3867L59.1288 20.2547C59.3221 20.1853 59.4261 19.9693 59.3568 19.776L57.8501 15.5467C57.7794 15.352 57.5674 15.2493 57.3714 15.3187L57.0034 15.4507C56.8101 15.52 56.7061 15.7347 56.7754 15.9293L58.2821 20.1587Z" fill="#1D1D1B"/>
<path d="M52.5928 22.5247C52.6715 22.7007 52.8782 22.7767 53.0528 22.6967L53.5088 22.4887C53.6835 22.4101 53.7595 22.2021 53.6808 22.0287L51.7928 17.8847C51.7142 17.7087 51.5075 17.6327 51.3328 17.7127L50.8768 17.9221C50.7022 17.9994 50.6262 18.2074 50.7048 18.3807L52.5928 22.5247Z" fill="#1D1D1B"/>
<path d="M47.1381 25.4179C47.2394 25.5966 47.4701 25.6606 47.6488 25.5593L48.0168 25.3499C48.1954 25.2499 48.2594 25.0179 48.1568 24.8393L45.9128 20.8859C45.8114 20.7086 45.5794 20.6446 45.4008 20.7459L45.0341 20.9539C44.8541 21.0553 44.7901 21.2859 44.8928 21.4659L47.1381 25.4179Z" fill="#1D1D1B"/>
<path d="M42.1236 28.8668C42.2396 29.0174 42.4596 29.0454 42.6102 28.9294L42.9636 28.6574C43.1169 28.5388 43.1449 28.3241 43.0276 28.1708L40.3076 24.6388C40.1902 24.4881 39.9716 24.4601 39.8209 24.5761L39.4662 24.8481C39.3129 24.9668 39.2849 25.1814 39.4036 25.3348L42.1236 28.8668Z" fill="#1D1D1B"/>
<path d="M39.8004 36.375C39.8511 36.4256 39.9351 36.4296 39.9871 36.379L41.4964 34.935C41.5497 34.887 41.5497 34.803 41.5017 34.7496L35.3244 28.287C35.2737 28.2363 35.1897 28.2323 35.1391 28.2816L33.6284 29.7256C33.5751 29.775 33.5751 29.859 33.6244 29.9123L39.8004 36.375Z" fill="#1D1D1B"/>
<path d="M29.5158 34.0491C29.4038 34.1811 29.4198 34.3811 29.5532 34.4931L33.0132 37.4171C33.1478 37.5305 33.3425 37.5105 33.4572 37.3798L33.7972 36.9771C33.9092 36.8451 33.8932 36.6451 33.7598 36.5331L30.2998 33.6105C30.1652 33.4958 29.9692 33.5158 29.8558 33.6465L29.5158 34.0491Z" fill="#1D1D1B"/>
<path d="M25.4043 39.3527C25.3176 39.4767 25.3496 39.6473 25.4749 39.7353L29.2616 42.3487C29.3883 42.4353 29.5603 42.4033 29.6443 42.278L30.0069 41.7527C30.0936 41.63 30.0616 41.458 29.9363 41.37L26.1496 38.7567C26.0229 38.6713 25.8509 38.702 25.7669 38.8273L25.4043 39.3527Z" fill="#1D1D1B"/>
<path d="M21.8942 44.7754C21.7809 44.9834 21.8569 45.2461 22.0676 45.3594L25.8942 47.4368C26.1022 47.5514 26.3662 47.4714 26.4782 47.2634L26.6036 47.0328C26.7169 46.8248 26.6409 46.5621 26.4302 46.4488L22.6036 44.3714C22.3942 44.2568 22.1316 44.3368 22.0196 44.5448L21.8942 44.7754Z" fill="#1D1D1B"/>
<path d="M18.9811 50.6168C18.8891 50.8194 18.9811 51.0634 19.1837 51.1554L23.1024 52.9234C23.3077 53.0168 23.5464 52.9248 23.6397 52.7208L23.7584 52.4581C23.8491 52.2554 23.7584 52.0128 23.5544 51.9208L19.6371 50.1514C19.4317 50.0581 19.1931 50.1501 19.0997 50.3554L18.9811 50.6168Z" fill="#1D1D1B"/>
<path d="M16.7188 56.8117C16.6575 57.001 16.7615 57.2077 16.9508 57.2704L21.1095 58.637C21.2988 58.6997 21.5055 58.5957 21.5668 58.4064L21.6921 58.0264C21.7535 57.8384 21.6495 57.6304 21.4601 57.569L17.3015 56.201C17.1121 56.1397 16.9041 56.2424 16.8428 56.433L16.7188 56.8117Z" fill="#1D1D1B"/>
<path d="M14.9498 63.1905C14.9138 63.3718 15.0325 63.5478 15.2125 63.5851L19.6071 64.4625C19.7898 64.5011 19.9658 64.3811 20.0018 64.1998L20.0845 63.7851C20.1205 63.6038 20.0018 63.4278 19.8218 63.3918L15.4271 62.5131C15.2445 62.4758 15.0685 62.5945 15.0325 62.7758L14.9498 63.1905Z" fill="#1D1D1B"/>
<path d="M13.9951 69.5669C13.9684 69.7842 14.1284 69.9802 14.3431 70.0029L18.7018 70.4922C18.9178 70.5189 19.1124 70.3589 19.1391 70.1442L19.1738 69.8269C19.2004 69.6095 19.0404 69.4135 18.8258 69.3909L14.4671 68.9015C14.2524 68.8749 14.0564 69.0349 14.0311 69.2495L13.9951 69.5669Z" fill="#1D1D1B"/>
<path d="M13.6532 76.9261C13.6532 77.0168 13.7292 77.0928 13.8212 77.0928L23.0878 77.0608C23.1798 77.0608 23.2545 76.9848 23.2545 76.8928L23.2478 74.7954C23.2465 74.7048 23.1718 74.6288 23.0798 74.6288L13.8132 74.6608C13.7212 74.6608 13.6452 74.7368 13.6465 74.8288L13.6532 76.9261Z" fill="#1D1D1B"/>
<path d="M14.0312 82.7082C14.0539 82.9109 14.2406 83.0576 14.4432 83.0336L18.9019 82.5096C19.1059 82.4842 19.2486 82.3002 19.2272 82.0976L19.1872 81.7656C19.1659 81.5629 18.9779 81.4149 18.7766 81.4402L14.3166 81.9642C14.1139 81.9896 13.9699 82.1736 13.9926 82.3749L14.0312 82.7082Z" fill="#1D1D1B"/>
<path d="M15.1265 89.1807C15.1691 89.362 15.3518 89.478 15.5331 89.434L19.9158 88.4234C20.0971 88.382 20.2131 88.198 20.1691 88.0167L20.0598 87.542C20.0171 87.3607 19.8345 87.2447 19.6531 87.2887L15.2705 88.3007C15.0891 88.342 14.9731 88.5247 15.0171 88.7074L15.1265 89.1807Z" fill="#1D1D1B"/>
<path d="M16.7609 95.5108C16.8115 95.6655 16.9795 95.7495 17.1342 95.6975L21.5235 94.2375C21.6769 94.1868 21.7595 94.0188 21.7102 93.8642L21.5435 93.3655C21.4929 93.2095 21.3249 93.1255 21.1702 93.1788L16.7822 94.6388C16.6289 94.6895 16.5449 94.8562 16.5942 95.0108L16.7609 95.5108Z" fill="#1D1D1B"/>
<path d="M19.1455 101.572C19.2162 101.728 19.3962 101.796 19.5522 101.725L23.7015 99.8517C23.8575 99.7824 23.9255 99.5984 23.8549 99.445L23.6415 98.973C23.5709 98.817 23.3909 98.749 23.2362 98.8197L19.0855 100.693C18.9295 100.762 18.8615 100.946 18.9322 101.1L19.1455 101.572Z" fill="#1D1D1B"/>
<path d="M21.9224 107.074C22.0358 107.282 22.2958 107.357 22.5024 107.242L26.2824 105.163C26.4904 105.049 26.5651 104.79 26.4504 104.585L26.3198 104.347C26.2064 104.139 25.9478 104.063 25.7411 104.178L21.9598 106.257C21.7531 106.373 21.6771 106.631 21.7918 106.837L21.9224 107.074Z" fill="#1D1D1B"/>
<path d="M25.9444 113.466C25.9884 113.53 26.075 113.542 26.139 113.498L33.6804 108.1C33.743 108.056 33.759 107.968 33.7124 107.905L32.459 106.154C32.415 106.09 32.3283 106.078 32.2643 106.122L24.723 111.521C24.6604 111.565 24.6444 111.653 24.691 111.716L25.9444 113.466Z" fill="#1D1D1B"/>
<path d="M70.9607 17.6126L70.5087 17.6659C70.3327 17.6859 70.1714 17.5592 70.1514 17.3819L69.6154 12.8286C69.5954 12.6512 69.722 12.4912 69.8994 12.4699L70.35 12.4166C70.5274 12.3966 70.6874 12.5232 70.7087 12.7006L71.2434 17.2539C71.2647 17.4312 71.138 17.5912 70.9607 17.6126Z" fill="#6E767F"/>
<path d="M65.0255 18.5887L64.4895 18.714C64.3241 18.7514 64.1588 18.6487 64.1215 18.4834L63.0921 14.0647C63.0535 13.8994 63.1561 13.734 63.3215 13.6954L63.8575 13.5714C64.0228 13.5327 64.1881 13.6354 64.2268 13.8007L65.2548 18.2207C65.2935 18.3847 65.1908 18.55 65.0255 18.5887Z" fill="#6E767F"/>
<path d="M59.129 20.2557L58.761 20.3864C58.5664 20.4557 58.3517 20.3544 58.2824 20.1597L56.7757 15.9304C56.7064 15.7344 56.8077 15.5197 57.0037 15.4504L57.3717 15.3197C57.5664 15.2504 57.781 15.3517 57.8504 15.5477L59.357 19.777C59.4264 19.9717 59.3237 20.1864 59.129 20.2557Z" fill="#6E767F"/>
<path d="M53.5082 22.4889L53.0509 22.6969C52.8762 22.7769 52.6709 22.6996 52.5909 22.5249L50.7029 18.3823C50.6242 18.2076 50.7002 18.0023 50.8749 17.9223L51.3322 17.7143C51.5069 17.6343 51.7122 17.7116 51.7922 17.8863L53.6802 22.0289C53.7589 22.2036 53.6829 22.4089 53.5082 22.4889Z" fill="#6E767F"/>
<path d="M48.0181 25.3497L47.6501 25.559C47.4701 25.6603 47.2421 25.5977 47.1395 25.4177L44.8941 21.4657C44.7928 21.2857 44.8555 21.0563 45.0355 20.9537L45.4021 20.7457C45.5821 20.643 45.8115 20.7057 45.9141 20.8857L48.1595 24.839C48.2608 25.019 48.1981 25.247 48.0181 25.3497Z" fill="#6E767F"/>
<path d="M42.9626 28.6574L42.6093 28.9294C42.4573 29.0468 42.2386 29.0188 42.1226 28.8668L39.4026 25.3348C39.2853 25.1828 39.3133 24.9654 39.4653 24.8481L39.8199 24.5761C39.9706 24.4588 40.1893 24.4868 40.3053 24.6388L43.0253 28.1708C43.1426 28.3228 43.1146 28.5401 42.9626 28.6574Z" fill="#6E767F"/>
<path d="M41.4972 34.936L39.9866 36.38C39.9346 36.4293 39.8506 36.428 39.8013 36.376L33.6239 29.912C33.5746 29.86 33.5759 29.776 33.6279 29.7267L35.1386 28.2827C35.1919 28.232 35.2746 28.2347 35.3253 28.2867L41.5013 34.7493C41.5519 34.8027 41.5492 34.8853 41.4972 34.936Z" fill="#1D1D1B"/>
<path d="M33.0127 37.4158L29.5527 34.4918C29.4207 34.3798 29.4034 34.1811 29.5154 34.0478L29.8554 33.6465C29.9674 33.5131 30.1661 33.4971 30.2994 33.6091L33.7594 36.5331C33.8914 36.6451 33.9087 36.8438 33.7967 36.9771L33.4567 37.3785C33.3447 37.5118 33.1461 37.5278 33.0127 37.4158Z" fill="#6E767F"/>
<path d="M29.262 42.3487L25.474 39.7353C25.3487 39.65 25.318 39.478 25.4047 39.3527L25.766 38.8273C25.8527 38.7033 26.0247 38.6713 26.1487 38.758L29.9367 41.37C30.062 41.4567 30.0927 41.6287 30.0074 41.7527L29.6447 42.278C29.558 42.4033 29.3874 42.4353 29.262 42.3487Z" fill="#6E767F"/>
<path d="M25.894 47.4371L22.0673 45.3597C21.858 45.2464 21.7806 44.9851 21.894 44.7757L22.0206 44.5437C22.134 44.3357 22.3953 44.2584 22.6033 44.3717L26.43 46.4491C26.6393 46.5624 26.7166 46.8237 26.6033 47.0331L26.478 47.2637C26.3646 47.4731 26.1033 47.5504 25.894 47.4371Z" fill="#6E767F"/>
<path d="M23.1026 52.924L19.1852 51.1547C18.9799 51.0627 18.8892 50.8214 18.9812 50.6174L19.0999 50.356C19.1919 50.1507 19.4332 50.06 19.6372 50.152L23.5559 51.9214C23.7599 52.0134 23.8506 52.2547 23.7586 52.4587L23.6412 52.72C23.5479 52.9254 23.3079 53.016 23.1026 52.924Z" fill="#6E767F"/>
<path d="M21.1081 58.637L16.9495 57.269C16.7588 57.2064 16.6548 57.0024 16.7175 56.8117L16.8428 56.433C16.9041 56.2424 17.1095 56.1384 17.3001 56.201L21.4588 57.569C21.6495 57.6317 21.7535 57.837 21.6908 58.0264L21.5668 58.405C21.5041 58.5957 21.2988 58.6997 21.1081 58.637Z" fill="#6E767F"/>
<path d="M19.6072 64.4632L15.2125 63.5846C15.0312 63.5486 14.9139 63.3726 14.9499 63.1912L15.0325 62.7766C15.0685 62.5952 15.2445 62.4779 15.4259 62.5139L19.8219 63.3912C20.0032 63.4286 20.1205 63.6046 20.0845 63.7859L20.0019 64.2006C19.9645 64.3819 19.7885 64.4992 19.6072 64.4632Z" fill="#6E767F"/>
<path d="M18.7016 70.4917L14.3429 70.0024C14.1256 69.9784 13.9696 69.7837 13.9949 69.5664L14.0296 69.249C14.0549 69.033 14.2496 68.877 14.4669 68.901L18.8256 69.3904C19.0416 69.4144 19.1976 69.6104 19.1736 69.8264L19.1376 70.1437C19.1136 70.3597 18.9176 70.5157 18.7016 70.4917Z" fill="#6E767F"/>
<path d="M23.0878 77.0608L13.8212 77.0928C13.7292 77.0941 13.6532 77.0194 13.6532 76.9261L13.6465 74.8288C13.6452 74.7368 13.7198 74.6608 13.8132 74.6608L23.0798 74.6288C23.1718 74.6288 23.2465 74.7034 23.2478 74.7954L23.2545 76.8928C23.2545 76.9848 23.1798 77.0608 23.0878 77.0608Z" fill="#1D1D1B"/>
<path d="M18.9002 82.5095L14.4415 83.0335C14.2375 83.0575 14.0535 82.9122 14.0295 82.7082L13.9909 82.3762C13.9669 82.1722 14.1122 81.9882 14.3149 81.9642L18.7749 81.4402C18.9775 81.4162 19.1629 81.5615 19.1855 81.7655L19.2255 82.0975C19.2495 82.3015 19.1042 82.4855 18.9002 82.5095Z" fill="#6E767F"/>
<path d="M19.915 88.4229L15.5323 89.4349C15.3496 89.4762 15.1683 89.3629 15.1256 89.1802L15.0163 88.7069C14.975 88.5242 15.0883 88.3429 15.271 88.3002L19.6536 87.2882C19.835 87.2469 20.0176 87.3602 20.059 87.5429L20.1696 88.0162C20.211 88.1989 20.0976 88.3802 19.915 88.4229Z" fill="#6E767F"/>
<path d="M21.5235 94.2385L17.1341 95.6985C16.9795 95.7505 16.8128 95.6665 16.7608 95.5118L16.5955 95.0118C16.5435 94.8571 16.6275 94.6905 16.7821 94.6385L21.1715 93.1798C21.3261 93.1278 21.4928 93.2118 21.5448 93.3665L21.7101 93.8651C21.7621 94.0198 21.6781 94.1865 21.5235 94.2385Z" fill="#6E767F"/>
<path d="M23.7013 99.8509L19.5507 101.724C19.396 101.795 19.2147 101.726 19.1453 101.571L18.932 101.099C18.8613 100.944 18.9307 100.763 19.0853 100.692L23.236 98.8189C23.3893 98.7496 23.572 98.8176 23.6413 98.9722L23.8547 99.4442C23.924 99.5989 23.856 99.7816 23.7013 99.8509Z" fill="#6E767F"/>
<path d="M26.2818 105.164L22.5005 107.242C22.2952 107.356 22.0352 107.28 21.9218 107.074L21.7912 106.836C21.6778 106.629 21.7525 106.37 21.9592 106.257L25.7405 104.178C25.9472 104.065 26.2058 104.14 26.3192 104.346L26.4498 104.584C26.5632 104.79 26.4885 105.05 26.2818 105.164Z" fill="#6E767F"/>
<path d="M33.6798 108.099L26.1384 113.498C26.0758 113.543 25.9891 113.529 25.9438 113.466L24.6904 111.715C24.6451 111.653 24.6598 111.566 24.7224 111.521L32.2638 106.122C32.3264 106.077 32.4131 106.091 32.4584 106.154L33.7118 107.905C33.7571 107.967 33.7424 108.054 33.6798 108.099Z" fill="#1D1D1B"/>
<path d="M55.416 148.352V176.996H98.48V172.811H106.292V154.785H98.48V148.352" fill="#646363"/>
<path d="M55.416 148.352V176.996H98.48V172.811H106.292V154.785H98.48V148.352" stroke="#1D1D1B" stroke-width="0.329333" stroke-miterlimit="10"/>
<path d="M71.0098 77.7148C71.0098 80.6788 73.4125 83.0801 76.3765 83.0801C79.3405 83.0801 81.7431 80.6788 81.7431 77.7148C81.7431 74.7508 79.3405 72.3481 76.3765 72.3481C73.4125 72.3481 71.0098 74.7508 71.0098 77.7148Z" fill="url(#paint0_radial_1012_5696)"/>
<defs>
<radialGradient id="paint0_radial_1012_5696" cx="0" cy="0" r="1" gradientUnits="userSpaceOnUse" gradientTransform="translate(76.3761 77.7145) scale(5.36608 5.3661)">
<stop stop-color="#757574"/>
<stop offset="0.99359" stop-color="#1D1D1B"/>
<stop offset="1" stop-color="#1D1D1B"/>
</radialGradient>
</defs>
</svg>
