<svg width="268" height="166" viewBox="0 0 268 166" fill="none" xmlns="http://www.w3.org/2000/svg">
<path d="M163.533 164.026H267.007V0.49438H163.533V164.026Z" fill="#1D1D1B" stroke="#1D1D1B" stroke-width="0.988" stroke-miterlimit="10"/>
<path d="M267.029 165.028H161.943V1.25497H267.029V165.028Z" fill="#1D1D1B" stroke="#1D1D1B" stroke-width="0.988" stroke-miterlimit="10"/>
<path d="M44.1543 95.0699H76.3156V125.323H267.006V22.8432H76.3156V53.0966H44.1543V95.0699Z" fill="#888888"/>
<path d="M44.1543 95.0699H76.3156V125.323H267.006V22.8432H76.3156V53.0966H44.1543V95.0699Z" stroke="#1D1D1B" stroke-width="0.988" stroke-miterlimit="10" stroke-linecap="round" stroke-linejoin="round"/>
<path d="M44.3145 88.1641L109.634 22.8441Z" fill="#888888"/>
<path d="M44.3145 88.1641L109.634 22.8441" stroke="#1D1D1B" stroke-width="0.329333" stroke-miterlimit="10"/>
<path d="M77.6484 47.1436L101.804 22.9876Z" fill="#888888"/>
<path d="M77.6484 47.1436L101.804 22.9876" stroke="#1D1D1B" stroke-width="0.329333" stroke-miterlimit="10"/>
<path d="M44.3145 80.4756L70.7331 54.0569Z" fill="#888888"/>
<path d="M44.3145 80.4756L70.7331 54.0569" stroke="#1D1D1B" stroke-width="0.329333" stroke-miterlimit="10"/>
<path d="M76.7441 40.3584L94.2135 22.8891Z" fill="#888888"/>
<path d="M76.7441 40.3584L94.2135 22.8891" stroke="#1D1D1B" stroke-width="0.329333" stroke-miterlimit="10"/>
<path d="M44.3145 72.7881L63.5505 53.5521Z" fill="#888888"/>
<path d="M44.3145 72.7881L63.5505 53.5521" stroke="#1D1D1B" stroke-width="0.329333" stroke-miterlimit="10"/>
<path d="M76.9746 32.4385L86.4266 22.9865Z" fill="#888888"/>
<path d="M76.9746 32.4385L86.4266 22.9865" stroke="#1D1D1B" stroke-width="0.329333" stroke-miterlimit="10"/>
<path d="M44.3145 65.0986L55.8611 53.552Z" fill="#888888"/>
<path d="M44.3145 65.0986L55.8611 53.552" stroke="#1D1D1B" stroke-width="0.329333" stroke-miterlimit="10"/>
<path d="M76.7441 24.9814L78.5521 23.1734Z" fill="#888888"/>
<path d="M76.7441 24.9814L78.5521 23.1734" stroke="#1D1D1B" stroke-width="0.329333" stroke-miterlimit="10"/>
<path d="M44.3145 57.4111L48.1731 53.5525Z" fill="#888888"/>
<path d="M44.3145 57.4111L48.1731 53.5525" stroke="#1D1D1B" stroke-width="0.329333" stroke-miterlimit="10"/>
<path d="M45.7344 94.6064L117.497 22.8438Z" fill="#888888"/>
<path d="M45.7344 94.6064L117.497 22.8438" stroke="#1D1D1B" stroke-width="0.329333" stroke-miterlimit="10"/>
<path d="M53.6387 94.5625L125.357 22.8438Z" fill="#888888"/>
<path d="M53.6387 94.5625L125.357 22.8438" stroke="#1D1D1B" stroke-width="0.329333" stroke-miterlimit="10"/>
<path d="M61.3574 94.7061L133.219 22.8447Z" fill="#888888"/>
<path d="M61.3574 94.7061L133.219 22.8447" stroke="#1D1D1B" stroke-width="0.329333" stroke-miterlimit="10"/>
<path d="M69.1094 94.8154L141.08 22.8448Z" fill="#888888"/>
<path d="M69.1094 94.8154L141.08 22.8448" stroke="#1D1D1B" stroke-width="0.329333" stroke-miterlimit="10"/>
<path d="M76.7441 95.042L148.943 22.8433Z" fill="#888888"/>
<path d="M76.7441 95.042L148.943 22.8433" stroke="#1D1D1B" stroke-width="0.329333" stroke-miterlimit="10"/>
<path d="M76.7441 102.903L156.804 22.8433Z" fill="#888888"/>
<path d="M76.7441 102.903L156.804 22.8433" stroke="#1D1D1B" stroke-width="0.329333" stroke-miterlimit="10"/>
<path d="M76.8145 110.696L164.666 22.8443Z" fill="#888888"/>
<path d="M76.8145 110.696L164.666 22.8443" stroke="#1D1D1B" stroke-width="0.329333" stroke-miterlimit="10"/>
<path d="M76.4512 118.919L172.526 22.8443Z" fill="#888888"/>
<path d="M76.4512 118.919L172.526 22.8443" stroke="#1D1D1B" stroke-width="0.329333" stroke-miterlimit="10"/>
<path d="M78.0469 125.185L180.388 22.8432Z" fill="#888888"/>
<path d="M78.0469 125.185L180.388 22.8432" stroke="#1D1D1B" stroke-width="0.329333" stroke-miterlimit="10"/>
<path d="M85.9082 125.185L188.25 22.8432Z" fill="#888888"/>
<path d="M85.9082 125.185L188.25 22.8432" stroke="#1D1D1B" stroke-width="0.329333" stroke-miterlimit="10"/>
<path d="M93.7695 125.185L196.111 22.8432Z" fill="#888888"/>
<path d="M93.7695 125.185L196.111 22.8432" stroke="#1D1D1B" stroke-width="0.329333" stroke-miterlimit="10"/>
<path d="M101.631 125.185L203.972 22.8432Z" fill="#888888"/>
<path d="M101.631 125.185L203.972 22.8432" stroke="#1D1D1B" stroke-width="0.329333" stroke-miterlimit="10"/>
<path d="M109.492 125.185L211.834 22.8432Z" fill="#888888"/>
<path d="M109.492 125.185L211.834 22.8432" stroke="#1D1D1B" stroke-width="0.329333" stroke-miterlimit="10"/>
<path d="M117.354 125.185L219.695 22.8432Z" fill="#888888"/>
<path d="M117.354 125.185L219.695 22.8432" stroke="#1D1D1B" stroke-width="0.329333" stroke-miterlimit="10"/>
<path d="M125.215 125.185L227.556 22.8432Z" fill="#888888"/>
<path d="M125.215 125.185L227.556 22.8432" stroke="#1D1D1B" stroke-width="0.329333" stroke-miterlimit="10"/>
<path d="M133.076 125.185L235.417 22.8432Z" fill="#888888"/>
<path d="M133.076 125.185L235.417 22.8432" stroke="#1D1D1B" stroke-width="0.329333" stroke-miterlimit="10"/>
<path d="M140.939 125.185L243.281 22.8432Z" fill="#888888"/>
<path d="M140.939 125.185L243.281 22.8432" stroke="#1D1D1B" stroke-width="0.329333" stroke-miterlimit="10"/>
<path d="M148.799 125.185L251.14 22.8432Z" fill="#888888"/>
<path d="M148.799 125.185L251.14 22.8432" stroke="#1D1D1B" stroke-width="0.329333" stroke-miterlimit="10"/>
<path d="M156.662 125.185L259.003 22.8432Z" fill="#888888"/>
<path d="M156.662 125.185L259.003 22.8432" stroke="#1D1D1B" stroke-width="0.329333" stroke-miterlimit="10"/>
<path d="M164.523 125.185L266.865 22.8432Z" fill="#888888"/>
<path d="M164.523 125.185L266.865 22.8432" stroke="#1D1D1B" stroke-width="0.329333" stroke-miterlimit="10"/>
<path d="M172.385 125.185L265.971 31.5979Z" fill="#888888"/>
<path d="M172.385 125.185L265.971 31.5979" stroke="#1D1D1B" stroke-width="0.329333" stroke-miterlimit="10"/>
<path d="M180.246 125.185L266.45 38.9806Z" fill="#888888"/>
<path d="M180.246 125.185L266.45 38.9806" stroke="#1D1D1B" stroke-width="0.329333" stroke-miterlimit="10"/>
<path d="M188.107 125.185L266.874 46.4179Z" fill="#888888"/>
<path d="M188.107 125.185L266.874 46.4179" stroke="#1D1D1B" stroke-width="0.329333" stroke-miterlimit="10"/>
<path d="M195.969 125.185L266.679 54.4739Z" fill="#888888"/>
<path d="M195.969 125.185L266.679 54.4739" stroke="#1D1D1B" stroke-width="0.329333" stroke-miterlimit="10"/>
<path d="M203.83 125.185L266.65 62.3646Z" fill="#888888"/>
<path d="M203.83 125.185L266.65 62.3646" stroke="#1D1D1B" stroke-width="0.329333" stroke-miterlimit="10"/>
<path d="M211.691 125.185L266.855 70.0206Z" fill="#888888"/>
<path d="M211.691 125.185L266.855 70.0206" stroke="#1D1D1B" stroke-width="0.329333" stroke-miterlimit="10"/>
<path d="M219.553 125.185L266.607 78.1299Z" fill="#888888"/>
<path d="M219.553 125.185L266.607 78.1299" stroke="#1D1D1B" stroke-width="0.329333" stroke-miterlimit="10"/>
<path d="M227.414 125.185L266.449 86.1499Z" fill="#888888"/>
<path d="M227.414 125.185L266.449 86.1499" stroke="#1D1D1B" stroke-width="0.329333" stroke-miterlimit="10"/>
<path d="M235.275 125.185L267.029 93.4312Z" fill="#888888"/>
<path d="M235.275 125.185L267.029 93.4312" stroke="#1D1D1B" stroke-width="0.329333" stroke-miterlimit="10"/>
<path d="M243.137 125.185L266.589 101.733Z" fill="#888888"/>
<path d="M243.137 125.185L266.589 101.733" stroke="#1D1D1B" stroke-width="0.329333" stroke-miterlimit="10"/>
<path d="M250.998 125.185L266.495 109.687Z" fill="#888888"/>
<path d="M250.998 125.185L266.495 109.687" stroke="#1D1D1B" stroke-width="0.329333" stroke-miterlimit="10"/>
<path d="M258.859 125.185L266.679 117.365Z" fill="#888888"/>
<path d="M258.859 125.185L266.679 117.365" stroke="#1D1D1B" stroke-width="0.329333" stroke-miterlimit="10"/>
<path d="M87.3086 117.692H144.182V30.4751H87.3086V117.692Z" fill="white" stroke="#1D1D1B" stroke-width="0.988" stroke-miterlimit="10"/>
<path d="M43.2453 67.2822H0" stroke="#1D1D1B" stroke-width="2.45333" stroke-miterlimit="10"/>
<path d="M43.2453 81.2041H0" stroke="#E30613" stroke-width="2.45333" stroke-miterlimit="10"/>
<path d="M88.2168 66.3818H92.4408C92.4408 66.3818 94.8155 66.2232 94.8155 64.0085V39.3085C94.8155 39.3085 94.8155 36.2365 97.8861 36.2365H135.573C135.573 36.2365 138.471 36.2365 138.471 39.1352V55.1845H127.407" stroke="#64AADE" stroke-width="4.088" stroke-miterlimit="10"/>
<path d="M131.554 55.1847C131.554 57.4741 129.698 59.3301 127.409 59.3301C125.12 59.3301 123.264 57.4741 123.264 55.1847C123.264 52.8954 125.12 51.0394 127.409 51.0394C129.698 51.0394 131.554 52.8954 131.554 55.1847Z" fill="#64AADE"/>
<path d="M88.2168 81.7814H92.4408C92.4408 81.7814 94.8155 81.9401 94.8155 84.1548V108.855C94.8155 108.855 94.8155 111.927 97.8861 111.927H135.573C135.573 111.927 138.471 111.927 138.471 109.028V92.9788H127.407" stroke="#64AADE" stroke-width="4.088" stroke-miterlimit="10"/>
<path d="M131.554 92.9787C131.554 90.6894 129.698 88.8334 127.409 88.8334C125.12 88.8334 123.264 90.6894 123.264 92.9787C123.264 95.268 125.12 97.124 127.409 97.124C129.698 97.124 131.554 95.268 131.554 92.9787Z" fill="#64AADE"/>
<path d="M52.694 97.8838H49.6953V50.4251H52.694V97.8838Z" fill="#4B4B4A"/>
<path d="M60.1432 97.8838H57.1445V50.4251H60.1432V97.8838Z" fill="#4B4B4A"/>
<path d="M67.5924 97.8838H64.5938V50.4251H67.5924V97.8838Z" fill="#4B4B4A"/>
<path d="M75.0436 97.8838H72.0449V50.4251H75.0436V97.8838Z" fill="#4B4B4A"/>
<path d="M165.168 52.8243H200.236V38.2763H253.839V109.89H200.236V95.3883H165.168V52.8243Z" fill="white"/>
<path d="M215.359 109.891H253.838V38.2773H215.359V109.891Z" fill="#AC1916"/>
<path d="M231.728 109.558H216.815V81.7096H122.819V102.158H115.408V45.7149H122.819V66.1643H216.815V38.3162H231.728V109.558Z" fill="url(#paint0_linear_1012_5875)"/>
<path d="M231.726 109.558H216.813V81.7096H122.818V102.158H115.406V45.7149H122.818V66.1643H216.813V38.3163H231.726V109.558Z" stroke="#1D1D1B" stroke-width="0.982667" stroke-miterlimit="10"/>
<path d="M122.818 66.1637V81.709" stroke="#1D1D1B" stroke-width="0.982667" stroke-miterlimit="10"/>
<path d="M216.814 66.1637V81.709" stroke="#1D1D1B" stroke-width="0.982667" stroke-miterlimit="10"/>
<path d="M213.211 65.4878L215.359 54.4598V92.6904" stroke="#1D1D1B" stroke-width="1.196" stroke-miterlimit="10" stroke-linecap="round" stroke-linejoin="round"/>
<path d="M201.125 65.733L203.525 54.4597L209.053 93.165L211.092 82.693" stroke="#1D1D1B" stroke-width="1.196" stroke-miterlimit="10" stroke-linecap="round" stroke-linejoin="round"/>
<path d="M187.348 65.705L189.829 54.4597L195.558 93.165L197.716 83.0304" stroke="#1D1D1B" stroke-width="1.196" stroke-miterlimit="10" stroke-linecap="round" stroke-linejoin="round"/>
<path d="M172.926 65.4544L175.723 54.4597L181.15 93.165L183.518 82.441" stroke="#1D1D1B" stroke-width="1.196" stroke-miterlimit="10" stroke-linecap="round" stroke-linejoin="round"/>
<path d="M166.422 54.4597V93.165L169.239 82.093" stroke="#1D1D1B" stroke-width="1.196" stroke-miterlimit="10" stroke-linecap="round" stroke-linejoin="round"/>
<path d="M231.728 109.558H216.815V81.7096H122.819V102.158H115.408V45.7149H122.819V66.1643H216.815V38.3162H231.728V109.558Z" fill="url(#paint1_linear_1012_5875)"/>
<path d="M231.726 109.558H216.813V81.7096H122.818V102.158H115.406V45.7149H122.818V66.1643H216.813V38.3163H231.726V109.558Z" stroke="#1D1D1B" stroke-width="0.982667" stroke-miterlimit="10"/>
<path d="M122.818 66.1637V81.709" stroke="#1D1D1B" stroke-width="0.982667" stroke-miterlimit="10"/>
<path d="M216.814 66.1637V81.709" stroke="#1D1D1B" stroke-width="0.982667" stroke-miterlimit="10"/>
<path d="M213.211 65.4878L215.359 54.4598V92.6904" stroke="#1D1D1B" stroke-width="1.196" stroke-miterlimit="10" stroke-linecap="round" stroke-linejoin="round"/>
<path d="M201.125 65.733L203.525 54.4597L209.053 93.165L211.092 82.693" stroke="#1D1D1B" stroke-width="1.196" stroke-miterlimit="10" stroke-linecap="round" stroke-linejoin="round"/>
<path d="M187.348 65.705L189.829 54.4597L195.558 93.165L197.716 83.0304" stroke="#1D1D1B" stroke-width="1.196" stroke-miterlimit="10" stroke-linecap="round" stroke-linejoin="round"/>
<path d="M172.926 65.4544L175.723 54.4597L181.15 93.165L183.518 82.441" stroke="#1D1D1B" stroke-width="1.196" stroke-miterlimit="10" stroke-linecap="round" stroke-linejoin="round"/>
<path d="M166.422 54.4597V93.165L169.239 82.093" stroke="#1D1D1B" stroke-width="1.196" stroke-miterlimit="10" stroke-linecap="round" stroke-linejoin="round"/>
<defs>
<linearGradient id="paint0_linear_1012_5875" x1="173.568" y1="37.0745" x2="173.568" y2="109.38" gradientUnits="userSpaceOnUse">
<stop stop-color="#3D3D3C"/>
<stop offset="0.5" stop-color="#888888"/>
<stop offset="0.99359" stop-color="#3D3D3C"/>
<stop offset="1" stop-color="#3D3D3C"/>
</linearGradient>
<linearGradient id="paint1_linear_1012_5875" x1="173.568" y1="37.0745" x2="173.568" y2="109.38" gradientUnits="userSpaceOnUse">
<stop stop-color="#3D3D3C"/>
<stop offset="0.5" stop-color="#888888"/>
<stop offset="0.99359" stop-color="#3D3D3C"/>
<stop offset="1" stop-color="#3D3D3C"/>
</linearGradient>
</defs>
</svg>
