<svg width="179" height="232" viewBox="0 0 179 232" fill="none" xmlns="http://www.w3.org/2000/svg">
<path d="M174.214 44.6055H60.5742V29.3429H174.214V44.6055Z" fill="#414142"/>
<path d="M173.837 201.425H60.5742V186.494H173.837V201.425Z" fill="#414142"/>
<path d="M161.209 43.3997H174.216V202.165H161.209V43.3997Z" fill="#414142"/>
<path d="M60.6381 187.235H16.1208V43.9208H60.5755V29.1568H173.838V103.155H177.927V24.9235H60.6381V0.494114H45.8128V28.2941H0.494141V202.862H45.8128V230.662H60.6381V206.233H177.927V132.013H173.838V201.998H60.5755V187.235" fill="#888888"/>
<path d="M60.6381 187.235H16.1208V43.9208H60.5755V29.1568H173.838V103.155H177.927V24.9235H60.6381V0.494114H45.8128V28.2941H0.494141V202.862H45.8128V230.662H60.6381V206.233H177.927V132.013H173.838V201.998H60.5755V187.235" stroke="#1D1D1B" stroke-width="0.988" stroke-miterlimit="10" stroke-linecap="round" stroke-linejoin="round"/>
<path d="M8.33096 28.3185L0.904297 35.7451" stroke="#1D1D1B" stroke-width="0.329333" stroke-miterlimit="10"/>
<path d="M16.0643 28.5119L0.904297 43.6719" stroke="#1D1D1B" stroke-width="0.329333" stroke-miterlimit="10"/>
<path d="M23.3456 29.1583L0.904297 51.5996" stroke="#1D1D1B" stroke-width="0.329333" stroke-miterlimit="10"/>
<path d="M52.009 0.494943L46.1543 6.34961" stroke="#1D1D1B" stroke-width="0.329333" stroke-miterlimit="10"/>
<path d="M31.6696 28.761L0.904297 59.5264" stroke="#1D1D1B" stroke-width="0.329333" stroke-miterlimit="10"/>
<path d="M59.469 0.960714L46.4316 13.998" stroke="#1D1D1B" stroke-width="0.329333" stroke-miterlimit="10"/>
<path d="M16.287 52.0705L0.904297 67.4531" stroke="#1D1D1B" stroke-width="0.329333" stroke-miterlimit="10"/>
<path d="M39.5966 28.7608L24.7539 43.6035" stroke="#1D1D1B" stroke-width="0.329333" stroke-miterlimit="10"/>
<path d="M60.6383 7.7201L46.1543 22.2041" stroke="#1D1D1B" stroke-width="0.329333" stroke-miterlimit="10"/>
<path d="M16.287 59.9982L0.904297 75.3809" stroke="#1D1D1B" stroke-width="0.329333" stroke-miterlimit="10"/>
<path d="M60.6381 15.6471L32.8848 43.4004" stroke="#1D1D1B" stroke-width="0.329333" stroke-miterlimit="10"/>
<path d="M16.0643 68.1476L0.904297 83.3076" stroke="#1D1D1B" stroke-width="0.329333" stroke-miterlimit="10"/>
<path d="M60.6378 23.5741L40.8125 43.3994" stroke="#1D1D1B" stroke-width="0.329333" stroke-miterlimit="10"/>
<path d="M15.879 76.2607L0.904297 91.2354" stroke="#1D1D1B" stroke-width="0.329333" stroke-miterlimit="10"/>
<path d="M60.1076 32.0311L48.7383 43.4004" stroke="#1D1D1B" stroke-width="0.329333" stroke-miterlimit="10"/>
<path d="M66.5116 25.6281L63.6289 28.5107" stroke="#1D1D1B" stroke-width="0.329333" stroke-miterlimit="10"/>
<path d="M73.4803 25.6281L70.5977 28.5107" stroke="#1D1D1B" stroke-width="0.329333" stroke-miterlimit="10"/>
<path d="M80.451 25.6281L77.5684 28.5107" stroke="#1D1D1B" stroke-width="0.329333" stroke-miterlimit="10"/>
<path d="M87.4217 25.6281L84.5391 28.5107" stroke="#1D1D1B" stroke-width="0.329333" stroke-miterlimit="10"/>
<path d="M94.3905 25.6281L91.5078 28.5107" stroke="#1D1D1B" stroke-width="0.329333" stroke-miterlimit="10"/>
<path d="M101.361 25.6281L98.4785 28.5107" stroke="#1D1D1B" stroke-width="0.329333" stroke-miterlimit="10"/>
<path d="M108.332 25.6281L105.449 28.5107" stroke="#1D1D1B" stroke-width="0.329333" stroke-miterlimit="10"/>
<path d="M115.301 25.6281L112.418 28.5107" stroke="#1D1D1B" stroke-width="0.329333" stroke-miterlimit="10"/>
<path d="M122.271 25.6281L119.389 28.5107" stroke="#1D1D1B" stroke-width="0.329333" stroke-miterlimit="10"/>
<path d="M129.242 25.6281L126.359 28.5107" stroke="#1D1D1B" stroke-width="0.329333" stroke-miterlimit="10"/>
<path d="M136.211 25.6281L133.328 28.5107" stroke="#1D1D1B" stroke-width="0.329333" stroke-miterlimit="10"/>
<path d="M143.181 25.6281L140.299 28.5107" stroke="#1D1D1B" stroke-width="0.329333" stroke-miterlimit="10"/>
<path d="M150.15 25.6281L147.268 28.5107" stroke="#1D1D1B" stroke-width="0.329333" stroke-miterlimit="10"/>
<path d="M157.121 25.6281L154.238 28.5107" stroke="#1D1D1B" stroke-width="0.329333" stroke-miterlimit="10"/>
<path d="M164.092 25.6281L161.209 28.5107" stroke="#1D1D1B" stroke-width="0.329333" stroke-miterlimit="10"/>
<path d="M171.06 25.6281L168.178 28.5107" stroke="#1D1D1B" stroke-width="0.329333" stroke-miterlimit="10"/>
<path d="M178.031 25.6283L174.215 29.4443" stroke="#1D1D1B" stroke-width="0.329333" stroke-miterlimit="10"/>
<path d="M178.031 31.7582L174.215 35.5742" stroke="#1D1D1B" stroke-width="0.329333" stroke-miterlimit="10"/>
<path d="M178.031 37.8881L174.215 41.7041" stroke="#1D1D1B" stroke-width="0.329333" stroke-miterlimit="10"/>
<path d="M178.031 44.018L174.215 47.834" stroke="#1D1D1B" stroke-width="0.329333" stroke-miterlimit="10"/>
<path d="M178.031 50.1488L174.215 53.9648" stroke="#1D1D1B" stroke-width="0.329333" stroke-miterlimit="10"/>
<path d="M178.031 56.2787L174.215 60.0947" stroke="#1D1D1B" stroke-width="0.329333" stroke-miterlimit="10"/>
<path d="M178.031 62.4086L174.215 66.2246" stroke="#1D1D1B" stroke-width="0.329333" stroke-miterlimit="10"/>
<path d="M178.031 68.5385L174.215 72.3545" stroke="#1D1D1B" stroke-width="0.329333" stroke-miterlimit="10"/>
<path d="M178.031 74.6684L174.215 78.4844" stroke="#1D1D1B" stroke-width="0.329333" stroke-miterlimit="10"/>
<path d="M178.031 80.7983L174.215 84.6143" stroke="#1D1D1B" stroke-width="0.329333" stroke-miterlimit="10"/>
<path d="M178.031 86.9281L174.215 90.7441" stroke="#1D1D1B" stroke-width="0.329333" stroke-miterlimit="10"/>
<path d="M178.031 93.058L174.215 96.874" stroke="#1D1D1B" stroke-width="0.329333" stroke-miterlimit="10"/>
<path d="M178.031 99.1879L174.215 103.004" stroke="#1D1D1B" stroke-width="0.329333" stroke-miterlimit="10"/>
<path d="M15.879 84.1874L0.904297 99.1621" stroke="#1D1D1B" stroke-width="0.329333" stroke-miterlimit="10"/>
<path d="M60.638 39.4284L56.666 43.4004" stroke="#1D1D1B" stroke-width="0.329333" stroke-miterlimit="10"/>
<path d="M15.6163 92.3778L0.904297 107.09" stroke="#1D1D1B" stroke-width="0.329333" stroke-miterlimit="10"/>
<path d="M15.6163 100.305L0.904297 115.017" stroke="#1D1D1B" stroke-width="0.329333" stroke-miterlimit="10"/>
<path d="M15.6163 108.232L0.904297 122.944" stroke="#1D1D1B" stroke-width="0.329333" stroke-miterlimit="10"/>
<path d="M15.6163 116.159L0.904297 130.871" stroke="#1D1D1B" stroke-width="0.329333" stroke-miterlimit="10"/>
<path d="M15.6163 124.087L0.904297 138.799" stroke="#1D1D1B" stroke-width="0.329333" stroke-miterlimit="10"/>
<path d="M15.6163 132.014L0.904297 146.726" stroke="#1D1D1B" stroke-width="0.329333" stroke-miterlimit="10"/>
<path d="M15.6163 139.94L0.904297 154.652" stroke="#1D1D1B" stroke-width="0.329333" stroke-miterlimit="10"/>
<path d="M15.6163 147.868L0.904297 162.58" stroke="#1D1D1B" stroke-width="0.329333" stroke-miterlimit="10"/>
<path d="M15.6163 155.795L0.904297 170.507" stroke="#1D1D1B" stroke-width="0.329333" stroke-miterlimit="10"/>
<path d="M15.6163 163.723L0.904297 178.435" stroke="#1D1D1B" stroke-width="0.329333" stroke-miterlimit="10"/>
<path d="M15.6163 171.649L0.904297 186.361" stroke="#1D1D1B" stroke-width="0.329333" stroke-miterlimit="10"/>
<path d="M15.6163 179.577L0.904297 194.289" stroke="#1D1D1B" stroke-width="0.329333" stroke-miterlimit="10"/>
<path d="M15.6163 187.504L0.904297 202.216" stroke="#1D1D1B" stroke-width="0.329333" stroke-miterlimit="10"/>
<path d="M23.3489 187.697L8.76758 202.278" stroke="#1D1D1B" stroke-width="0.329333" stroke-miterlimit="10"/>
<path d="M31.4409 187.533L16.6836 202.29" stroke="#1D1D1B" stroke-width="0.329333" stroke-miterlimit="10"/>
<path d="M39.3177 187.584L24.7363 202.165" stroke="#1D1D1B" stroke-width="0.329333" stroke-miterlimit="10"/>
<path d="M47.318 187.51L32.0273 202.801" stroke="#1D1D1B" stroke-width="0.329333" stroke-miterlimit="10"/>
<path d="M55.052 187.704L40.5 202.256" stroke="#1D1D1B" stroke-width="0.329333" stroke-miterlimit="10"/>
<path d="M60.6381 190.045L46.4395 204.244" stroke="#1D1D1B" stroke-width="0.329333" stroke-miterlimit="10"/>
<path d="M60.6379 197.972L46.3633 212.247" stroke="#1D1D1B" stroke-width="0.329333" stroke-miterlimit="10"/>
<path d="M60.6365 205.9L46.3125 220.224" stroke="#1D1D1B" stroke-width="0.329333" stroke-miterlimit="10"/>
<path d="M64.2 202.338L60.6387 205.899" stroke="#1D1D1B" stroke-width="0.329333" stroke-miterlimit="10"/>
<path d="M72.2293 202.338L68.668 205.899" stroke="#1D1D1B" stroke-width="0.329333" stroke-miterlimit="10"/>
<path d="M80.2606 202.338L76.6992 205.899" stroke="#1D1D1B" stroke-width="0.329333" stroke-miterlimit="10"/>
<path d="M88.2918 202.338L84.7305 205.899" stroke="#1D1D1B" stroke-width="0.329333" stroke-miterlimit="10"/>
<path d="M96.3231 202.338L92.7617 205.899" stroke="#1D1D1B" stroke-width="0.329333" stroke-miterlimit="10"/>
<path d="M104.354 202.338L100.793 205.899" stroke="#1D1D1B" stroke-width="0.329333" stroke-miterlimit="10"/>
<path d="M108.824 205.9L112.386 202.339" stroke="#1D1D1B" stroke-width="0.329333" stroke-miterlimit="10"/>
<path d="M120.417 202.338L116.855 205.899" stroke="#1D1D1B" stroke-width="0.329333" stroke-miterlimit="10"/>
<path d="M128.448 202.338L124.887 205.899" stroke="#1D1D1B" stroke-width="0.329333" stroke-miterlimit="10"/>
<path d="M136.479 202.338L132.918 205.899" stroke="#1D1D1B" stroke-width="0.329333" stroke-miterlimit="10"/>
<path d="M144.511 202.338L140.949 205.899" stroke="#1D1D1B" stroke-width="0.329333" stroke-miterlimit="10"/>
<path d="M152.54 202.338L148.979 205.899" stroke="#1D1D1B" stroke-width="0.329333" stroke-miterlimit="10"/>
<path d="M160.571 202.338L157.01 205.899" stroke="#1D1D1B" stroke-width="0.329333" stroke-miterlimit="10"/>
<path d="M168.602 202.338L165.041 205.899" stroke="#1D1D1B" stroke-width="0.329333" stroke-miterlimit="10"/>
<path d="M177.767 201.206L173.072 205.9" stroke="#1D1D1B" stroke-width="0.329333" stroke-miterlimit="10"/>
<path d="M177.925 193.506L173.996 197.436" stroke="#1D1D1B" stroke-width="0.329333" stroke-miterlimit="10"/>
<path d="M177.925 185.239L173.996 189.168" stroke="#1D1D1B" stroke-width="0.329333" stroke-miterlimit="10"/>
<path d="M177.925 176.972L173.996 180.901" stroke="#1D1D1B" stroke-width="0.329333" stroke-miterlimit="10"/>
<path d="M177.925 168.705L173.996 172.635" stroke="#1D1D1B" stroke-width="0.329333" stroke-miterlimit="10"/>
<path d="M177.925 160.438L173.996 164.367" stroke="#1D1D1B" stroke-width="0.329333" stroke-miterlimit="10"/>
<path d="M177.925 152.171L173.996 156.101" stroke="#1D1D1B" stroke-width="0.329333" stroke-miterlimit="10"/>
<path d="M177.925 143.905L173.996 147.834" stroke="#1D1D1B" stroke-width="0.329333" stroke-miterlimit="10"/>
<path d="M177.925 135.637L173.996 139.566" stroke="#1D1D1B" stroke-width="0.329333" stroke-miterlimit="10"/>
<path d="M60.6379 213.827L45.8379 228.627" stroke="#1D1D1B" stroke-width="0.329333" stroke-miterlimit="10"/>
<path d="M60.6379 221.755L52.2539 230.139" stroke="#1D1D1B" stroke-width="0.329333" stroke-miterlimit="10"/>
<path d="M161.036 186.362H16.332V43.365H161.036V186.362Z" fill="#AC1916"/>
<path d="M30.6549 172.635H16.6816V57.1855H30.6549V172.635Z" fill="white"/>
<path d="M161.208 172.635H147.234V57.1855H161.208V172.635Z" fill="white"/>
<path d="M147.268 78.4844H30.6562V58.775H147.268V78.4844Z" fill="black"/>
<path d="M147.268 170.386H30.6562V150.676H147.268V170.386Z" fill="black"/>
<path d="M147.268 87.8604H30.6562V83.959H147.268V87.8604Z" fill="black"/>
<path d="M147.268 96.0361H30.6562V92.1348H147.268V96.0361Z" fill="black"/>
<path d="M147.268 104.214H30.6562V100.312H147.268V104.214Z" fill="black"/>
<path d="M147.268 112.39H30.6562V108.488H147.268V112.39Z" fill="black"/>
<path d="M147.268 120.565H30.6562V116.664H147.268V120.565Z" fill="black"/>
<path d="M147.268 128.743H30.6562V124.842H147.268V128.743Z" fill="black"/>
<path d="M147.268 136.919H30.6562V133.018H147.268V136.919Z" fill="black"/>
<path d="M147.268 145.097H30.6562V141.195H147.268V145.097Z" fill="black"/>
</svg>
