<svg width="384" height="433" viewBox="0 0 384 433" fill="none" xmlns="http://www.w3.org/2000/svg">
<path d="M0.494141 0.00031926V22.959H351.542V0.00031926" fill="#BDBDBC"/>
<path d="M0.494141 0.00031926V22.959H351.542V0.00031926" stroke="#1D1D1B" stroke-width="0.988" stroke-miterlimit="10"/>
<path d="M287.402 397.749V368.313H317.02V332.518C317.02 332.518 302.484 332.7 302.484 317.982C302.484 303.264 317.201 303.264 317.201 303.264H383.16V174.256H367.533V152.814H352.633V147.364C352.633 147.364 317.384 129.352 317.384 101.654V22.941H77.1729V77.4624C77.1729 77.4624 32.1102 97.2143 32.1102 165.897H21.9355V274.192H31.0209V303.264H56.8222C56.8222 303.264 71.5396 303.264 71.5396 317.982C71.5396 332.7 57.0036 332.518 57.0036 332.518V368.313H86.6209V397.749H287.402Z" fill="#A8A7A7"/>
<path d="M287.402 397.749V368.313H317.02V332.518C317.02 332.518 302.484 332.7 302.484 317.982C302.484 303.264 317.201 303.264 317.201 303.264H383.16V174.256H367.533V152.814H352.633V147.364C352.633 147.364 317.384 129.352 317.384 101.654V22.941H77.1729V77.4624C77.1729 77.4624 32.1102 97.2143 32.1102 165.897H21.9355V274.192H31.0209V303.264H56.8222C56.8222 303.264 71.5396 303.264 71.5396 317.982C71.5396 332.7 57.0036 332.518 57.0036 332.518V368.313H86.6209V397.749H287.402Z" stroke="#1D1D1B" stroke-width="0.988" stroke-miterlimit="10"/>
<path d="M316.827 34.5332L305.252 22.9585Z" fill="#B3B3B3"/>
<path d="M316.827 34.5332L305.252 22.9585" stroke="#1D1D1B" stroke-width="0.329333" stroke-miterlimit="10"/>
<path d="M316.826 58.5186L281.268 22.9599Z" fill="#B3B3B3"/>
<path d="M316.826 58.5186L281.268 22.9599" stroke="#1D1D1B" stroke-width="0.329333" stroke-miterlimit="10"/>
<path d="M316.266 81.9424L257.283 22.9597Z" fill="#B3B3B3"/>
<path d="M316.266 81.9424L257.283 22.9597" stroke="#1D1D1B" stroke-width="0.329333" stroke-miterlimit="10"/>
<path d="M316.827 106.487L233.299 22.9593Z" fill="#B3B3B3"/>
<path d="M316.827 106.487L233.299 22.9593" stroke="#1D1D1B" stroke-width="0.329333" stroke-miterlimit="10"/>
<path d="M382.29 195.936L209.314 22.9596Z" fill="#B3B3B3"/>
<path d="M382.29 195.936L209.314 22.9596" stroke="#1D1D1B" stroke-width="0.329333" stroke-miterlimit="10"/>
<path d="M382.29 219.92L185.33 22.9599Z" fill="#B3B3B3"/>
<path d="M382.29 219.92L185.33 22.9599" stroke="#1D1D1B" stroke-width="0.329333" stroke-miterlimit="10"/>
<path d="M382.289 243.904L161.344 22.959Z" fill="#B3B3B3"/>
<path d="M382.289 243.904L161.344 22.959" stroke="#1D1D1B" stroke-width="0.329333" stroke-miterlimit="10"/>
<path d="M382.289 267.889L137.359 22.9593Z" fill="#B3B3B3"/>
<path d="M382.289 267.889L137.359 22.9593" stroke="#1D1D1B" stroke-width="0.329333" stroke-miterlimit="10"/>
<path d="M382.29 291.874L113.375 22.9593Z" fill="#B3B3B3"/>
<path d="M382.29 291.874L113.375 22.9593" stroke="#1D1D1B" stroke-width="0.329333" stroke-miterlimit="10"/>
<path d="M368.775 302.344L89.3906 22.9598Z" fill="#B3B3B3"/>
<path d="M368.775 302.344L89.3906 22.9598" stroke="#1D1D1B" stroke-width="0.329333" stroke-miterlimit="10"/>
<path d="M344.789 302.344L77.3555 34.9104Z" fill="#B3B3B3"/>
<path d="M344.789 302.344L77.3555 34.9104" stroke="#1D1D1B" stroke-width="0.329333" stroke-miterlimit="10"/>
<path d="M320.806 302.344L77.8379 59.3758Z" fill="#B3B3B3"/>
<path d="M320.806 302.344L77.8379 59.3758" stroke="#1D1D1B" stroke-width="0.329333" stroke-miterlimit="10"/>
<path d="M303.757 309.28L74.748 80.2709Z" fill="#B3B3B3"/>
<path d="M303.757 309.28L74.748 80.2709" stroke="#1D1D1B" stroke-width="0.329333" stroke-miterlimit="10"/>
<path d="M315.778 345.286L61.1797 90.6875Z" fill="#B3B3B3"/>
<path d="M315.778 345.286L61.1797 90.6875" stroke="#1D1D1B" stroke-width="0.329333" stroke-miterlimit="10"/>
<path d="M313.931 367.425L50.3301 103.823Z" fill="#B3B3B3"/>
<path d="M313.931 367.425L50.3301 103.823" stroke="#1D1D1B" stroke-width="0.329333" stroke-miterlimit="10"/>
<path d="M289.947 367.425L41.4199 118.898Z" fill="#B3B3B3"/>
<path d="M289.947 367.425L41.4199 118.898" stroke="#1D1D1B" stroke-width="0.329333" stroke-miterlimit="10"/>
<path d="M287.248 388.71L36.1191 137.581Z" fill="#B3B3B3"/>
<path d="M287.248 388.71L36.1191 137.581" stroke="#1D1D1B" stroke-width="0.329333" stroke-miterlimit="10"/>
<path d="M272.283 397.73L32.9688 158.416Z" fill="#B3B3B3"/>
<path d="M272.283 397.73L32.9688 158.416" stroke="#1D1D1B" stroke-width="0.329333" stroke-miterlimit="10"/>
<path d="M248.3 397.73L23.3203 172.75Z" fill="#B3B3B3"/>
<path d="M248.3 397.73L23.3203 172.75" stroke="#1D1D1B" stroke-width="0.329333" stroke-miterlimit="10"/>
<path d="M224.314 397.73L23.3184 196.736Z" fill="#B3B3B3"/>
<path d="M224.314 397.73L23.3184 196.736" stroke="#1D1D1B" stroke-width="0.329333" stroke-miterlimit="10"/>
<path d="M200.33 397.73L22.5195 219.92Z" fill="#B3B3B3"/>
<path d="M200.33 397.73L22.5195 219.92" stroke="#1D1D1B" stroke-width="0.329333" stroke-miterlimit="10"/>
<path d="M176.345 397.73L22.5195 243.905Z" fill="#B3B3B3"/>
<path d="M176.345 397.73L22.5195 243.905" stroke="#1D1D1B" stroke-width="0.329333" stroke-miterlimit="10"/>
<path d="M56.9742 302.344L22.5195 267.889Z" fill="#B3B3B3"/>
<path d="M56.9742 302.344L22.5195 267.889" stroke="#1D1D1B" stroke-width="0.329333" stroke-miterlimit="10"/>
<path d="M152.361 397.73L71.5059 316.876Z" fill="#B3B3B3"/>
<path d="M152.361 397.73L71.5059 316.876" stroke="#1D1D1B" stroke-width="0.329333" stroke-miterlimit="10"/>
<path d="M33.2428 302.597L31.0215 300.375Z" fill="#B3B3B3"/>
<path d="M33.2428 302.597L31.0215 300.375" stroke="#1D1D1B" stroke-width="0.329333" stroke-miterlimit="10"/>
<path d="M128.377 397.73L62.2383 331.592Z" fill="#B3B3B3"/>
<path d="M128.377 397.73L62.2383 331.592" stroke="#1D1D1B" stroke-width="0.329333" stroke-miterlimit="10"/>
<path d="M74.0849 367.425L58.0195 351.359Z" fill="#B3B3B3"/>
<path d="M74.0849 367.425L58.0195 351.359" stroke="#1D1D1B" stroke-width="0.329333" stroke-miterlimit="10"/>
<path d="M104.392 397.73L87.3398 380.678Z" fill="#B3B3B3"/>
<path d="M104.392 397.73L87.3398 380.678" stroke="#1D1D1B" stroke-width="0.329333" stroke-miterlimit="10"/>
<path d="M0.769531 18.4668L18.6535 0.582798Z" fill="#B3B3B3"/>
<path d="M0.769531 18.4668L18.6535 0.582798" stroke="#1D1D1B" stroke-width="0.329333" stroke-miterlimit="10"/>
<path d="M8.08789 22.959L30.4652 0.581649Z" fill="#B3B3B3"/>
<path d="M8.08789 22.959L30.4652 0.581649" stroke="#1D1D1B" stroke-width="0.329333" stroke-miterlimit="10"/>
<path d="M19.8984 22.959L42.2758 0.581649Z" fill="#B3B3B3"/>
<path d="M19.8984 22.959L42.2758 0.581649" stroke="#1D1D1B" stroke-width="0.329333" stroke-miterlimit="10"/>
<path d="M31.709 22.959L54.0863 0.581649Z" fill="#B3B3B3"/>
<path d="M31.709 22.959L54.0863 0.581649" stroke="#1D1D1B" stroke-width="0.329333" stroke-miterlimit="10"/>
<path d="M43.5195 22.959L65.8969 0.581649Z" fill="#B3B3B3"/>
<path d="M43.5195 22.959L65.8969 0.581649" stroke="#1D1D1B" stroke-width="0.329333" stroke-miterlimit="10"/>
<path d="M55.3301 22.959L77.7074 0.581649Z" fill="#B3B3B3"/>
<path d="M55.3301 22.959L77.7074 0.581649" stroke="#1D1D1B" stroke-width="0.329333" stroke-miterlimit="10"/>
<path d="M67.1406 22.959L89.518 0.581649Z" fill="#B3B3B3"/>
<path d="M67.1406 22.959L89.518 0.581649" stroke="#1D1D1B" stroke-width="0.329333" stroke-miterlimit="10"/>
<path d="M78.9512 22.959L101.329 0.581649Z" fill="#B3B3B3"/>
<path d="M78.9512 22.959L101.329 0.581649" stroke="#1D1D1B" stroke-width="0.329333" stroke-miterlimit="10"/>
<path d="M90.7617 22.959L113.139 0.581649Z" fill="#B3B3B3"/>
<path d="M90.7617 22.959L113.139 0.581649" stroke="#1D1D1B" stroke-width="0.329333" stroke-miterlimit="10"/>
<path d="M102.572 22.959L124.95 0.581649Z" fill="#B3B3B3"/>
<path d="M102.572 22.959L124.95 0.581649" stroke="#1D1D1B" stroke-width="0.329333" stroke-miterlimit="10"/>
<path d="M114.383 22.959L136.76 0.581649Z" fill="#B3B3B3"/>
<path d="M114.383 22.959L136.76 0.581649" stroke="#1D1D1B" stroke-width="0.329333" stroke-miterlimit="10"/>
<path d="M126.193 22.959L148.571 0.581649Z" fill="#B3B3B3"/>
<path d="M126.193 22.959L148.571 0.581649" stroke="#1D1D1B" stroke-width="0.329333" stroke-miterlimit="10"/>
<path d="M138.004 22.959L160.381 0.581649Z" fill="#B3B3B3"/>
<path d="M138.004 22.959L160.381 0.581649" stroke="#1D1D1B" stroke-width="0.329333" stroke-miterlimit="10"/>
<path d="M149.814 22.959L172.192 0.581649Z" fill="#B3B3B3"/>
<path d="M149.814 22.959L172.192 0.581649" stroke="#1D1D1B" stroke-width="0.329333" stroke-miterlimit="10"/>
<path d="M161.625 22.959L184.002 0.581649Z" fill="#B3B3B3"/>
<path d="M161.625 22.959L184.002 0.581649" stroke="#1D1D1B" stroke-width="0.329333" stroke-miterlimit="10"/>
<path d="M173.436 22.959L195.813 0.581649Z" fill="#B3B3B3"/>
<path d="M173.436 22.959L195.813 0.581649" stroke="#1D1D1B" stroke-width="0.329333" stroke-miterlimit="10"/>
<path d="M185.246 22.959L207.623 0.581649Z" fill="#B3B3B3"/>
<path d="M185.246 22.959L207.623 0.581649" stroke="#1D1D1B" stroke-width="0.329333" stroke-miterlimit="10"/>
<path d="M197.059 22.959L219.436 0.581649Z" fill="#B3B3B3"/>
<path d="M197.059 22.959L219.436 0.581649" stroke="#1D1D1B" stroke-width="0.329333" stroke-miterlimit="10"/>
<path d="M208.869 22.959L231.246 0.581649Z" fill="#B3B3B3"/>
<path d="M208.869 22.959L231.246 0.581649" stroke="#1D1D1B" stroke-width="0.329333" stroke-miterlimit="10"/>
<path d="M220.68 22.959L243.057 0.581649Z" fill="#B3B3B3"/>
<path d="M220.68 22.959L243.057 0.581649" stroke="#1D1D1B" stroke-width="0.329333" stroke-miterlimit="10"/>
<path d="M232.49 22.959L254.868 0.581649Z" fill="#B3B3B3"/>
<path d="M232.49 22.959L254.868 0.581649" stroke="#1D1D1B" stroke-width="0.329333" stroke-miterlimit="10"/>
<path d="M244.301 22.959L266.678 0.581649Z" fill="#B3B3B3"/>
<path d="M244.301 22.959L266.678 0.581649" stroke="#1D1D1B" stroke-width="0.329333" stroke-miterlimit="10"/>
<path d="M256.111 22.959L278.489 0.581649Z" fill="#B3B3B3"/>
<path d="M256.111 22.959L278.489 0.581649" stroke="#1D1D1B" stroke-width="0.329333" stroke-miterlimit="10"/>
<path d="M267.922 22.959L290.299 0.581649Z" fill="#B3B3B3"/>
<path d="M267.922 22.959L290.299 0.581649" stroke="#1D1D1B" stroke-width="0.329333" stroke-miterlimit="10"/>
<path d="M279.732 22.959L302.11 0.581649Z" fill="#B3B3B3"/>
<path d="M279.732 22.959L302.11 0.581649" stroke="#1D1D1B" stroke-width="0.329333" stroke-miterlimit="10"/>
<path d="M291.543 22.959L313.92 0.581649Z" fill="#B3B3B3"/>
<path d="M291.543 22.959L313.92 0.581649" stroke="#1D1D1B" stroke-width="0.329333" stroke-miterlimit="10"/>
<path d="M303.354 22.959L325.731 0.581649Z" fill="#B3B3B3"/>
<path d="M303.354 22.959L325.731 0.581649" stroke="#1D1D1B" stroke-width="0.329333" stroke-miterlimit="10"/>
<path d="M315.164 22.959L337.541 0.581649Z" fill="#B3B3B3"/>
<path d="M315.164 22.959L337.541 0.581649" stroke="#1D1D1B" stroke-width="0.329333" stroke-miterlimit="10"/>
<path d="M326.975 22.959L349.352 0.581649Z" fill="#B3B3B3"/>
<path d="M326.975 22.959L349.352 0.581649" stroke="#1D1D1B" stroke-width="0.329333" stroke-miterlimit="10"/>
<path d="M338.785 22.959L351.09 10.6537Z" fill="#B3B3B3"/>
<path d="M338.785 22.959L351.09 10.6537" stroke="#1D1D1B" stroke-width="0.329333" stroke-miterlimit="10"/>
<path d="M230.894 398.583V339.967H145.312V353.231H216.72V398.583" fill="white"/>
<path d="M230.894 398.583V339.967H145.312V353.231H216.72V398.583" stroke="#1D1D1B" stroke-width="0.988" stroke-miterlimit="10"/>
<path d="M191.281 35.958V20.534H160.756V35.958" fill="url(#paint0_linear_1012_5045)"/>
<path d="M191.281 35.958V20.5353H160.756V35.958" stroke="#1D1D1B" stroke-width="0.988" stroke-miterlimit="10"/>
<path d="M212.812 145.092L191.28 166.624V431.545H160.755V166.624L139.223 145.092" fill="url(#paint1_linear_1012_5045)"/>
<path d="M212.812 145.092L191.28 166.624V431.545H160.755V166.624L139.223 145.092" stroke="#1D1D1B" stroke-width="0.988" stroke-miterlimit="10"/>
<path d="M176.018 35.9585H242.529V145.092H176.018H109.508V35.9585H176.018Z" fill="url(#paint2_linear_1012_5045)"/>
<path d="M176.018 35.9575H242.529V145.091H176.018H109.508V35.9575H176.018Z" stroke="#1D1D1B" stroke-width="0.988" stroke-miterlimit="10"/>
<path d="M160.756 166.623H191.281" stroke="#1D1D1B" stroke-width="0.988" stroke-miterlimit="10"/>
<path d="M232.494 36.6777H209.494V6.67774H232.494V36.6777Z" fill="#24A737"/>
<path d="M219.408 28.3252H304.604V6.47453H219.408V28.3252Z" fill="#24A737"/>
<path d="M283.404 18.4662H303.846V281.822H283.404V18.4662Z" fill="#24A737"/>
<path d="M259.824 258.474H303.846V281.823H259.824V258.474Z" fill="#24A737"/>
<path d="M260.782 323.341H88.8008V134.734H260.782V323.341Z" fill="#24A737"/>
<path d="M109.242 134.734H88.8008V323.341H260.782V282.185H303.845V6.54352H232.163" stroke="#1D1D1B" stroke-width="0.988" stroke-miterlimit="10"/>
<path d="M242.529 134.462H261.6V258.474H283.404V28.2456H232.164V35.9577" stroke="#1D1D1B" stroke-width="0.988" stroke-miterlimit="10"/>
<path d="M232.164 27.5021V36.6621" stroke="#1D1D1B" stroke-width="0.988" stroke-miterlimit="10"/>
<path d="M114.328 36.7385V208.779C114.328 215.171 119.509 220.354 125.903 220.354C132.296 220.354 137.477 215.171 137.477 208.779V36.6238L114.328 36.7385Z" fill="url(#paint3_linear_1012_5045)"/>
<path d="M208.83 36.7385V208.779C208.83 215.171 214.013 220.354 220.407 220.354C226.799 220.354 231.982 215.171 231.982 208.779V36.6238L208.83 36.7385Z" fill="url(#paint4_linear_1012_5045)"/>
<path d="M232.581 87.8877H209.08V36.6104H232.581V87.8877Z" fill="#24A737"/>
<path d="M208.891 35.883V207.923C208.891 214.316 214.073 219.499 220.467 219.499C226.859 219.499 232.041 214.316 232.041 207.923V35.7684" stroke="#1D1D1B" stroke-width="0.988" stroke-miterlimit="10"/>
<defs>
<linearGradient id="paint0_linear_1012_5045" x1="160.756" y1="28.246" x2="191.282" y2="28.246" gradientUnits="userSpaceOnUse">
<stop stop-color="#3D3D3C"/>
<stop offset="0.5" stop-color="#888888"/>
<stop offset="0.99359" stop-color="#3D3D3C"/>
<stop offset="1" stop-color="#3D3D3C"/>
</linearGradient>
<linearGradient id="paint1_linear_1012_5045" x1="139.223" y1="288.318" x2="212.812" y2="288.318" gradientUnits="userSpaceOnUse">
<stop stop-color="#3D3D3C"/>
<stop offset="0.5" stop-color="#888888"/>
<stop offset="0.99359" stop-color="#3D3D3C"/>
<stop offset="1" stop-color="#3D3D3C"/>
</linearGradient>
<linearGradient id="paint2_linear_1012_5045" x1="109.508" y1="90.5249" x2="242.53" y2="90.5249" gradientUnits="userSpaceOnUse">
<stop stop-color="#3D3D3C"/>
<stop offset="0.5" stop-color="#888888"/>
<stop offset="0.99359" stop-color="#3D3D3C"/>
<stop offset="1" stop-color="#3D3D3C"/>
</linearGradient>
<linearGradient id="paint3_linear_1012_5045" x1="114.327" y1="128.489" x2="137.479" y2="128.489" gradientUnits="userSpaceOnUse">
<stop stop-color="#878787"/>
<stop offset="0.5" stop-color="#D0D0D0"/>
<stop offset="0.99359" stop-color="#878787"/>
<stop offset="1" stop-color="#878787"/>
</linearGradient>
<linearGradient id="paint4_linear_1012_5045" x1="208.831" y1="128.489" x2="231.982" y2="128.489" gradientUnits="userSpaceOnUse">
<stop stop-color="#878787"/>
<stop offset="0.5" stop-color="#D0D0D0"/>
<stop offset="0.99359" stop-color="#878787"/>
<stop offset="1" stop-color="#878787"/>
</linearGradient>
</defs>
</svg>
