<svg width="83" height="165" viewBox="0 0 83 165" fill="none" xmlns="http://www.w3.org/2000/svg">
<path d="M59.5928 163.75L67.0875 159.21L59.5928 154.823L67.0875 150.283L59.5928 145.897L67.0875 141.357L59.5928 136.97L67.0875 132.43L59.5928 127.671L67.0875 123.131L59.5928 118.373V105.699H82.3515V77.49H59.5928V71.5033H66.6795L76.2181 65.7247L66.6795 59.6687L76.2181 53.89L66.6795 47.8327L76.2181 42.0553L66.6795 35.998L76.2181 30.2207L66.6795 24.1633L76.2181 18.386L66.6795 12.3287L76.2181 6.55001L66.6795 0.494008H16.1661L6.62614 6.55001L16.1661 12.3287L6.62614 18.386L16.1661 24.1633L6.62614 30.2207L16.1661 35.998L6.62614 42.0553L16.1661 47.8327L6.62614 53.89L16.1661 59.6687L6.62614 65.7247L16.1661 71.5033H23.2528V77.49H0.494141V105.699H23.2528V118.373L15.7581 123.131L23.2528 127.671L15.7581 132.43L23.2528 136.97L15.7581 141.357L23.2528 145.897L15.7581 150.283L23.2528 154.823L15.7581 159.21L23.2528 163.75H59.5928Z" fill="#888888"/>
<path d="M59.5928 163.75L67.0875 159.21L59.5928 154.823L67.0875 150.283L59.5928 145.897L67.0875 141.357L59.5928 136.97L67.0875 132.43L59.5928 127.671L67.0875 123.131L59.5928 118.373V105.699H82.3515V77.49H59.5928V71.5033H66.6795L76.2181 65.7247L66.6795 59.6687L76.2181 53.89L66.6795 47.8327L76.2181 42.0553L66.6795 35.998L76.2181 30.2207L66.6795 24.1633L76.2181 18.386L66.6795 12.3287L76.2181 6.55001L66.6795 0.494008H16.1661L6.62614 6.55001L16.1661 12.3287L6.62614 18.386L16.1661 24.1633L6.62614 30.2207L16.1661 35.998L6.62614 42.0553L16.1661 47.8327L6.62614 53.89L16.1661 59.6687L6.62614 65.7247L16.1661 71.5033H23.2528V77.49H0.494141V105.699H23.2528V118.373L15.7581 123.131L23.2528 127.671L15.7581 132.43L23.2528 136.97L15.7581 141.357L23.2528 145.897L15.7581 150.283L23.2528 154.823L15.7581 159.21L23.2528 163.75H59.5928Z" stroke="#1D1D1B" stroke-width="0.988" stroke-miterlimit="10" stroke-linecap="round" stroke-linejoin="round"/>
<path d="M10.4766 8.19043L18.1246 0.54243Z" fill="#888888"/>
<path d="M10.4766 8.19043L18.1246 0.54243" stroke="#1D1D1B" stroke-width="0.329333" stroke-miterlimit="10"/>
<path d="M14.9062 11.5654L25.5529 0.918763Z" fill="#888888"/>
<path d="M14.9062 11.5654L25.5529 0.918763" stroke="#1D1D1B" stroke-width="0.329333" stroke-miterlimit="10"/>
<path d="M12.3984 21.8809L33.3611 0.918194Z" fill="#888888"/>
<path d="M12.3984 21.8809L33.3611 0.918194" stroke="#1D1D1B" stroke-width="0.329333" stroke-miterlimit="10"/>
<path d="M9.58594 32.499L41.2953 0.789693Z" fill="#888888"/>
<path d="M9.58594 32.499L41.2953 0.789693" stroke="#1D1D1B" stroke-width="0.329333" stroke-miterlimit="10"/>
<path d="M14.7812 35.1094L49.3506 0.540044Z" fill="#888888"/>
<path d="M14.7812 35.1094L49.3506 0.540044" stroke="#1D1D1B" stroke-width="0.329333" stroke-miterlimit="10"/>
<path d="M12.2715 45.4248L56.7782 0.918135Z" fill="#888888"/>
<path d="M12.2715 45.4248L56.7782 0.918135" stroke="#1D1D1B" stroke-width="0.329333" stroke-miterlimit="10"/>
<path d="M10.1133 55.3887L64.5839 0.918008Z" fill="#888888"/>
<path d="M10.1133 55.3887L64.5839 0.918008" stroke="#1D1D1B" stroke-width="0.329333" stroke-miterlimit="10"/>
<path d="M14.7812 58.5273L70.4319 2.87668Z" fill="#888888"/>
<path d="M14.7812 58.5273L70.4319 2.87668" stroke="#1D1D1B" stroke-width="0.329333" stroke-miterlimit="10"/>
<path d="M72.6914 8.42383L74.8741 6.24116Z" fill="#888888"/>
<path d="M72.6914 8.42383L74.8741 6.24116" stroke="#1D1D1B" stroke-width="0.329333" stroke-miterlimit="10"/>
<path d="M12.3984 68.7168L67.3891 13.7261Z" fill="#888888"/>
<path d="M12.3984 68.7168L67.3891 13.7261" stroke="#1D1D1B" stroke-width="0.329333" stroke-miterlimit="10"/>
<path d="M0.494141 80.6191L3.62347 77.4898Z" fill="#888888"/>
<path d="M0.494141 80.6191L3.62347 77.4898" stroke="#1D1D1B" stroke-width="0.329333" stroke-miterlimit="10"/>
<path d="M18.0762 70.8447L72.4842 16.4367Z" fill="#888888"/>
<path d="M18.0762 70.8447L72.4842 16.4367" stroke="#1D1D1B" stroke-width="0.329333" stroke-miterlimit="10"/>
<path d="M0.494141 88.4258L11.4301 77.4898Z" fill="#888888"/>
<path d="M0.494141 88.4258L11.4301 77.4898" stroke="#1D1D1B" stroke-width="0.329333" stroke-miterlimit="10"/>
<path d="M23.9121 72.8145L69.8788 26.8478Z" fill="#888888"/>
<path d="M23.9121 72.8145L69.8788 26.8478" stroke="#1D1D1B" stroke-width="0.329333" stroke-miterlimit="10"/>
<path d="M0.494141 96.2324L18.6755 78.0511Z" fill="#888888"/>
<path d="M0.494141 96.2324L18.6755 78.0511" stroke="#1D1D1B" stroke-width="0.329333" stroke-miterlimit="10"/>
<path d="M72.2578 32.2744L74.4605 30.0717Z" fill="#888888"/>
<path d="M72.2578 32.2744L74.4605 30.0717" stroke="#1D1D1B" stroke-width="0.329333" stroke-miterlimit="10"/>
<path d="M0.494141 104.037L66.6955 37.8358Z" fill="#888888"/>
<path d="M0.494141 104.037L66.6955 37.8358" stroke="#1D1D1B" stroke-width="0.329333" stroke-miterlimit="10"/>
<path d="M6.63867 105.699L72.2573 40.0805Z" fill="#888888"/>
<path d="M6.63867 105.699L72.2573 40.0805" stroke="#1D1D1B" stroke-width="0.329333" stroke-miterlimit="10"/>
<path d="M14.8125 105.331L69.8792 50.2644Z" fill="#888888"/>
<path d="M14.8125 105.331L69.8792 50.2644" stroke="#1D1D1B" stroke-width="0.329333" stroke-miterlimit="10"/>
<path d="M22.3281 105.623L67.2508 60.7004Z" fill="#888888"/>
<path d="M22.3281 105.623L67.2508 60.7004" stroke="#1D1D1B" stroke-width="0.329333" stroke-miterlimit="10"/>
<path d="M64.4199 71.3379L72.2599 63.4979Z" fill="#888888"/>
<path d="M64.4199 71.3379L72.2599 63.4979" stroke="#1D1D1B" stroke-width="0.329333" stroke-miterlimit="10"/>
<path d="M24.0508 111.707L58.9308 76.827Z" fill="#888888"/>
<path d="M24.0508 111.707L58.9308 76.827" stroke="#1D1D1B" stroke-width="0.329333" stroke-miterlimit="10"/>
<path d="M18.6875 124.876L66.0742 77.4893Z" fill="#888888"/>
<path d="M18.6875 124.876L66.0742 77.4893" stroke="#1D1D1B" stroke-width="0.329333" stroke-miterlimit="10"/>
<path d="M18.0352 133.334L73.4605 77.9087Z" fill="#888888"/>
<path d="M18.0352 133.334L73.4605 77.9087" stroke="#1D1D1B" stroke-width="0.329333" stroke-miterlimit="10"/>
<path d="M23.1152 136.059L81.1246 78.0493Z" fill="#888888"/>
<path d="M23.1152 136.059L81.1246 78.0493" stroke="#1D1D1B" stroke-width="0.329333" stroke-miterlimit="10"/>
<path d="M61.9707 105.011L82.1827 84.7987Z" fill="#888888"/>
<path d="M61.9707 105.011L82.1827 84.7987" stroke="#1D1D1B" stroke-width="0.329333" stroke-miterlimit="10"/>
<path d="M21.7344 145.246L58.929 108.051Z" fill="#888888"/>
<path d="M21.7344 145.246L58.929 108.051" stroke="#1D1D1B" stroke-width="0.329333" stroke-miterlimit="10"/>
<path d="M69.6816 105.105L82.0816 92.7055Z" fill="#888888"/>
<path d="M69.6816 105.105L82.0816 92.7055" stroke="#1D1D1B" stroke-width="0.329333" stroke-miterlimit="10"/>
<path d="M21.4004 153.387L59.1271 115.66Z" fill="#888888"/>
<path d="M21.4004 153.387L59.1271 115.66" stroke="#1D1D1B" stroke-width="0.329333" stroke-miterlimit="10"/>
<path d="M20.8691 161.725L61.8571 120.737Z" fill="#888888"/>
<path d="M20.8691 161.725L61.8571 120.737" stroke="#1D1D1B" stroke-width="0.329333" stroke-miterlimit="10"/>
<path d="M27.1602 163.24L61.1788 129.222Z" fill="#888888"/>
<path d="M27.1602 163.24L61.1788 129.222" stroke="#1D1D1B" stroke-width="0.329333" stroke-miterlimit="10"/>
<path d="M34.9648 163.24L60.2902 137.915Z" fill="#888888"/>
<path d="M34.9648 163.24L60.2902 137.915" stroke="#1D1D1B" stroke-width="0.329333" stroke-miterlimit="10"/>
<path d="M42.7715 163.24L65.0541 140.958Z" fill="#888888"/>
<path d="M42.7715 163.24L65.0541 140.958" stroke="#1D1D1B" stroke-width="0.329333" stroke-miterlimit="10"/>
<path d="M50.6484 163.168L64.4044 149.412Z" fill="#888888"/>
<path d="M50.6484 163.168L64.4044 149.412" stroke="#1D1D1B" stroke-width="0.329333" stroke-miterlimit="10"/>
<path d="M58.209 163.414L63.977 157.646Z" fill="#888888"/>
<path d="M58.209 163.414L63.977 157.646" stroke="#1D1D1B" stroke-width="0.329333" stroke-miterlimit="10"/>
<path d="M52.5684 164.39H30.5684V1.38966H52.5684V164.39Z" fill="#AC1916"/>
</svg>
