<svg width="964" height="731" viewBox="0 0 964 731" fill="none" xmlns="http://www.w3.org/2000/svg">
<path d="M341.82 112.124H107.65V76.2227H341.82V112.124Z" fill="#1D1D1B"/>
<path d="M111.83 2.02849H2.49414V107.842H111.83V2.02849Z" fill="#646363" stroke="#1D1D1B" stroke-width="0.988" stroke-miterlimit="10"/>
<path d="M446.538 0.493577H337.322V107.81H446.538V0.493577Z" fill="#646363" stroke="#1D1D1B" stroke-width="0.988" stroke-miterlimit="10"/>
<path d="M260.371 154.688H182.33V143.786H260.371V154.688Z" fill="#1D1D1B"/>
<path d="M367.115 72.3988L372.203 79.1214L377.542 72.3988V72.4814L382.629 79.2041L387.967 72.4814L393.055 79.2041L398.394 72.4814L403.482 79.2041L408.821 72.4814L413.907 79.2041L419.246 72.4814H434.183V85.9268H458.425V78.2788H496.219V85.9268H551.093V23.5814H496.219V31.2308H458.425V23.5814H434.183V37.0281H419.246L413.907 30.3054L408.821 37.0281L403.482 30.3054L398.394 37.0281L393.055 30.3054L387.967 37.0281L382.629 30.3054L377.542 37.0281L372.203 30.3054L367.115 37.0281V72.3988Z" fill="#888888"/>
<path d="M367.115 72.3988L372.203 79.1214L377.542 72.3988V72.4814L382.629 79.2041L387.967 72.4814L393.055 79.2041L398.394 72.4814L403.482 79.2041L408.821 72.4814L413.907 79.2041L419.246 72.4814H434.183V85.9268H458.425V78.2788H496.219V85.9268H551.093V23.5814H496.219V31.2308H458.425V23.5814H434.183V37.0281H419.246L413.907 30.3054L408.821 37.0281L403.482 30.3054L398.394 37.0281L393.055 30.3054L387.967 37.0281L382.629 30.3054L377.542 37.0281L372.203 30.3054L367.115 37.0281V72.3988Z" stroke="#1D1D1B" stroke-width="0.988" stroke-miterlimit="10" stroke-linecap="round" stroke-linejoin="round"/>
<path d="M474.168 405.07V382.789H447.595V107.841H3.11495L2.18164 109.321V377.406H65.1163V144.901H406.178V405.436" fill="#B3B3B3"/>
<path d="M474.168 405.07V382.789H447.595V107.841H3.11495L2.18164 109.321V377.406H65.1163V144.901H406.178V405.436" stroke="#1D1D1B" stroke-width="0.988" stroke-miterlimit="10"/>
<path d="M101.468 108.546L2.35742 207.656" stroke="#1D1D1B" stroke-width="0.329333" stroke-miterlimit="10"/>
<path d="M85.2063 108.546L2.40234 191.35" stroke="#1D1D1B" stroke-width="0.329333" stroke-miterlimit="10"/>
<path d="M68.9434 108.546L2.7207 174.769" stroke="#1D1D1B" stroke-width="0.329333" stroke-miterlimit="10"/>
<path d="M709.084 391.688V439.519" stroke="#B02622" stroke-width="3.27067" stroke-miterlimit="10"/>
<path d="M473.234 388.173H962.013V443.299H474.688" stroke="#888888" stroke-width="3.27067" stroke-miterlimit="10"/>
<path d="M473.234 424.785V447.067H446.661V721.603H397.146V687.087H405.244V425.769" fill="#B3B3B3"/>
<path d="M473.234 424.785V447.067H446.661V721.603H397.146V687.087H405.244V425.769" stroke="#1D1D1B" stroke-width="0.988" stroke-miterlimit="10"/>
<path d="M64.2228 548.979H3.26562V453.19H64.2228V548.979Z" fill="#B3B3B3"/>
<path d="M2.08203 571.24V720.884H387.881V686.902H64.2247V571.24H2.08203Z" fill="#B3B3B3"/>
<path d="M2.08203 571.24V720.884H387.881V686.902H64.2247V571.24H2.08203Z" stroke="#1D1D1B" stroke-width="0.988" stroke-miterlimit="10"/>
<path d="M455.249 392.444H433.535V405.436H455.249V392.444Z" fill="#1D1D1B" stroke="#1D1D1B" stroke-width="1.09333" stroke-miterlimit="10"/>
<path d="M93.0371 52.1279V17.8746H363.773V46.7653" stroke="#D0D0D0" stroke-width="3.27067" stroke-miterlimit="10"/>
<path d="M110.904 42.1221H94.4785V19.2274H110.904V42.1221Z" fill="#CBBBA0"/>
<path d="M361.587 42.1221H338.594V19.2274H361.587V42.1221Z" fill="#CBBBA0"/>
<path d="M386.685 698.05L363.041 721.694" stroke="#1D1D1B" stroke-width="0.329333" stroke-miterlimit="10"/>
<path d="M381.488 687.088L346.881 721.694" stroke="#1D1D1B" stroke-width="0.329333" stroke-miterlimit="10"/>
<path d="M446.356 711.071L436.635 720.792" stroke="#1D1D1B" stroke-width="0.329333" stroke-miterlimit="10"/>
<path d="M446.084 694.99L420.102 720.974" stroke="#1D1D1B" stroke-width="0.329333" stroke-miterlimit="10"/>
<path d="M446.356 678.364L400.572 724.148" stroke="#1D1D1B" stroke-width="0.329333" stroke-miterlimit="10"/>
<path d="M445.812 662.556L398.252 710.116" stroke="#1D1D1B" stroke-width="0.329333" stroke-miterlimit="10"/>
<path d="M445.811 646.203L406.291 685.723" stroke="#1D1D1B" stroke-width="0.329333" stroke-miterlimit="10"/>
<path d="M445.811 628.214L406.291 667.734" stroke="#1D1D1B" stroke-width="0.329333" stroke-miterlimit="10"/>
<path d="M445.811 610.226L406.291 649.746" stroke="#1D1D1B" stroke-width="0.329333" stroke-miterlimit="10"/>
<path d="M445.811 592.238L406.291 631.758" stroke="#1D1D1B" stroke-width="0.329333" stroke-miterlimit="10"/>
<path d="M445.811 574.249L406.291 613.769" stroke="#1D1D1B" stroke-width="0.329333" stroke-miterlimit="10"/>
<path d="M445.811 556.26L406.291 595.78" stroke="#1D1D1B" stroke-width="0.329333" stroke-miterlimit="10"/>
<path d="M445.811 538.272L406.291 577.792" stroke="#1D1D1B" stroke-width="0.329333" stroke-miterlimit="10"/>
<path d="M445.811 520.284L406.291 559.804" stroke="#1D1D1B" stroke-width="0.329333" stroke-miterlimit="10"/>
<path d="M445.811 502.294L406.291 541.814" stroke="#1D1D1B" stroke-width="0.329333" stroke-miterlimit="10"/>
<path d="M445.811 484.306L406.291 523.826" stroke="#1D1D1B" stroke-width="0.329333" stroke-miterlimit="10"/>
<path d="M445.432 466.698L406.291 505.839" stroke="#1D1D1B" stroke-width="0.329333" stroke-miterlimit="10"/>
<path d="M472.613 439.517L466.162 445.968" stroke="#1D1D1B" stroke-width="0.329333" stroke-miterlimit="10"/>
<path d="M449.899 426.252L406.291 469.86" stroke="#1D1D1B" stroke-width="0.329333" stroke-miterlimit="10"/>
<path d="M432.547 425.617L406.291 451.873" stroke="#1D1D1B" stroke-width="0.329333" stroke-miterlimit="10"/>
<path d="M472.067 386.096L453.715 404.448" stroke="#1D1D1B" stroke-width="0.329333" stroke-miterlimit="10"/>
<path d="M456.806 383.189L435.547 404.447" stroke="#1D1D1B" stroke-width="0.329333" stroke-miterlimit="10"/>
<path d="M446.447 375.376L417.102 404.722" stroke="#1D1D1B" stroke-width="0.329333" stroke-miterlimit="10"/>
<path d="M446.447 357.933L405.564 398.815" stroke="#1D1D1B" stroke-width="0.329333" stroke-miterlimit="10"/>
<path d="M446.447 341.112L405.564 381.995" stroke="#1D1D1B" stroke-width="0.329333" stroke-miterlimit="10"/>
<path d="M446.447 324.291L405.564 365.174" stroke="#1D1D1B" stroke-width="0.329333" stroke-miterlimit="10"/>
<path d="M446.447 307.471L405.564 348.354" stroke="#1D1D1B" stroke-width="0.329333" stroke-miterlimit="10"/>
<path d="M446.447 290.651L405.564 331.533" stroke="#1D1D1B" stroke-width="0.329333" stroke-miterlimit="10"/>
<path d="M446.447 273.83L405.564 314.713" stroke="#1D1D1B" stroke-width="0.329333" stroke-miterlimit="10"/>
<path d="M446.447 257.01L405.564 297.893" stroke="#1D1D1B" stroke-width="0.329333" stroke-miterlimit="10"/>
<path d="M446.447 240.19L405.564 281.072" stroke="#1D1D1B" stroke-width="0.329333" stroke-miterlimit="10"/>
<path d="M446.447 223.369L405.564 264.252" stroke="#1D1D1B" stroke-width="0.329333" stroke-miterlimit="10"/>
<path d="M446.447 206.548L405.564 247.431" stroke="#1D1D1B" stroke-width="0.329333" stroke-miterlimit="10"/>
<path d="M446.447 189.728L405.564 230.61" stroke="#1D1D1B" stroke-width="0.329333" stroke-miterlimit="10"/>
<path d="M446.447 172.907L405.564 213.79" stroke="#1D1D1B" stroke-width="0.329333" stroke-miterlimit="10"/>
<path d="M446.447 156.087L405.564 196.97" stroke="#1D1D1B" stroke-width="0.329333" stroke-miterlimit="10"/>
<path d="M446.447 139.267L405.564 180.149" stroke="#1D1D1B" stroke-width="0.329333" stroke-miterlimit="10"/>
<path d="M446.447 122.446L405.564 163.329" stroke="#1D1D1B" stroke-width="0.329333" stroke-miterlimit="10"/>
<path d="M443.53 108.543L405.564 146.509" stroke="#1D1D1B" stroke-width="0.329333" stroke-miterlimit="10"/>
<path d="M426.709 108.544L391.365 143.888" stroke="#1D1D1B" stroke-width="0.329333" stroke-miterlimit="10"/>
<path d="M410.448 108.544L375.104 143.888" stroke="#1D1D1B" stroke-width="0.329333" stroke-miterlimit="10"/>
<path d="M394.186 108.544L358.842 143.888" stroke="#1D1D1B" stroke-width="0.329333" stroke-miterlimit="10"/>
<path d="M377.922 108.544L342.578 143.888" stroke="#1D1D1B" stroke-width="0.329333" stroke-miterlimit="10"/>
<path d="M361.66 108.544L326.316 143.888" stroke="#1D1D1B" stroke-width="0.329333" stroke-miterlimit="10"/>
<path d="M345.399 108.544L310.055 143.888" stroke="#1D1D1B" stroke-width="0.329333" stroke-miterlimit="10"/>
<path d="M329.137 108.544L293.793 143.888" stroke="#1D1D1B" stroke-width="0.329333" stroke-miterlimit="10"/>
<path d="M312.875 108.544L277.531 143.888" stroke="#1D1D1B" stroke-width="0.329333" stroke-miterlimit="10"/>
<path d="M296.614 108.544L261.27 143.888" stroke="#1D1D1B" stroke-width="0.329333" stroke-miterlimit="10"/>
<path d="M280.35 108.544L245.006 143.888" stroke="#1D1D1B" stroke-width="0.329333" stroke-miterlimit="10"/>
<path d="M264.088 108.544L228.744 143.888" stroke="#1D1D1B" stroke-width="0.329333" stroke-miterlimit="10"/>
<path d="M247.826 108.544L212.482 143.888" stroke="#1D1D1B" stroke-width="0.329333" stroke-miterlimit="10"/>
<path d="M231.565 108.544L196.221 143.888" stroke="#1D1D1B" stroke-width="0.329333" stroke-miterlimit="10"/>
<path d="M215.303 108.544L179.959 143.888" stroke="#1D1D1B" stroke-width="0.329333" stroke-miterlimit="10"/>
<path d="M199.041 108.544L163.697 143.888" stroke="#1D1D1B" stroke-width="0.329333" stroke-miterlimit="10"/>
<path d="M182.778 108.544L147.434 143.888" stroke="#1D1D1B" stroke-width="0.329333" stroke-miterlimit="10"/>
<path d="M166.516 108.544L131.172 143.888" stroke="#1D1D1B" stroke-width="0.329333" stroke-miterlimit="10"/>
<path d="M150.254 108.544L114.91 143.888" stroke="#1D1D1B" stroke-width="0.329333" stroke-miterlimit="10"/>
<path d="M133.992 108.544L98.6484 143.888" stroke="#1D1D1B" stroke-width="0.329333" stroke-miterlimit="10"/>
<path d="M117.731 108.544L82.3867 143.888" stroke="#1D1D1B" stroke-width="0.329333" stroke-miterlimit="10"/>
<path d="M63.2974 162.883L2.35742 223.823" stroke="#1D1D1B" stroke-width="0.329333" stroke-miterlimit="10"/>
<path d="M63.2974 179.579L2.35742 240.519" stroke="#1D1D1B" stroke-width="0.329333" stroke-miterlimit="10"/>
<path d="M63.2974 196.274L2.35742 257.214" stroke="#1D1D1B" stroke-width="0.329333" stroke-miterlimit="10"/>
<path d="M63.2974 212.969L2.35742 273.909" stroke="#1D1D1B" stroke-width="0.329333" stroke-miterlimit="10"/>
<path d="M63.2974 229.664L2.35742 290.604" stroke="#1D1D1B" stroke-width="0.329333" stroke-miterlimit="10"/>
<path d="M63.2974 246.36L2.35742 307.3" stroke="#1D1D1B" stroke-width="0.329333" stroke-miterlimit="10"/>
<path d="M63.2974 263.055L2.35742 323.995" stroke="#1D1D1B" stroke-width="0.329333" stroke-miterlimit="10"/>
<path d="M63.2974 279.75L2.35742 340.69" stroke="#1D1D1B" stroke-width="0.329333" stroke-miterlimit="10"/>
<path d="M63.2974 296.446L2.35742 357.386" stroke="#1D1D1B" stroke-width="0.329333" stroke-miterlimit="10"/>
<path d="M63.2974 313.141L2.35742 374.081" stroke="#1D1D1B" stroke-width="0.329333" stroke-miterlimit="10"/>
<path d="M63.2976 329.836L17.4336 375.7" stroke="#1D1D1B" stroke-width="0.329333" stroke-miterlimit="10"/>
<path d="M63.2965 346.532L32.6738 377.154" stroke="#1D1D1B" stroke-width="0.329333" stroke-miterlimit="10"/>
<path d="M63.2973 363.227L50.1973 376.327" stroke="#1D1D1B" stroke-width="0.329333" stroke-miterlimit="10"/>
<path d="M52.6821 108.543L2.49414 158.731" stroke="#1D1D1B" stroke-width="0.329333" stroke-miterlimit="10"/>
<path d="M36.4202 108.544L1.07617 143.888" stroke="#1D1D1B" stroke-width="0.329333" stroke-miterlimit="10"/>
<path d="M20.157 108.543L2.40234 126.298" stroke="#1D1D1B" stroke-width="0.329333" stroke-miterlimit="10"/>
<path d="M414.922 425.253L406.291 433.884" stroke="#1D1D1B" stroke-width="0.329333" stroke-miterlimit="10"/>
<path d="M404.927 687.087L397.162 694.853" stroke="#1D1D1B" stroke-width="0.329333" stroke-miterlimit="10"/>
<path d="M365.327 687.088L330.721 721.694" stroke="#1D1D1B" stroke-width="0.329333" stroke-miterlimit="10"/>
<path d="M349.167 687.088L314.561 721.694" stroke="#1D1D1B" stroke-width="0.329333" stroke-miterlimit="10"/>
<path d="M333.007 687.088L298.4 721.694" stroke="#1D1D1B" stroke-width="0.329333" stroke-miterlimit="10"/>
<path d="M316.845 687.088L282.238 721.694" stroke="#1D1D1B" stroke-width="0.329333" stroke-miterlimit="10"/>
<path d="M300.685 687.088L266.078 721.694" stroke="#1D1D1B" stroke-width="0.329333" stroke-miterlimit="10"/>
<path d="M284.525 687.088L249.918 721.694" stroke="#1D1D1B" stroke-width="0.329333" stroke-miterlimit="10"/>
<path d="M268.364 687.088L233.758 721.694" stroke="#1D1D1B" stroke-width="0.329333" stroke-miterlimit="10"/>
<path d="M252.204 687.088L217.598 721.694" stroke="#1D1D1B" stroke-width="0.329333" stroke-miterlimit="10"/>
<path d="M236.044 687.088L201.438 721.694" stroke="#1D1D1B" stroke-width="0.329333" stroke-miterlimit="10"/>
<path d="M219.884 687.088L185.277 721.694" stroke="#1D1D1B" stroke-width="0.329333" stroke-miterlimit="10"/>
<path d="M203.724 687.088L169.117 721.694" stroke="#1D1D1B" stroke-width="0.329333" stroke-miterlimit="10"/>
<path d="M187.564 687.088L152.957 721.694" stroke="#1D1D1B" stroke-width="0.329333" stroke-miterlimit="10"/>
<path d="M171.404 687.088L136.797 721.694" stroke="#1D1D1B" stroke-width="0.329333" stroke-miterlimit="10"/>
<path d="M155.243 687.088L120.637 721.694" stroke="#1D1D1B" stroke-width="0.329333" stroke-miterlimit="10"/>
<path d="M139.083 687.088L104.477 721.694" stroke="#1D1D1B" stroke-width="0.329333" stroke-miterlimit="10"/>
<path d="M122.921 687.088L88.3145 721.694" stroke="#1D1D1B" stroke-width="0.329333" stroke-miterlimit="10"/>
<path d="M106.761 687.088L72.1543 721.694" stroke="#1D1D1B" stroke-width="0.329333" stroke-miterlimit="10"/>
<path d="M90.6008 687.088L55.9941 721.694" stroke="#1D1D1B" stroke-width="0.329333" stroke-miterlimit="10"/>
<path d="M74.4407 687.088L39.834 721.694" stroke="#1D1D1B" stroke-width="0.329333" stroke-miterlimit="10"/>
<path d="M63.6218 681.746L23.6738 721.694" stroke="#1D1D1B" stroke-width="0.329333" stroke-miterlimit="10"/>
<path d="M63.5363 665.672L7.51367 721.694" stroke="#1D1D1B" stroke-width="0.329333" stroke-miterlimit="10"/>
<path d="M63.3609 649.687L3.26758 709.78" stroke="#1D1D1B" stroke-width="0.329333" stroke-miterlimit="10"/>
<path d="M63.3609 633.993L3.26758 694.086" stroke="#1D1D1B" stroke-width="0.329333" stroke-miterlimit="10"/>
<path d="M63.3609 618.297L3.26758 678.391" stroke="#1D1D1B" stroke-width="0.329333" stroke-miterlimit="10"/>
<path d="M63.3609 602.602L3.26758 662.695" stroke="#1D1D1B" stroke-width="0.329333" stroke-miterlimit="10"/>
<path d="M63.3609 586.908L3.26758 647.001" stroke="#1D1D1B" stroke-width="0.329333" stroke-miterlimit="10"/>
<path d="M63.3609 571.212L3.26758 631.306" stroke="#1D1D1B" stroke-width="0.329333" stroke-miterlimit="10"/>
<path d="M46.8449 572.034L3.26758 615.611" stroke="#1D1D1B" stroke-width="0.329333" stroke-miterlimit="10"/>
<path d="M30.4142 572.768L3.26758 599.915" stroke="#1D1D1B" stroke-width="0.329333" stroke-miterlimit="10"/>
<path d="M63.3613 539.822L53.0293 550.154" stroke="#1D1D1B" stroke-width="0.329333" stroke-miterlimit="10"/>
<path d="M15.0476 572.441L3.26758 584.221" stroke="#1D1D1B" stroke-width="0.329333" stroke-miterlimit="10"/>
<path d="M63.3607 524.128L37.334 550.154" stroke="#1D1D1B" stroke-width="0.329333" stroke-miterlimit="10"/>
<path d="M63.3608 508.433L23.0781 548.716" stroke="#1D1D1B" stroke-width="0.329333" stroke-miterlimit="10"/>
<path d="M63.3605 492.738L7.11914 548.979" stroke="#1D1D1B" stroke-width="0.329333" stroke-miterlimit="10"/>
<path d="M63.3609 477.043L3.26758 537.137" stroke="#1D1D1B" stroke-width="0.329333" stroke-miterlimit="10"/>
<path d="M63.3609 461.348L3.26758 521.441" stroke="#1D1D1B" stroke-width="0.329333" stroke-miterlimit="10"/>
<path d="M55.8236 453.19L3.26758 505.746" stroke="#1D1D1B" stroke-width="0.329333" stroke-miterlimit="10"/>
<path d="M24.2236 469.096L3.26758 490.052" stroke="#1D1D1B" stroke-width="0.329333" stroke-miterlimit="10"/>
<path d="M15.375 462.248L3.26562 474.357" stroke="#1D1D1B" stroke-width="0.329333" stroke-miterlimit="10"/>
<path d="M260.371 687.527H182.33V676.625H260.371V687.527Z" fill="#1D1D1B"/>
<path d="M416.699 730.137H371.637V707.606H416.699V730.137Z" fill="#3A3939"/>
<path d="M469.355 424.786L406.291 487.85" stroke="#1D1D1B" stroke-width="0.329333" stroke-miterlimit="10"/>
<path d="M455.249 424.786H433.535V437.778H455.249V424.786Z" fill="#1D1D1B" stroke="#1D1D1B" stroke-width="1.09333" stroke-miterlimit="10"/>
<path d="M940.574 391.686V439.517" stroke="#B02622" stroke-width="3.27067" stroke-miterlimit="10"/>
<path d="M94.4766 42.1217H361.586V46.2471" stroke="#1D1D1B" stroke-width="0.988" stroke-miterlimit="10"/>
<path d="M363.772 63.2564V80.2778H79.668V145.579" stroke="#1D1D1B" stroke-width="0.988" stroke-miterlimit="10"/>
<path d="M64.9219 147.327V52.1285H94.4765" stroke="#1D1D1B" stroke-width="0.988" stroke-miterlimit="10"/>
<path d="M551.003 78.0201L542.918 86.1055Z" fill="#646363"/>
<path d="M551.003 78.0201L542.918 86.1055" stroke="#1D1D1B" stroke-width="0.329333" stroke-miterlimit="10"/>
<path d="M551.002 68.0264L532.922 86.1064Z" fill="#646363"/>
<path d="M551.002 68.0264L532.922 86.1064" stroke="#1D1D1B" stroke-width="0.329333" stroke-miterlimit="10"/>
<path d="M550.912 58.1238L522.93 86.1064Z" fill="#646363"/>
<path d="M550.912 58.1238L522.93 86.1064" stroke="#1D1D1B" stroke-width="0.329333" stroke-miterlimit="10"/>
<path d="M550.912 48.1304L512.936 86.1064Z" fill="#646363"/>
<path d="M550.912 48.1304L512.936 86.1064" stroke="#1D1D1B" stroke-width="0.329333" stroke-miterlimit="10"/>
<path d="M550.733 38.3161L502.943 86.1055Z" fill="#646363"/>
<path d="M550.733 38.3161L502.943 86.1055" stroke="#1D1D1B" stroke-width="0.329333" stroke-miterlimit="10"/>
<path d="M551.11 27.9442L496.855 82.2002Z" fill="#646363"/>
<path d="M551.11 27.9442L496.855 82.2002" stroke="#1D1D1B" stroke-width="0.329333" stroke-miterlimit="10"/>
<path d="M544.733 24.3272L491.223 77.8379Z" fill="#646363"/>
<path d="M544.733 24.3272L491.223 77.8379" stroke="#1D1D1B" stroke-width="0.329333" stroke-miterlimit="10"/>
<path d="M534.741 24.3268L481.115 77.9521Z" fill="#646363"/>
<path d="M534.741 24.3268L481.115 77.9521" stroke="#1D1D1B" stroke-width="0.329333" stroke-miterlimit="10"/>
<path d="M524.746 24.3274L470.758 78.3154Z" fill="#646363"/>
<path d="M524.746 24.3274L470.758 78.3154" stroke="#1D1D1B" stroke-width="0.329333" stroke-miterlimit="10"/>
<path d="M457.676 81.4041L452.975 86.1055Z" fill="#646363"/>
<path d="M457.676 81.4041L452.975 86.1055" stroke="#1D1D1B" stroke-width="0.329333" stroke-miterlimit="10"/>
<path d="M514.754 24.3272L461.242 77.8379Z" fill="#646363"/>
<path d="M514.754 24.3272L461.242 77.8379" stroke="#1D1D1B" stroke-width="0.329333" stroke-miterlimit="10"/>
<path d="M504.759 24.3268L442.98 86.1055Z" fill="#646363"/>
<path d="M504.759 24.3268L442.98 86.1055" stroke="#1D1D1B" stroke-width="0.329333" stroke-miterlimit="10"/>
<path d="M487.046 32.0477L434.805 84.2891Z" fill="#646363"/>
<path d="M487.046 32.0477L434.805 84.2891" stroke="#1D1D1B" stroke-width="0.329333" stroke-miterlimit="10"/>
<path d="M477.873 31.2279L434.918 74.1826Z" fill="#646363"/>
<path d="M477.873 31.2279L434.918 74.1826" stroke="#1D1D1B" stroke-width="0.329333" stroke-miterlimit="10"/>
<path d="M467.465 31.6404L426.15 72.9551Z" fill="#646363"/>
<path d="M467.465 31.6404L426.15 72.9551" stroke="#1D1D1B" stroke-width="0.329333" stroke-miterlimit="10"/>
<path d="M458.311 30.8002L412.59 76.5215Z" fill="#646363"/>
<path d="M458.311 30.8002L412.59 76.5215" stroke="#1D1D1B" stroke-width="0.329333" stroke-miterlimit="10"/>
<path d="M454.791 24.3267L402.188 76.9307Z" fill="#646363"/>
<path d="M454.791 24.3267L402.188 76.9307" stroke="#1D1D1B" stroke-width="0.329333" stroke-miterlimit="10"/>
<path d="M444.797 24.3266L391.664 77.46Z" fill="#646363"/>
<path d="M444.797 24.3266L391.664 77.46" stroke="#1D1D1B" stroke-width="0.329333" stroke-miterlimit="10"/>
<path d="M421.859 37.2733L381.672 77.46Z" fill="#646363"/>
<path d="M421.859 37.2733L381.672 77.46" stroke="#1D1D1B" stroke-width="0.329333" stroke-miterlimit="10"/>
<path d="M415.955 33.1841L377.143 71.9961Z" fill="#646363"/>
<path d="M415.955 33.1841L377.143 71.9961" stroke="#1D1D1B" stroke-width="0.329333" stroke-miterlimit="10"/>
<path d="M405.96 33.1836L367.836 71.3076Z" fill="#646363"/>
<path d="M405.96 33.1836L367.836 71.3076" stroke="#1D1D1B" stroke-width="0.329333" stroke-miterlimit="10"/>
<path d="M395.397 33.752L367.387 61.7627Z" fill="#646363"/>
<path d="M395.397 33.752L367.387 61.7627" stroke="#1D1D1B" stroke-width="0.329333" stroke-miterlimit="10"/>
<path d="M385.405 33.7529L367.836 51.3223Z" fill="#646363"/>
<path d="M385.405 33.7529L367.836 51.3223" stroke="#1D1D1B" stroke-width="0.329333" stroke-miterlimit="10"/>
<path d="M375.246 33.7526L366.676 42.3232Z" fill="#646363"/>
<path d="M375.246 33.7526L366.676 42.3232" stroke="#1D1D1B" stroke-width="0.329333" stroke-miterlimit="10"/>
<path d="M496.855 44.3384H534.06V65.165H496.855V44.3384Z" fill="white"/>
<path d="M363.773 63.2567H446.979V70.8887H496.856V65.1647H534.06" stroke="#1D1D1B" stroke-width="0.329333" stroke-miterlimit="10"/>
<path d="M361.66 46.2461H446.977V38.6141H496.855V44.3381H534.058" stroke="#1D1D1B" stroke-width="0.329333" stroke-miterlimit="10"/>
<path d="M531.469 74.0232L528.744 77.4299C528.744 77.4299 525.609 80.2925 523.429 77.4299C521.248 74.5685 520.84 74.0232 520.84 74.0232C520.84 74.0232 519.068 71.0245 516.206 74.0232L513.344 77.0219C513.344 77.0219 511.164 79.6099 508.574 77.0219C506.872 75.3179 505.985 74.4325 505.985 74.4325C505.985 74.4325 503.805 70.8885 501.488 74.1592C499.426 77.0699 496.992 79.8832 494.402 79.7472" stroke="#1D1D1B" stroke-width="2.45333" stroke-miterlimit="10" stroke-linecap="round"/>
<path d="M531.469 35.4807L528.744 32.0741C528.744 32.0741 525.609 29.2114 523.429 32.0741C521.248 34.9354 520.84 35.4807 520.84 35.4807C520.84 35.4807 519.068 38.4794 516.206 35.4807L513.344 32.4821C513.344 32.4821 511.164 29.8941 508.574 32.4821C506.872 34.1861 505.985 35.0714 505.985 35.0714C505.985 35.0714 503.805 38.6154 501.488 35.3447C499.426 32.4341 496.992 29.6207 494.402 29.7567" stroke="#1D1D1B" stroke-width="2.45333" stroke-miterlimit="10" stroke-linecap="round"/>
<path d="M534.059 37.0918H549.185V72.6904H534.059V37.0918Z" fill="#1D1D1B"/>
<path d="M272.164 377.328H64.1836V142.992H272.164V377.328Z" fill="#24A737"/>
<path d="M93.0371 80.2822H363.773V42.1249H93.0371V80.2822Z" fill="#24A737"/>
<path d="M64.3242 53.0261H79.6683V146.647H64.3242V53.0261Z" fill="#24A737"/>
<path d="M79.668 53.0256H93.036V80.2803H79.668V53.0256Z" fill="#24A737"/>
<path d="M255.193 687.527H64.1836V453.191H255.193V687.527Z" fill="#24A737"/>
<path d="M3.49609 548.493H65.4961V571.493H3.49609V548.493Z" fill="#24A737"/>
<path d="M363.123 46.2481H446.978V63.2588H363.123V46.2481Z" fill="#24A737"/>
<path d="M446.803 38.6183H497.225V70.8916H446.803V38.6183Z" fill="#24A737"/>
<path d="M52.6841 360.73H14.7988V377.083H52.6841V360.73Z" fill="#1D1D1B"/>
<path d="M52.6841 453.496H14.7988V469.85H52.6841V453.496Z" fill="#1D1D1B"/>
<path d="M166.613 452.858H2.27734V377.362H166.613V153.596H273.181V405.434H811.746V424.786H273.181V676.625H166.613V452.858Z" fill="#646363"/>
<path d="M811.178 417.269L800.162 406.253Z" fill="#888888"/>
<path d="M811.178 417.269L800.162 406.253" stroke="#1D1D1B" stroke-width="0.329333" stroke-miterlimit="10"/>
<path d="M792.121 424.786L773.588 406.253Z" fill="#888888"/>
<path d="M792.121 424.786L773.588 406.253" stroke="#1D1D1B" stroke-width="0.329333" stroke-miterlimit="10"/>
<path d="M765.549 424.786L747.016 406.253Z" fill="#888888"/>
<path d="M765.549 424.786L747.016 406.253" stroke="#1D1D1B" stroke-width="0.329333" stroke-miterlimit="10"/>
<path d="M738.975 424.786L720.441 406.253Z" fill="#888888"/>
<path d="M738.975 424.786L720.441 406.253" stroke="#1D1D1B" stroke-width="0.329333" stroke-miterlimit="10"/>
<path d="M712.401 424.786L693.867 406.253Z" fill="#888888"/>
<path d="M712.401 424.786L693.867 406.253" stroke="#1D1D1B" stroke-width="0.329333" stroke-miterlimit="10"/>
<path d="M685.826 424.786L667.293 406.253Z" fill="#888888"/>
<path d="M685.826 424.786L667.293 406.253" stroke="#1D1D1B" stroke-width="0.329333" stroke-miterlimit="10"/>
<path d="M659.252 424.786L640.719 406.253Z" fill="#888888"/>
<path d="M659.252 424.786L640.719 406.253" stroke="#1D1D1B" stroke-width="0.329333" stroke-miterlimit="10"/>
<path d="M632.678 424.786L614.145 406.253Z" fill="#888888"/>
<path d="M632.678 424.786L614.145 406.253" stroke="#1D1D1B" stroke-width="0.329333" stroke-miterlimit="10"/>
<path d="M606.104 424.786L587.57 406.253Z" fill="#888888"/>
<path d="M606.104 424.786L587.57 406.253" stroke="#1D1D1B" stroke-width="0.329333" stroke-miterlimit="10"/>
<path d="M579.529 424.786L560.996 406.253Z" fill="#888888"/>
<path d="M579.529 424.786L560.996 406.253" stroke="#1D1D1B" stroke-width="0.329333" stroke-miterlimit="10"/>
<path d="M552.957 424.786L534.424 406.253Z" fill="#888888"/>
<path d="M552.957 424.786L534.424 406.253" stroke="#1D1D1B" stroke-width="0.329333" stroke-miterlimit="10"/>
<path d="M526.383 424.786L507.85 406.253Z" fill="#888888"/>
<path d="M526.383 424.786L507.85 406.253" stroke="#1D1D1B" stroke-width="0.329333" stroke-miterlimit="10"/>
<path d="M499.809 424.786L481.275 406.253Z" fill="#888888"/>
<path d="M499.809 424.786L481.275 406.253" stroke="#1D1D1B" stroke-width="0.329333" stroke-miterlimit="10"/>
<path d="M473.235 424.786L454.701 406.253Z" fill="#888888"/>
<path d="M473.235 424.786L454.701 406.253" stroke="#1D1D1B" stroke-width="0.329333" stroke-miterlimit="10"/>
<path d="M446.66 424.786L428.127 406.253Z" fill="#888888"/>
<path d="M446.66 424.786L428.127 406.253" stroke="#1D1D1B" stroke-width="0.329333" stroke-miterlimit="10"/>
<path d="M420.088 424.786L401.555 406.253Z" fill="#888888"/>
<path d="M420.088 424.786L401.555 406.253" stroke="#1D1D1B" stroke-width="0.329333" stroke-miterlimit="10"/>
<path d="M393.514 424.786L374.98 406.253Z" fill="#888888"/>
<path d="M393.514 424.786L374.98 406.253" stroke="#1D1D1B" stroke-width="0.329333" stroke-miterlimit="10"/>
<path d="M366.94 424.786L348.406 406.253Z" fill="#888888"/>
<path d="M366.94 424.786L348.406 406.253" stroke="#1D1D1B" stroke-width="0.329333" stroke-miterlimit="10"/>
<path d="M272.499 356.921L167.09 251.512Z" fill="#888888"/>
<path d="M272.499 356.921L167.09 251.512" stroke="#1D1D1B" stroke-width="0.329333" stroke-miterlimit="10"/>
<path d="M272.499 383.495L167.09 278.086Z" fill="#888888"/>
<path d="M272.499 383.495L167.09 278.086" stroke="#1D1D1B" stroke-width="0.329333" stroke-miterlimit="10"/>
<path d="M272.499 330.348L167.09 224.938Z" fill="#888888"/>
<path d="M272.499 330.348L167.09 224.938" stroke="#1D1D1B" stroke-width="0.329333" stroke-miterlimit="10"/>
<path d="M272.499 303.773L167.09 198.364Z" fill="#888888"/>
<path d="M272.499 303.773L167.09 198.364" stroke="#1D1D1B" stroke-width="0.329333" stroke-miterlimit="10"/>
<path d="M272.499 277.2L167.09 171.791Z" fill="#888888"/>
<path d="M272.499 277.2L167.09 171.791" stroke="#1D1D1B" stroke-width="0.329333" stroke-miterlimit="10"/>
<path d="M272.499 250.626L175.947 154.074Z" fill="#888888"/>
<path d="M272.499 250.626L175.947 154.074" stroke="#1D1D1B" stroke-width="0.329333" stroke-miterlimit="10"/>
<path d="M272.5 224.053L202.113 153.666Z" fill="#888888"/>
<path d="M272.5 224.053L202.113 153.666" stroke="#1D1D1B" stroke-width="0.329333" stroke-miterlimit="10"/>
<path d="M272.499 197.479L228.686 153.666Z" fill="#888888"/>
<path d="M272.499 197.479L228.686 153.666" stroke="#1D1D1B" stroke-width="0.329333" stroke-miterlimit="10"/>
<path d="M272.5 170.905L255.262 153.667Z" fill="#888888"/>
<path d="M272.5 170.905L255.262 153.667" stroke="#1D1D1B" stroke-width="0.329333" stroke-miterlimit="10"/>
<path d="M286.741 424.31L167.09 304.659Z" fill="#888888"/>
<path d="M286.741 424.31L167.09 304.659" stroke="#1D1D1B" stroke-width="0.329333" stroke-miterlimit="10"/>
<path d="M272.499 436.643L167.09 331.233Z" fill="#888888"/>
<path d="M272.499 436.643L167.09 331.233" stroke="#1D1D1B" stroke-width="0.329333" stroke-miterlimit="10"/>
<path d="M272.499 463.216L167.09 357.806Z" fill="#888888"/>
<path d="M272.499 463.216L167.09 357.806" stroke="#1D1D1B" stroke-width="0.329333" stroke-miterlimit="10"/>
<path d="M272.5 489.79L160.617 377.907Z" fill="#888888"/>
<path d="M272.5 489.79L160.617 377.907" stroke="#1D1D1B" stroke-width="0.329333" stroke-miterlimit="10"/>
<path d="M272.5 516.364L133.906 377.771Z" fill="#888888"/>
<path d="M272.5 516.364L133.906 377.771" stroke="#1D1D1B" stroke-width="0.329333" stroke-miterlimit="10"/>
<path d="M272.5 542.938L106.992 377.429Z" fill="#888888"/>
<path d="M272.5 542.938L106.992 377.429" stroke="#1D1D1B" stroke-width="0.329333" stroke-miterlimit="10"/>
<path d="M155.234 452.246L81.0664 378.078Z" fill="#888888"/>
<path d="M155.234 452.246L81.0664 378.078" stroke="#1D1D1B" stroke-width="0.329333" stroke-miterlimit="10"/>
<path d="M128.25 452.246L54.082 378.078Z" fill="#888888"/>
<path d="M128.25 452.246L54.082 378.078" stroke="#1D1D1B" stroke-width="0.329333" stroke-miterlimit="10"/>
<path d="M101.268 452.246L27.0996 378.078Z" fill="#888888"/>
<path d="M101.268 452.246L27.0996 378.078" stroke="#1D1D1B" stroke-width="0.329333" stroke-miterlimit="10"/>
<path d="M74.2852 452.246L0.117188 378.078Z" fill="#888888"/>
<path d="M74.2852 452.246L0.117188 378.078" stroke="#1D1D1B" stroke-width="0.329333" stroke-miterlimit="10"/>
<path d="M272.5 569.511L167.5 464.511Z" fill="#888888"/>
<path d="M272.5 569.511L167.5 464.511" stroke="#1D1D1B" stroke-width="0.329333" stroke-miterlimit="10"/>
<path d="M272.499 596.085L167.09 490.676Z" fill="#888888"/>
<path d="M272.499 596.085L167.09 490.676" stroke="#1D1D1B" stroke-width="0.329333" stroke-miterlimit="10"/>
<path d="M272.499 622.659L167.09 517.25Z" fill="#888888"/>
<path d="M272.499 622.659L167.09 517.25" stroke="#1D1D1B" stroke-width="0.329333" stroke-miterlimit="10"/>
<path d="M272.499 649.232L167.09 543.823Z" fill="#888888"/>
<path d="M272.499 649.232L167.09 543.823" stroke="#1D1D1B" stroke-width="0.329333" stroke-miterlimit="10"/>
<path d="M272.499 675.806L167.09 570.396Z" fill="#888888"/>
<path d="M272.499 675.806L167.09 570.396" stroke="#1D1D1B" stroke-width="0.329333" stroke-miterlimit="10"/>
<path d="M246.609 676.488L167.09 596.971Z" fill="#888888"/>
<path d="M246.609 676.488L167.09 596.971" stroke="#1D1D1B" stroke-width="0.329333" stroke-miterlimit="10"/>
<path d="M219.694 676.147L167.09 623.543Z" fill="#888888"/>
<path d="M219.694 676.147L167.09 623.543" stroke="#1D1D1B" stroke-width="0.329333" stroke-miterlimit="10"/>
<path d="M193.119 676.147L167.09 650.118Z" fill="#888888"/>
<path d="M193.119 676.147L167.09 650.118" stroke="#1D1D1B" stroke-width="0.329333" stroke-miterlimit="10"/>
<path d="M340.365 424.786L321.832 406.253Z" fill="#888888"/>
<path d="M340.365 424.786L321.832 406.253" stroke="#1D1D1B" stroke-width="0.329333" stroke-miterlimit="10"/>
<path d="M313.791 424.786L295.258 406.253Z" fill="#888888"/>
<path d="M313.791 424.786L295.258 406.253" stroke="#1D1D1B" stroke-width="0.329333" stroke-miterlimit="10"/>
<path d="M805.022 424.786L786.488 406.253Z" fill="#888888"/>
<path d="M805.022 424.786L786.488 406.253" stroke="#1D1D1B" stroke-width="0.329333" stroke-miterlimit="10"/>
<path d="M778.449 424.786L759.916 406.253Z" fill="#888888"/>
<path d="M778.449 424.786L759.916 406.253" stroke="#1D1D1B" stroke-width="0.329333" stroke-miterlimit="10"/>
<path d="M751.875 424.786L733.342 406.253Z" fill="#888888"/>
<path d="M751.875 424.786L733.342 406.253" stroke="#1D1D1B" stroke-width="0.329333" stroke-miterlimit="10"/>
<path d="M725.301 424.786L706.768 406.253Z" fill="#888888"/>
<path d="M725.301 424.786L706.768 406.253" stroke="#1D1D1B" stroke-width="0.329333" stroke-miterlimit="10"/>
<path d="M698.727 424.786L680.193 406.253Z" fill="#888888"/>
<path d="M698.727 424.786L680.193 406.253" stroke="#1D1D1B" stroke-width="0.329333" stroke-miterlimit="10"/>
<path d="M672.152 424.786L653.619 406.253Z" fill="#888888"/>
<path d="M672.152 424.786L653.619 406.253" stroke="#1D1D1B" stroke-width="0.329333" stroke-miterlimit="10"/>
<path d="M645.58 424.786L627.047 406.253Z" fill="#888888"/>
<path d="M645.58 424.786L627.047 406.253" stroke="#1D1D1B" stroke-width="0.329333" stroke-miterlimit="10"/>
<path d="M619.006 424.786L600.473 406.253Z" fill="#888888"/>
<path d="M619.006 424.786L600.473 406.253" stroke="#1D1D1B" stroke-width="0.329333" stroke-miterlimit="10"/>
<path d="M592.432 424.786L573.898 406.253Z" fill="#888888"/>
<path d="M592.432 424.786L573.898 406.253" stroke="#1D1D1B" stroke-width="0.329333" stroke-miterlimit="10"/>
<path d="M565.858 424.786L547.324 406.253Z" fill="#888888"/>
<path d="M565.858 424.786L547.324 406.253" stroke="#1D1D1B" stroke-width="0.329333" stroke-miterlimit="10"/>
<path d="M539.283 424.786L520.75 406.253Z" fill="#888888"/>
<path d="M539.283 424.786L520.75 406.253" stroke="#1D1D1B" stroke-width="0.329333" stroke-miterlimit="10"/>
<path d="M512.709 424.786L494.176 406.253Z" fill="#888888"/>
<path d="M512.709 424.786L494.176 406.253" stroke="#1D1D1B" stroke-width="0.329333" stroke-miterlimit="10"/>
<path d="M486.135 424.786L467.602 406.253Z" fill="#888888"/>
<path d="M486.135 424.786L467.602 406.253" stroke="#1D1D1B" stroke-width="0.329333" stroke-miterlimit="10"/>
<path d="M459.563 424.786L441.029 406.253Z" fill="#888888"/>
<path d="M459.563 424.786L441.029 406.253" stroke="#1D1D1B" stroke-width="0.329333" stroke-miterlimit="10"/>
<path d="M432.988 424.786L414.455 406.253Z" fill="#888888"/>
<path d="M432.988 424.786L414.455 406.253" stroke="#1D1D1B" stroke-width="0.329333" stroke-miterlimit="10"/>
<path d="M406.414 424.786L387.881 406.253Z" fill="#888888"/>
<path d="M406.414 424.786L387.881 406.253" stroke="#1D1D1B" stroke-width="0.329333" stroke-miterlimit="10"/>
<path d="M379.84 424.786L361.307 406.253Z" fill="#888888"/>
<path d="M379.84 424.786L361.307 406.253" stroke="#1D1D1B" stroke-width="0.329333" stroke-miterlimit="10"/>
<path d="M353.266 424.786L334.732 406.253Z" fill="#888888"/>
<path d="M353.266 424.786L334.732 406.253" stroke="#1D1D1B" stroke-width="0.329333" stroke-miterlimit="10"/>
<path d="M273.066 371.162L167.066 265.162Z" fill="#888888"/>
<path d="M273.066 371.162L167.066 265.162" stroke="#1D1D1B" stroke-width="0.329333" stroke-miterlimit="10"/>
<path d="M272.704 397.372L167.066 291.735Z" fill="#888888"/>
<path d="M272.704 397.372L167.066 291.735" stroke="#1D1D1B" stroke-width="0.329333" stroke-miterlimit="10"/>
<path d="M272.568 344.089L167.068 238.589Z" fill="#888888"/>
<path d="M272.568 344.089L167.068 238.589" stroke="#1D1D1B" stroke-width="0.329333" stroke-miterlimit="10"/>
<path d="M272.772 317.72L167.066 212.014Z" fill="#888888"/>
<path d="M272.772 317.72L167.066 212.014" stroke="#1D1D1B" stroke-width="0.329333" stroke-miterlimit="10"/>
<path d="M272.34 290.714L167.066 185.441Z" fill="#888888"/>
<path d="M272.34 290.714L167.066 185.441" stroke="#1D1D1B" stroke-width="0.329333" stroke-miterlimit="10"/>
<path d="M272.977 264.776L167.09 158.89Z" fill="#888888"/>
<path d="M272.977 264.776L167.09 158.89" stroke="#1D1D1B" stroke-width="0.329333" stroke-miterlimit="10"/>
<path d="M273.181 238.407L188.439 153.666Z" fill="#888888"/>
<path d="M273.181 238.407L188.439 153.666" stroke="#1D1D1B" stroke-width="0.329333" stroke-miterlimit="10"/>
<path d="M272.227 210.88L215.014 153.667Z" fill="#888888"/>
<path d="M272.227 210.88L215.014 153.667" stroke="#1D1D1B" stroke-width="0.329333" stroke-miterlimit="10"/>
<path d="M272.523 184.601L241.588 153.666Z" fill="#888888"/>
<path d="M272.523 184.601L241.588 153.666" stroke="#1D1D1B" stroke-width="0.329333" stroke-miterlimit="10"/>
<path d="M273.066 424.31L167.066 318.31Z" fill="#888888"/>
<path d="M273.066 424.31L167.066 318.31" stroke="#1D1D1B" stroke-width="0.329333" stroke-miterlimit="10"/>
<path d="M272.613 450.429L167.066 344.882Z" fill="#888888"/>
<path d="M272.613 450.429L167.066 344.882" stroke="#1D1D1B" stroke-width="0.329333" stroke-miterlimit="10"/>
<path d="M272.613 477.003L167.066 371.456Z" fill="#888888"/>
<path d="M272.613 477.003L167.066 371.456" stroke="#1D1D1B" stroke-width="0.329333" stroke-miterlimit="10"/>
<path d="M272.613 503.577L146.943 377.908Z" fill="#888888"/>
<path d="M272.613 503.577L146.943 377.908" stroke="#1D1D1B" stroke-width="0.329333" stroke-miterlimit="10"/>
<path d="M272.612 530.15L120.232 377.77Z" fill="#888888"/>
<path d="M272.612 530.15L120.232 377.77" stroke="#1D1D1B" stroke-width="0.329333" stroke-miterlimit="10"/>
<path d="M272.613 556.724L93.3184 377.429Z" fill="#888888"/>
<path d="M272.613 556.724L93.3184 377.429" stroke="#1D1D1B" stroke-width="0.329333" stroke-miterlimit="10"/>
<path d="M141.561 452.246L67.3926 378.078Z" fill="#888888"/>
<path d="M141.561 452.246L67.3926 378.078" stroke="#1D1D1B" stroke-width="0.329333" stroke-miterlimit="10"/>
<path d="M114.578 452.246L40.4102 378.078Z" fill="#888888"/>
<path d="M114.578 452.246L40.4102 378.078" stroke="#1D1D1B" stroke-width="0.329333" stroke-miterlimit="10"/>
<path d="M87.5938 452.246L13.4258 378.078Z" fill="#888888"/>
<path d="M87.5938 452.246L13.4258 378.078" stroke="#1D1D1B" stroke-width="0.329333" stroke-miterlimit="10"/>
<path d="M272.612 583.298L166.715 477.401Z" fill="#888888"/>
<path d="M272.612 583.298L166.715 477.401" stroke="#1D1D1B" stroke-width="0.329333" stroke-miterlimit="10"/>
<path d="M272.613 609.872L166.307 503.565Z" fill="#888888"/>
<path d="M272.613 609.872L166.307 503.565" stroke="#1D1D1B" stroke-width="0.329333" stroke-miterlimit="10"/>
<path d="M272.613 636.445L166.307 530.139Z" fill="#888888"/>
<path d="M272.613 636.445L166.307 530.139" stroke="#1D1D1B" stroke-width="0.329333" stroke-miterlimit="10"/>
<path d="M272.612 663.019L166.703 557.109Z" fill="#888888"/>
<path d="M272.612 663.019L166.703 557.109" stroke="#1D1D1B" stroke-width="0.329333" stroke-miterlimit="10"/>
<path d="M258.826 675.806L166.703 583.683Z" fill="#888888"/>
<path d="M258.826 675.806L166.703 583.683" stroke="#1D1D1B" stroke-width="0.329333" stroke-miterlimit="10"/>
<path d="M232.934 676.488L166.703 610.258Z" fill="#888888"/>
<path d="M232.934 676.488L166.703 610.258" stroke="#1D1D1B" stroke-width="0.329333" stroke-miterlimit="10"/>
<path d="M206.019 676.147L166.703 636.831Z" fill="#888888"/>
<path d="M206.019 676.147L166.703 636.831" stroke="#1D1D1B" stroke-width="0.329333" stroke-miterlimit="10"/>
<path d="M179.446 676.147L166.703 663.405Z" fill="#888888"/>
<path d="M179.446 676.147L166.703 663.405" stroke="#1D1D1B" stroke-width="0.329333" stroke-miterlimit="10"/>
<path d="M326.692 424.786L308.158 406.253Z" fill="#888888"/>
<path d="M326.692 424.786L308.158 406.253" stroke="#1D1D1B" stroke-width="0.329333" stroke-miterlimit="10"/>
<path d="M300.117 424.786L281.584 406.253Z" fill="#888888"/>
<path d="M300.117 424.786L281.584 406.253" stroke="#1D1D1B" stroke-width="0.329333" stroke-miterlimit="10"/>
<path d="M481.908 53.4364C481.908 58.7404 486.207 63.0391 491.511 63.0391C496.816 63.0391 501.115 58.7404 501.115 53.4364C501.115 48.1324 496.816 43.8324 491.511 43.8324C486.207 43.8324 481.908 48.1324 481.908 53.4364Z" fill="url(#paint0_radial_1012_7628)"/>
<path d="M491.512 43.8314C486.208 43.8314 481.908 48.1314 481.908 53.4354C481.908 58.7381 486.208 63.0381 491.512 63.0381C496.816 63.0381 501.116 58.7381 501.116 53.4354C501.116 48.1314 496.816 43.8314 491.512 43.8314Z" stroke="#1D1D1B" stroke-width="0.656" stroke-miterlimit="10"/>
<path d="M452.508 61.6314V43.8581L456.981 62.5674L462.025 43.8581L467.23 62.5674L472.112 43.8581L477.48 62.4047L482.442 43.8581V60.4407" stroke="#1D1D1B" stroke-width="2.196" stroke-miterlimit="10" stroke-linecap="round" stroke-linejoin="round"/>
<defs>
<radialGradient id="paint0_radial_1012_7628" cx="0" cy="0" r="1" gradientTransform="matrix(-9.93382 -9.86927 -9.86931 9.93378 493.721 56.0002)" gradientUnits="userSpaceOnUse">
<stop stop-color="#D0D0D0"/>
<stop offset="0.99359" stop-color="#646363"/>
<stop offset="1" stop-color="#646363"/>
</radialGradient>
</defs>
</svg>
