<svg width="395" height="218" viewBox="0 0 395 218" fill="none" xmlns="http://www.w3.org/2000/svg">
<path d="M124.431 143.406H82.3906V72.168H124.431V143.406Z" fill="#AC1916"/>
<path d="M274.391 143.547H82.3906V72.5469H274.391V143.547Z" fill="#AC1916"/>
<path d="M126.955 10.8099H108.012V0.546875H126.955V10.8099Z" fill="#1D1D1B" stroke="#1D1D1B" stroke-width="1.09333" stroke-miterlimit="10"/>
<path d="M126.955 216.587H108.012V206.324H126.955V216.587Z" fill="#1D1D1B" stroke="#1D1D1B" stroke-width="1.09333" stroke-miterlimit="10"/>
<path d="M189.232 86.852H240.744L262.412 108.52L240.744 130.188H132.268V148.176H96.8357H95.4727V206.23H141.263V146.268H394.734V70.772H189.232V86.852Z" fill="#888888"/>
<path d="M166.473 70.7721H141.263V10.8101H95.4727V68.864H132.268V86.8521H166.473V70.7721Z" fill="#888888"/>
<path d="M166.473 70.7721H141.263V10.8101H95.4727V68.864H132.268V86.8521H166.473V70.7721Z" stroke="#1D1D1B" stroke-width="0.988" stroke-miterlimit="10" stroke-linecap="round" stroke-linejoin="round"/>
<path d="M58.9102 108.161C58.9102 118.869 67.5911 127.549 78.2961 127.549C89.0041 127.549 97.6862 118.869 97.6862 108.161C97.6862 97.4539 89.0041 88.7729 78.2961 88.7729C67.5911 88.7729 58.9102 97.4539 58.9102 108.161Z" fill="url(#paint0_radial_1050_32519)"/>
<path d="M97.6881 108.161C97.6881 97.4529 89.0081 88.7729 78.3001 88.7729C67.5941 88.7729 58.9141 97.4529 58.9141 108.161C58.9141 118.869 67.5941 127.549 78.3001 127.549C89.0081 127.549 97.6881 118.869 97.6881 108.161Z" stroke="#1D1D1B" stroke-width="1.32267" stroke-miterlimit="10"/>
<path d="M9.62109 131.914V80.674L17.7971 138.274L25.7931 79.0391L33.2421 138.274L40.1461 79.0391L49.9581 138.274L58.9111 79.0391V130.642" stroke="#1D1D1B" stroke-width="3.27067" stroke-miterlimit="10" stroke-linecap="round" stroke-linejoin="round"/>
<path d="M132.272 68.8628V94.0738H121.779V75.9498H94.9322V89.0328H81.9852V75.9498H7.44318V96.6628H0.492188V68.8628H132.272Z" fill="#646363"/>
<path d="M132.272 68.8628V94.0738H121.779V75.9498H94.9322V89.0328H81.9852V75.9498H7.44318V96.6628H0.492188V68.8628H132.272Z" stroke="#1D1D1B" stroke-width="0.988" stroke-miterlimit="10"/>
<path d="M132.067 87.7378L125.867 93.9378" stroke="#1D1D1B" stroke-width="0.329333" stroke-miterlimit="10"/>
<path d="M131.932 79.9688L122.211 89.6907" stroke="#1D1D1B" stroke-width="0.329333" stroke-miterlimit="10"/>
<path d="M131.975 72.02L122.254 81.741" stroke="#1D1D1B" stroke-width="0.329333" stroke-miterlimit="10"/>
<path d="M127.227 68.8628L120.414 75.6758" stroke="#1D1D1B" stroke-width="0.329333" stroke-miterlimit="10"/>
<path d="M119.322 68.8628L112.508 75.6758" stroke="#1D1D1B" stroke-width="0.329333" stroke-miterlimit="10"/>
<path d="M94.5906 85.6929L91.6836 88.5999" stroke="#1D1D1B" stroke-width="0.329333" stroke-miterlimit="10"/>
<path d="M111.418 68.8628L104.605 75.6758" stroke="#1D1D1B" stroke-width="0.329333" stroke-miterlimit="10"/>
<path d="M94.4738 77.9028L83.7188 88.6569" stroke="#1D1D1B" stroke-width="0.329333" stroke-miterlimit="10"/>
<path d="M103.515 68.8628L96.8477 75.5288" stroke="#1D1D1B" stroke-width="0.329333" stroke-miterlimit="10"/>
<path d="M95.6096 68.8638L82.3906 82.0818" stroke="#1D1D1B" stroke-width="0.329333" stroke-miterlimit="10"/>
<path d="M87.709 68.8628L81.043 75.5288" stroke="#1D1D1B" stroke-width="0.329333" stroke-miterlimit="10"/>
<path d="M79.8046 68.8628L73.1445 75.5228" stroke="#1D1D1B" stroke-width="0.329333" stroke-miterlimit="10"/>
<path d="M71.9022 68.8628L65.2422 75.5228" stroke="#1D1D1B" stroke-width="0.329333" stroke-miterlimit="10"/>
<path d="M63.996 68.8628L57.3359 75.5228" stroke="#1D1D1B" stroke-width="0.329333" stroke-miterlimit="10"/>
<path d="M56.0897 68.8628L49.4297 75.5228" stroke="#1D1D1B" stroke-width="0.329333" stroke-miterlimit="10"/>
<path d="M48.1873 68.8628L41.5273 75.5228" stroke="#1D1D1B" stroke-width="0.329333" stroke-miterlimit="10"/>
<path d="M40.285 68.8628L33.625 75.5228" stroke="#1D1D1B" stroke-width="0.329333" stroke-miterlimit="10"/>
<path d="M7.03064 94.2109L5.05469 96.1869" stroke="#1D1D1B" stroke-width="0.329333" stroke-miterlimit="10"/>
<path d="M32.3785 68.8628L25.7695 75.4728" stroke="#1D1D1B" stroke-width="0.329333" stroke-miterlimit="10"/>
<path d="M6.71289 86.624L0.921875 92.416" stroke="#1D1D1B" stroke-width="0.329333" stroke-miterlimit="10"/>
<path d="M24.4762 68.8628L17.8672 75.4728" stroke="#1D1D1B" stroke-width="0.329333" stroke-miterlimit="10"/>
<path d="M6.84784 78.584L0.964844 84.467" stroke="#1D1D1B" stroke-width="0.329333" stroke-miterlimit="10"/>
<path d="M16.5739 68.8628L9.96484 75.4728" stroke="#1D1D1B" stroke-width="0.329333" stroke-miterlimit="10"/>
<path d="M8.66803 68.8628L0.75 76.7808" stroke="#1D1D1B" stroke-width="0.329333" stroke-miterlimit="10"/>
<path d="M132.272 148.176V122.965H121.779V141.089H94.9322V128.007H81.9852V141.089H7.44318V120.376H0.492188V148.176H132.272Z" fill="#646363"/>
<path d="M132.272 148.176V122.965H121.779V141.089H94.9322V128.007H81.9852V141.089H7.44318V120.376H0.492188V148.176H132.272Z" stroke="#1D1D1B" stroke-width="0.988" stroke-miterlimit="10"/>
<path d="M132.067 141.702L125.867 147.902" stroke="#1D1D1B" stroke-width="0.329333" stroke-miterlimit="10"/>
<path d="M131.725 134.139L117.961 147.903" stroke="#1D1D1B" stroke-width="0.329333" stroke-miterlimit="10"/>
<path d="M116.325 141.635L110.055 147.904" stroke="#1D1D1B" stroke-width="0.329333" stroke-miterlimit="10"/>
<path d="M131.655 126.303L122.047 135.911" stroke="#1D1D1B" stroke-width="0.329333" stroke-miterlimit="10"/>
<path d="M108.796 141.259L102.152 147.903" stroke="#1D1D1B" stroke-width="0.329333" stroke-miterlimit="10"/>
<path d="M127.226 122.828L122.047 128.007" stroke="#1D1D1B" stroke-width="0.329333" stroke-miterlimit="10"/>
<path d="M100.894 141.259L94.25 147.903" stroke="#1D1D1B" stroke-width="0.329333" stroke-miterlimit="10"/>
<path d="M94.4868 139.761L86.3438 147.903" stroke="#1D1D1B" stroke-width="0.329333" stroke-miterlimit="10"/>
<path d="M94.6245 131.721L78.4414 147.903" stroke="#1D1D1B" stroke-width="0.329333" stroke-miterlimit="10"/>
<path d="M76.8081 141.635L70.5391 147.904" stroke="#1D1D1B" stroke-width="0.329333" stroke-miterlimit="10"/>
<path d="M90.4352 128.007L82.5312 135.911" stroke="#1D1D1B" stroke-width="0.329333" stroke-miterlimit="10"/>
<path d="M69.4128 141.123L62.6328 147.903" stroke="#1D1D1B" stroke-width="0.329333" stroke-miterlimit="10"/>
<path d="M61.3356 141.294L54.7266 147.903" stroke="#1D1D1B" stroke-width="0.329333" stroke-miterlimit="10"/>
<path d="M53.7092 141.021L46.8281 147.902" stroke="#1D1D1B" stroke-width="0.329333" stroke-miterlimit="10"/>
<path d="M45.8029 141.021L38.9219 147.902" stroke="#1D1D1B" stroke-width="0.329333" stroke-miterlimit="10"/>
<path d="M37.8976 141.021L31.0156 147.902" stroke="#1D1D1B" stroke-width="0.329333" stroke-miterlimit="10"/>
<path d="M29.9943 141.021L23.1133 147.902" stroke="#1D1D1B" stroke-width="0.329333" stroke-miterlimit="10"/>
<path d="M22.092 141.021L15.2109 147.902" stroke="#1D1D1B" stroke-width="0.329333" stroke-miterlimit="10"/>
<path d="M14.1867 141.021L7.30469 147.902" stroke="#1D1D1B" stroke-width="0.329333" stroke-miterlimit="10"/>
<path d="M7.03174 140.272L0.761719 146.541" stroke="#1D1D1B" stroke-width="0.329333" stroke-miterlimit="10"/>
<path d="M7.16791 132.232L1.17188 138.228" stroke="#1D1D1B" stroke-width="0.329333" stroke-miterlimit="10"/>
<path d="M7.13184 124.362L0.964844 130.528" stroke="#1D1D1B" stroke-width="0.329333" stroke-miterlimit="10"/>
<path d="M2.87677 120.717L0.59375 122.999" stroke="#1D1D1B" stroke-width="0.329333" stroke-miterlimit="10"/>
<defs>
<radialGradient id="paint0_radial_1050_32519" cx="0" cy="0" r="1" gradientUnits="userSpaceOnUse" gradientTransform="translate(73.1212 112.621) rotate(-45.1866) scale(28.2696)">
<stop stop-color="#D0D0D0"/>
<stop offset="0.99359" stop-color="#646363"/>
<stop offset="1" stop-color="#646363"/>
</radialGradient>
</defs>
</svg>
