<svg width="328" height="100" viewBox="0 0 328 100" fill="none" xmlns="http://www.w3.org/2000/svg">
<path d="M191.15 99.5723H323.5V0.000305176H193.717H106.295V6.47491H70.1367V92.6683H106.295V99.5723H191.15Z" fill="#D0D0D0"/>
<path d="M113.246 59.8262H190.923V32.1621H113.246V59.8262Z" fill="white"/>
<path d="M74.8613 6.47387V91.2139" stroke="#1D1D1B" stroke-width="0.988" stroke-miterlimit="10"/>
<path d="M79.4043 6.47387V91.2139" stroke="#1D1D1B" stroke-width="0.988" stroke-miterlimit="10"/>
<path d="M83.9473 6.47387V91.2139" stroke="#1D1D1B" stroke-width="0.988" stroke-miterlimit="10"/>
<path d="M88.4883 6.47387V91.2139" stroke="#1D1D1B" stroke-width="0.988" stroke-miterlimit="10"/>
<path d="M93.0312 6.47387V91.2139" stroke="#1D1D1B" stroke-width="0.988" stroke-miterlimit="10"/>
<path d="M97.5742 6.47387V91.2139" stroke="#1D1D1B" stroke-width="0.988" stroke-miterlimit="10"/>
<path d="M102.117 6.47387V91.2139" stroke="#1D1D1B" stroke-width="0.988" stroke-miterlimit="10"/>
<path d="M68.8653 36.4219H0" stroke="#1D1D1B" stroke-width="0.988" stroke-miterlimit="10"/>
<path d="M68.8653 55.6006H0" stroke="#1D1D1B" stroke-width="0.988" stroke-miterlimit="10"/>
<path d="M121.836 32.1758V14.0051" stroke="#1D1D1B" stroke-width="0.988" stroke-miterlimit="10"/>
<path d="M121.836 78.1133V59.9426" stroke="#1D1D1B" stroke-width="0.988" stroke-miterlimit="10"/>
<path d="M125.646 32.1758V14.0051" stroke="#1D1D1B" stroke-width="0.988" stroke-miterlimit="10"/>
<path d="M125.646 78.1133V59.9426" stroke="#1D1D1B" stroke-width="0.988" stroke-miterlimit="10"/>
<path d="M129.459 32.1758V14.0051" stroke="#1D1D1B" stroke-width="0.988" stroke-miterlimit="10"/>
<path d="M129.459 78.1133V59.9426" stroke="#1D1D1B" stroke-width="0.988" stroke-miterlimit="10"/>
<path d="M133.271 32.1758V14.0051" stroke="#1D1D1B" stroke-width="0.988" stroke-miterlimit="10"/>
<path d="M133.271 78.1133V59.9426" stroke="#1D1D1B" stroke-width="0.988" stroke-miterlimit="10"/>
<path d="M137.084 32.1758V14.0051" stroke="#1D1D1B" stroke-width="0.988" stroke-miterlimit="10"/>
<path d="M137.084 78.1133V59.9426" stroke="#1D1D1B" stroke-width="0.988" stroke-miterlimit="10"/>
<path d="M140.895 32.1758V14.0051" stroke="#1D1D1B" stroke-width="0.988" stroke-miterlimit="10"/>
<path d="M140.895 78.1133V59.9426" stroke="#1D1D1B" stroke-width="0.988" stroke-miterlimit="10"/>
<path d="M144.707 32.1758V14.0051" stroke="#1D1D1B" stroke-width="0.988" stroke-miterlimit="10"/>
<path d="M144.707 78.1133V59.9426" stroke="#1D1D1B" stroke-width="0.988" stroke-miterlimit="10"/>
<path d="M148.52 32.1758V14.0051" stroke="#1D1D1B" stroke-width="0.988" stroke-miterlimit="10"/>
<path d="M148.52 78.1133V59.9426" stroke="#1D1D1B" stroke-width="0.988" stroke-miterlimit="10"/>
<path d="M152.332 32.1758V14.0051" stroke="#1D1D1B" stroke-width="0.988" stroke-miterlimit="10"/>
<path d="M152.332 78.1133V59.9426" stroke="#1D1D1B" stroke-width="0.988" stroke-miterlimit="10"/>
<path d="M156.143 32.1758V14.0051" stroke="#1D1D1B" stroke-width="0.988" stroke-miterlimit="10"/>
<path d="M156.143 78.1133V59.9426" stroke="#1D1D1B" stroke-width="0.988" stroke-miterlimit="10"/>
<path d="M159.955 32.1758V14.0051" stroke="#1D1D1B" stroke-width="0.988" stroke-miterlimit="10"/>
<path d="M159.955 78.1133V59.9426" stroke="#1D1D1B" stroke-width="0.988" stroke-miterlimit="10"/>
<path d="M163.768 32.1758V14.0051" stroke="#1D1D1B" stroke-width="0.988" stroke-miterlimit="10"/>
<path d="M163.768 78.1133V59.9426" stroke="#1D1D1B" stroke-width="0.988" stroke-miterlimit="10"/>
<path d="M167.58 32.1758V14.0051" stroke="#1D1D1B" stroke-width="0.988" stroke-miterlimit="10"/>
<path d="M167.58 78.1133V59.9426" stroke="#1D1D1B" stroke-width="0.988" stroke-miterlimit="10"/>
<path d="M171.391 32.1758V14.0051" stroke="#1D1D1B" stroke-width="0.988" stroke-miterlimit="10"/>
<path d="M171.391 78.1133V59.9426" stroke="#1D1D1B" stroke-width="0.988" stroke-miterlimit="10"/>
<path d="M175.203 32.1758V14.0051" stroke="#1D1D1B" stroke-width="0.988" stroke-miterlimit="10"/>
<path d="M175.203 78.1133V59.9426" stroke="#1D1D1B" stroke-width="0.988" stroke-miterlimit="10"/>
<path d="M179.016 78.1133V59.9426" stroke="#1D1D1B" stroke-width="0.988" stroke-miterlimit="10"/>
<path d="M269.282 74.1396H191.877V17.8117H269.282V74.1396Z" fill="white" stroke="#1D1D1B" stroke-width="0.988" stroke-miterlimit="10"/>
<path d="M266.92 73.4072H269.283V17.8126H266.92V73.4072Z" fill="#1D1D1B"/>
<path d="M177.023 48.8467H327.79V43.0653H177.023V48.8467Z" fill="#1D1D1B"/>
<path d="M140.229 59.8262H177.023V32.1621H140.229V59.8262Z" fill="#1D1D1B"/>
<path d="M193.785 62.1429V24.4522L206.868 68.0615L216.406 24.4522L231.58 68.0615L242.958 24.4522L254.746 68.0615L265.648 24.1749V59.4122" stroke="#1D1D1B" stroke-width="3.27067" stroke-miterlimit="10" stroke-linecap="round" stroke-linejoin="round"/>
</svg>
